<?xml version="1.0" encoding="UTF-8" standalone="no"?>
<!DOCTYPE svg PUBLIC "-//W3C//DTD SVG 1.1//EN"
 "http://www.w3.org/Graphics/SVG/1.1/DTD/svg11.dtd">
<!-- Generated by graphviz version 2.47.0 (20210316.0004)
 -->
<!-- Title: dependencies Pages: 1 -->
<svg width="530pt" height="284pt"
 viewBox="0.00 0.00 530.00 284.00" xmlns="http://www.w3.org/2000/svg" xmlns:xlink="http://www.w3.org/1999/xlink">
<g id="graph0" class="graph" transform="scale(1 1) rotate(0) translate(4 280)">
<title>dependencies</title>
<polygon fill="white" stroke="transparent" points="-4,4 -4,-280 526,-280 526,4 -4,4"/>
<text text-anchor="start" x="240.01" y="-42.4" font-family="Times-12" font-weight="bold" font-size="14.00">Legend</text>
<polygon fill="#ffffb3" stroke="transparent" points="27,-10 27,-30 47,-30 47,-10 27,-10"/>
<text text-anchor="start" x="50.63" y="-15.4" font-family="Times-12" font-size="14.00"> &#160;Declarations</text>
<polygon fill="#8dd3c7" stroke="transparent" points="140,-10 140,-30 160,-30 160,-10 140,-10"/>
<text text-anchor="start" x="163.73" y="-15.4" font-family="Times-12" font-size="14.00"> &#160;Module</text>
<polygon fill="#80b1d3" stroke="transparent" points="226,-10 226,-30 246,-30 246,-10 226,-10"/>
<text text-anchor="start" x="249.78" y="-15.4" font-family="Times-12" font-size="14.00"> &#160;Bootstrap</text>
<polygon fill="#fdb462" stroke="transparent" points="323,-10 323,-30 343,-30 343,-10 323,-10"/>
<text text-anchor="start" x="346.67" y="-15.4" font-family="Times-12" font-size="14.00"> &#160;Providers</text>
<polygon fill="#fb8072" stroke="transparent" points="419,-10 419,-30 439,-30 439,-10 419,-10"/>
<text text-anchor="start" x="442.73" y="-15.4" font-family="Times-12" font-size="14.00"> &#160;Exports</text>
<g id="clust1" class="cluster">
<title>cluster_BoxesModule</title>
<polygon fill="none" stroke="black" stroke-dasharray="1,5" points="8,-70 8,-268 514,-268 514,-70 8,-70"/>
</g>
<g id="clust2" class="cluster">
<title>cluster_BoxesModule_declarations</title>
<polygon fill="none" stroke="black" points="148,-78 148,-130 506,-130 506,-78 148,-78"/>
</g>
<g id="clust5" class="cluster">
<title>cluster_BoxesModule_imports</title>
<polygon fill="none" stroke="black" points="16,-78 16,-130 140,-130 140,-78 16,-78"/>
</g>
<g id="clust6" class="cluster">
<title>cluster_BoxesModule_exports</title>
<polygon fill="none" stroke="black" points="79,-208 79,-260 444,-260 444,-208 79,-208"/>
</g>
<!-- CategoryBoxComponent -->
<g id="node1" class="node">
<title>CategoryBoxComponent</title>
<polygon fill="#ffffb3" stroke="black" points="497.99,-122 342.01,-122 342.01,-86 497.99,-86 497.99,-122"/>
<text text-anchor="middle" x="420" y="-99.8" font-family="Times,serif" font-size="14.00">CategoryBoxComponent</text>
</g>
<!-- BoxesModule -->
<g id="node3" class="node">
<title>BoxesModule</title>
<polygon fill="#8dd3c7" stroke="black" points="287.05,-187 284.05,-191 263.05,-191 260.05,-187 192.95,-187 192.95,-151 287.05,-151 287.05,-187"/>
<text text-anchor="middle" x="240" y="-164.8" font-family="Times,serif" font-size="14.00">BoxesModule</text>
</g>
<!-- CategoryBoxComponent&#45;&gt;BoxesModule -->
<g id="edge1" class="edge">
<title>CategoryBoxComponent&#45;&gt;BoxesModule</title>
<path fill="none" stroke="black" d="M388.88,-122.11C388.88,-141.34 388.88,-169 388.88,-169 388.88,-169 297.1,-169 297.1,-169"/>
<polygon fill="black" stroke="black" points="297.11,-165.5 287.1,-169 297.1,-172.5 297.11,-165.5"/>
</g>
<!-- RecentPostBoxComponent -->
<g id="node2" class="node">
<title>RecentPostBoxComponent</title>
<polygon fill="#ffffb3" stroke="black" points="323.66,-122 156.34,-122 156.34,-86 323.66,-86 323.66,-122"/>
<text text-anchor="middle" x="240" y="-99.8" font-family="Times,serif" font-size="14.00">RecentPostBoxComponent</text>
</g>
<!-- RecentPostBoxComponent&#45;&gt;BoxesModule -->
<g id="edge2" class="edge">
<title>RecentPostBoxComponent&#45;&gt;BoxesModule</title>
<path fill="none" stroke="black" d="M240,-122.11C240,-122.11 240,-140.99 240,-140.99"/>
<polygon fill="black" stroke="black" points="236.5,-140.99 240,-150.99 243.5,-140.99 236.5,-140.99"/>
</g>
<!-- CategoryBoxComponent  -->
<g id="node5" class="node">
<title>CategoryBoxComponent </title>
<polygon fill="#fb8072" stroke="black" points="435.99,-252 276.01,-252 276.01,-216 435.99,-216 435.99,-252"/>
<text text-anchor="middle" x="356" y="-229.8" font-family="Times,serif" font-size="14.00">CategoryBoxComponent </text>
</g>
<!-- BoxesModule&#45;&gt;CategoryBoxComponent  -->
<g id="edge4" class="edge">
<title>BoxesModule&#45;&gt;CategoryBoxComponent </title>
<path fill="none" stroke="black" stroke-dasharray="5,2" d="M281.76,-187.11C281.76,-187.11 281.76,-205.99 281.76,-205.99"/>
<polygon fill="black" stroke="black" points="278.26,-205.99 281.76,-215.99 285.26,-205.99 278.26,-205.99"/>
</g>
<!-- RecentPostBoxComponent  -->
<g id="node6" class="node">
<title>RecentPostBoxComponent </title>
<polygon fill="#fb8072" stroke="black" points="258.66,-252 87.34,-252 87.34,-216 258.66,-216 258.66,-252"/>
<text text-anchor="middle" x="173" y="-229.8" font-family="Times,serif" font-size="14.00">RecentPostBoxComponent </text>
</g>
<!-- BoxesModule&#45;&gt;RecentPostBoxComponent  -->
<g id="edge5" class="edge">
<title>BoxesModule&#45;&gt;RecentPostBoxComponent </title>
<path fill="none" stroke="black" stroke-dasharray="5,2" d="M225.65,-187.11C225.65,-187.11 225.65,-205.99 225.65,-205.99"/>
<polygon fill="black" stroke="black" points="222.15,-205.99 225.65,-215.99 229.15,-205.99 222.15,-205.99"/>
</g>
<!-- SkeletonModule -->
<g id="node4" class="node">
<title>SkeletonModule</title>
<polygon fill="#8dd3c7" stroke="black" points="132.04,-122 129.04,-126 108.04,-126 105.04,-122 23.96,-122 23.96,-86 132.04,-86 132.04,-122"/>
<text text-anchor="middle" x="78" y="-99.8" font-family="Times,serif" font-size="14.00">SkeletonModule</text>
</g>
<!-- SkeletonModule&#45;&gt;BoxesModule -->
<g id="edge3" class="edge">
<title>SkeletonModule&#45;&gt;BoxesModule</title>
<path fill="none" stroke="black" d="M109.85,-122.11C109.85,-141.34 109.85,-169 109.85,-169 109.85,-169 182.64,-169 182.64,-169"/>
<polygon fill="black" stroke="black" points="182.64,-172.5 192.64,-169 182.64,-165.5 182.64,-172.5"/>
</g>
</g>
</svg>
