<?xml version="1.0" encoding="UTF-8" standalone="no"?>
<!DOCTYPE svg PUBLIC "-//W3C//DTD SVG 1.1//EN"
 "http://www.w3.org/Graphics/SVG/1.1/DTD/svg11.dtd">
<!-- Generated by graphviz version 2.47.0 (20210316.0004)
 -->
<!-- Title: dependencies Pages: 1 -->
<svg width="1305pt" height="284pt"
 viewBox="0.00 0.00 1305.00 284.00" xmlns="http://www.w3.org/2000/svg" xmlns:xlink="http://www.w3.org/1999/xlink">
<g id="graph0" class="graph" transform="scale(1 1) rotate(0) translate(4 280)">
<title>dependencies</title>
<polygon fill="white" stroke="transparent" points="-4,4 -4,-280 1301,-280 1301,4 -4,4"/>
<text text-anchor="start" x="627.51" y="-42.4" font-family="Times-12" font-weight="bold" font-size="14.00">Legend</text>
<polygon fill="#ffffb3" stroke="transparent" points="414.5,-10 414.5,-30 434.5,-30 434.5,-10 414.5,-10"/>
<text text-anchor="start" x="438.13" y="-15.4" font-family="Times-12" font-size="14.00"> &#160;Declarations</text>
<polygon fill="#8dd3c7" stroke="transparent" points="527.5,-10 527.5,-30 547.5,-30 547.5,-10 527.5,-10"/>
<text text-anchor="start" x="551.23" y="-15.4" font-family="Times-12" font-size="14.00"> &#160;Module</text>
<polygon fill="#80b1d3" stroke="transparent" points="613.5,-10 613.5,-30 633.5,-30 633.5,-10 613.5,-10"/>
<text text-anchor="start" x="637.28" y="-15.4" font-family="Times-12" font-size="14.00"> &#160;Bootstrap</text>
<polygon fill="#fdb462" stroke="transparent" points="710.5,-10 710.5,-30 730.5,-30 730.5,-10 710.5,-10"/>
<text text-anchor="start" x="734.17" y="-15.4" font-family="Times-12" font-size="14.00"> &#160;Providers</text>
<polygon fill="#fb8072" stroke="transparent" points="806.5,-10 806.5,-30 826.5,-30 826.5,-10 806.5,-10"/>
<text text-anchor="start" x="830.23" y="-15.4" font-family="Times-12" font-size="14.00"> &#160;Exports</text>
<g id="clust1" class="cluster">
<title>cluster_OverlaysModule</title>
<polygon fill="none" stroke="black" stroke-dasharray="1,5" points="8,-70 8,-268 1289,-268 1289,-70 8,-70"/>
</g>
<g id="clust8" class="cluster">
<title>cluster_OverlaysModule_imports</title>
<polygon fill="none" stroke="black" points="1045,-78 1045,-130 1281,-130 1281,-78 1045,-78"/>
</g>
<g id="clust2" class="cluster">
<title>cluster_OverlaysModule_declarations</title>
<polygon fill="none" stroke="black" points="16,-78 16,-130 1037,-130 1037,-78 16,-78"/>
</g>
<g id="clust9" class="cluster">
<title>cluster_OverlaysModule_exports</title>
<polygon fill="none" stroke="black" points="214,-208 214,-260 1251,-260 1251,-208 214,-208"/>
</g>
<!-- ConfirmationDialogComponent -->
<g id="node1" class="node">
<title>ConfirmationDialogComponent</title>
<polygon fill="#ffffb3" stroke="black" points="1029.37,-122 834.63,-122 834.63,-86 1029.37,-86 1029.37,-122"/>
<text text-anchor="middle" x="932" y="-99.8" font-family="Times,serif" font-size="14.00">ConfirmationDialogComponent</text>
</g>
<!-- OverlaysModule -->
<g id="node6" class="node">
<title>OverlaysModule</title>
<polygon fill="#8dd3c7" stroke="black" points="774.08,-187 771.08,-191 750.08,-191 747.08,-187 663.92,-187 663.92,-151 774.08,-151 774.08,-187"/>
<text text-anchor="middle" x="719" y="-164.8" font-family="Times,serif" font-size="14.00">OverlaysModule</text>
</g>
<!-- ConfirmationDialogComponent&#45;&gt;OverlaysModule -->
<g id="edge1" class="edge">
<title>ConfirmationDialogComponent&#45;&gt;OverlaysModule</title>
<path fill="none" stroke="black" d="M898.77,-122.24C898.77,-137.57 898.77,-157 898.77,-157 898.77,-157 784.4,-157 784.4,-157"/>
<polygon fill="black" stroke="black" points="784.4,-153.5 774.4,-157 784.4,-160.5 784.4,-153.5"/>
</g>
<!-- DraftPreviewDialogComponent -->
<g id="node2" class="node">
<title>DraftPreviewDialogComponent</title>
<polygon fill="#ffffb3" stroke="black" points="816.34,-122 621.66,-122 621.66,-86 816.34,-86 816.34,-122"/>
<text text-anchor="middle" x="719" y="-99.8" font-family="Times,serif" font-size="14.00">DraftPreviewDialogComponent</text>
</g>
<!-- DraftPreviewDialogComponent&#45;&gt;OverlaysModule -->
<g id="edge2" class="edge">
<title>DraftPreviewDialogComponent&#45;&gt;OverlaysModule</title>
<path fill="none" stroke="black" d="M719,-122.11C719,-122.11 719,-140.99 719,-140.99"/>
<polygon fill="black" stroke="black" points="715.5,-140.99 719,-150.99 722.5,-140.99 715.5,-140.99"/>
</g>
<!-- EditProfileDialogComponent -->
<g id="node3" class="node">
<title>EditProfileDialogComponent</title>
<polygon fill="#ffffb3" stroke="black" points="603.37,-122 422.63,-122 422.63,-86 603.37,-86 603.37,-122"/>
<text text-anchor="middle" x="513" y="-99.8" font-family="Times,serif" font-size="14.00">EditProfileDialogComponent</text>
</g>
<!-- EditProfileDialogComponent&#45;&gt;OverlaysModule -->
<g id="edge3" class="edge">
<title>EditProfileDialogComponent&#45;&gt;OverlaysModule</title>
<path fill="none" stroke="black" d="M482.86,-122.24C482.86,-137.57 482.86,-157 482.86,-157 482.86,-157 653.93,-157 653.93,-157"/>
<polygon fill="black" stroke="black" points="653.93,-160.5 663.93,-157 653.93,-153.5 653.93,-160.5"/>
</g>
<!-- PushDeniedDialogComponent -->
<g id="node4" class="node">
<title>PushDeniedDialogComponent</title>
<polygon fill="#ffffb3" stroke="black" points="404.59,-122 217.41,-122 217.41,-86 404.59,-86 404.59,-122"/>
<text text-anchor="middle" x="311" y="-99.8" font-family="Times,serif" font-size="14.00">PushDeniedDialogComponent</text>
</g>
<!-- PushDeniedDialogComponent&#45;&gt;OverlaysModule -->
<g id="edge4" class="edge">
<title>PushDeniedDialogComponent&#45;&gt;OverlaysModule</title>
<path fill="none" stroke="black" d="M340.82,-122.02C340.82,-139.37 340.82,-163 340.82,-163 340.82,-163 653.6,-163 653.6,-163"/>
<polygon fill="black" stroke="black" points="653.6,-166.5 663.6,-163 653.6,-159.5 653.6,-166.5"/>
</g>
<!-- QuillHelpDialogComponent -->
<g id="node5" class="node">
<title>QuillHelpDialogComponent</title>
<polygon fill="#ffffb3" stroke="black" points="199.93,-122 24.07,-122 24.07,-86 199.93,-86 199.93,-122"/>
<text text-anchor="middle" x="112" y="-99.8" font-family="Times,serif" font-size="14.00">QuillHelpDialogComponent</text>
</g>
<!-- QuillHelpDialogComponent&#45;&gt;OverlaysModule -->
<g id="edge5" class="edge">
<title>QuillHelpDialogComponent&#45;&gt;OverlaysModule</title>
<path fill="none" stroke="black" d="M112,-122.11C112,-141.34 112,-169 112,-169 112,-169 653.79,-169 653.79,-169"/>
<polygon fill="black" stroke="black" points="653.79,-172.5 663.79,-169 653.79,-165.5 653.79,-172.5"/>
</g>
<!-- ConfirmationDialogComponent  -->
<g id="node9" class="node">
<title>ConfirmationDialogComponent </title>
<polygon fill="#fb8072" stroke="black" points="1243.37,-252 1044.63,-252 1044.63,-216 1243.37,-216 1243.37,-252"/>
<text text-anchor="middle" x="1144" y="-229.8" font-family="Times,serif" font-size="14.00">ConfirmationDialogComponent </text>
</g>
<!-- OverlaysModule&#45;&gt;ConfirmationDialogComponent  -->
<g id="edge8" class="edge">
<title>OverlaysModule&#45;&gt;ConfirmationDialogComponent </title>
<path fill="none" stroke="black" stroke-dasharray="5,2" d="M774.23,-175C868.16,-175 1048.96,-175 1048.96,-175 1048.96,-175 1048.96,-205.98 1048.96,-205.98"/>
<polygon fill="black" stroke="black" points="1045.46,-205.98 1048.96,-215.98 1052.46,-205.98 1045.46,-205.98"/>
</g>
<!-- DraftPreviewDialogComponent  -->
<g id="node10" class="node">
<title>DraftPreviewDialogComponent </title>
<polygon fill="#fb8072" stroke="black" points="1027.34,-252 828.66,-252 828.66,-216 1027.34,-216 1027.34,-252"/>
<text text-anchor="middle" x="928" y="-229.8" font-family="Times,serif" font-size="14.00">DraftPreviewDialogComponent </text>
</g>
<!-- OverlaysModule&#45;&gt;DraftPreviewDialogComponent  -->
<g id="edge9" class="edge">
<title>OverlaysModule&#45;&gt;DraftPreviewDialogComponent </title>
<path fill="none" stroke="black" stroke-dasharray="5,2" d="M774.06,-181C846.01,-181 962.97,-181 962.97,-181 962.97,-181 962.97,-205.76 962.97,-205.76"/>
<polygon fill="black" stroke="black" points="959.47,-205.76 962.97,-215.76 966.47,-205.76 959.47,-205.76"/>
</g>
<!-- EditProfileDialogComponent  -->
<g id="node11" class="node">
<title>EditProfileDialogComponent </title>
<polygon fill="#fb8072" stroke="black" points="811.37,-252 626.63,-252 626.63,-216 811.37,-216 811.37,-252"/>
<text text-anchor="middle" x="719" y="-229.8" font-family="Times,serif" font-size="14.00">EditProfileDialogComponent </text>
</g>
<!-- OverlaysModule&#45;&gt;EditProfileDialogComponent  -->
<g id="edge10" class="edge">
<title>OverlaysModule&#45;&gt;EditProfileDialogComponent </title>
<path fill="none" stroke="black" stroke-dasharray="5,2" d="M719,-187.11C719,-187.11 719,-205.99 719,-205.99"/>
<polygon fill="black" stroke="black" points="715.5,-205.99 719,-215.99 722.5,-205.99 715.5,-205.99"/>
</g>
<!-- PushDeniedDialogComponent  -->
<g id="node12" class="node">
<title>PushDeniedDialogComponent </title>
<polygon fill="#fb8072" stroke="black" points="609.09,-252 418.91,-252 418.91,-216 609.09,-216 609.09,-252"/>
<text text-anchor="middle" x="514" y="-229.8" font-family="Times,serif" font-size="14.00">PushDeniedDialogComponent </text>
</g>
<!-- OverlaysModule&#45;&gt;PushDeniedDialogComponent  -->
<g id="edge11" class="edge">
<title>OverlaysModule&#45;&gt;PushDeniedDialogComponent </title>
<path fill="none" stroke="black" stroke-dasharray="5,2" d="M663.84,-181C612.27,-181 543.14,-181 543.14,-181 543.14,-181 543.14,-205.76 543.14,-205.76"/>
<polygon fill="black" stroke="black" points="539.64,-205.76 543.14,-215.76 546.64,-205.76 539.64,-205.76"/>
</g>
<!-- QuillHelpDialogComponent  -->
<g id="node13" class="node">
<title>QuillHelpDialogComponent </title>
<polygon fill="#fb8072" stroke="black" points="400.43,-252 221.57,-252 221.57,-216 400.43,-216 400.43,-252"/>
<text text-anchor="middle" x="311" y="-229.8" font-family="Times,serif" font-size="14.00">QuillHelpDialogComponent </text>
</g>
<!-- OverlaysModule&#45;&gt;QuillHelpDialogComponent  -->
<g id="edge12" class="edge">
<title>OverlaysModule&#45;&gt;QuillHelpDialogComponent </title>
<path fill="none" stroke="black" stroke-dasharray="5,2" d="M663.55,-175C545.74,-175 281.18,-175 281.18,-175 281.18,-175 281.18,-205.98 281.18,-205.98"/>
<polygon fill="black" stroke="black" points="277.68,-205.98 281.18,-215.98 284.68,-205.98 277.68,-205.98"/>
</g>
<!-- LogInModule -->
<g id="node7" class="node">
<title>LogInModule</title>
<polygon fill="#8dd3c7" stroke="black" points="1272.76,-122 1269.76,-126 1248.76,-126 1245.76,-122 1179.24,-122 1179.24,-86 1272.76,-86 1272.76,-122"/>
<text text-anchor="middle" x="1226" y="-99.8" font-family="Times,serif" font-size="14.00">LogInModule</text>
</g>
<!-- LogInModule&#45;&gt;OverlaysModule -->
<g id="edge6" class="edge">
<title>LogInModule&#45;&gt;OverlaysModule</title>
<path fill="none" stroke="black" d="M1211.15,-122.11C1211.15,-141.34 1211.15,-169 1211.15,-169 1211.15,-169 784.5,-169 784.5,-169"/>
<polygon fill="black" stroke="black" points="784.5,-165.5 774.5,-169 784.5,-172.5 784.5,-165.5"/>
</g>
<!-- SnippetsModule -->
<g id="node8" class="node">
<title>SnippetsModule</title>
<polygon fill="#8dd3c7" stroke="black" points="1160.77,-122 1157.77,-126 1136.77,-126 1133.77,-122 1053.23,-122 1053.23,-86 1160.77,-86 1160.77,-122"/>
<text text-anchor="middle" x="1107" y="-99.8" font-family="Times,serif" font-size="14.00">SnippetsModule</text>
</g>
<!-- SnippetsModule&#45;&gt;OverlaysModule -->
<g id="edge7" class="edge">
<title>SnippetsModule&#45;&gt;OverlaysModule</title>
<path fill="none" stroke="black" d="M1107,-122.02C1107,-139.37 1107,-163 1107,-163 1107,-163 784.18,-163 784.18,-163"/>
<polygon fill="black" stroke="black" points="784.18,-159.5 774.18,-163 784.18,-166.5 784.18,-159.5"/>
</g>
</g>
</svg>
