<?xml version="1.0" encoding="UTF-8" standalone="no"?>
<!DOCTYPE svg PUBLIC "-//W3C//DTD SVG 1.1//EN"
 "http://www.w3.org/Graphics/SVG/1.1/DTD/svg11.dtd">
<!-- Generated by graphviz version 2.47.0 (20210316.0004)
 -->
<!-- Title: dependencies Pages: 1 -->
<svg width="663pt" height="284pt"
 viewBox="0.00 0.00 663.00 284.00" xmlns="http://www.w3.org/2000/svg" xmlns:xlink="http://www.w3.org/1999/xlink">
<g id="graph0" class="graph" transform="scale(1 1) rotate(0) translate(4 280)">
<title>dependencies</title>
<polygon fill="white" stroke="transparent" points="-4,4 -4,-280 659,-280 659,4 -4,4"/>
<text text-anchor="start" x="306.51" y="-42.4" font-family="Times-12" font-weight="bold" font-size="14.00">Legend</text>
<polygon fill="#ffffb3" stroke="transparent" points="93.5,-10 93.5,-30 113.5,-30 113.5,-10 93.5,-10"/>
<text text-anchor="start" x="117.13" y="-15.4" font-family="Times-12" font-size="14.00"> &#160;Declarations</text>
<polygon fill="#8dd3c7" stroke="transparent" points="206.5,-10 206.5,-30 226.5,-30 226.5,-10 206.5,-10"/>
<text text-anchor="start" x="230.23" y="-15.4" font-family="Times-12" font-size="14.00"> &#160;Module</text>
<polygon fill="#80b1d3" stroke="transparent" points="292.5,-10 292.5,-30 312.5,-30 312.5,-10 292.5,-10"/>
<text text-anchor="start" x="316.28" y="-15.4" font-family="Times-12" font-size="14.00"> &#160;Bootstrap</text>
<polygon fill="#fdb462" stroke="transparent" points="389.5,-10 389.5,-30 409.5,-30 409.5,-10 389.5,-10"/>
<text text-anchor="start" x="413.17" y="-15.4" font-family="Times-12" font-size="14.00"> &#160;Providers</text>
<polygon fill="#fb8072" stroke="transparent" points="485.5,-10 485.5,-30 505.5,-30 505.5,-10 485.5,-10"/>
<text text-anchor="start" x="509.23" y="-15.4" font-family="Times-12" font-size="14.00"> &#160;Exports</text>
<g id="clust1" class="cluster">
<title>cluster_DraftLayoutModule</title>
<polygon fill="none" stroke="black" stroke-dasharray="1,5" points="8,-70 8,-268 647,-268 647,-70 8,-70"/>
</g>
<g id="clust2" class="cluster">
<title>cluster_DraftLayoutModule_declarations</title>
<polygon fill="none" stroke="black" points="290,-78 290,-130 639,-130 639,-78 290,-78"/>
</g>
<g id="clust5" class="cluster">
<title>cluster_DraftLayoutModule_imports</title>
<polygon fill="none" stroke="black" points="16,-78 16,-130 282,-130 282,-78 16,-78"/>
</g>
<g id="clust6" class="cluster">
<title>cluster_DraftLayoutModule_exports</title>
<polygon fill="none" stroke="black" points="116,-208 116,-260 472,-260 472,-208 116,-208"/>
</g>
<!-- AdminDraftCardComponent -->
<g id="node1" class="node">
<title>AdminDraftCardComponent</title>
<polygon fill="#ffffb3" stroke="black" points="631.47,-122 454.53,-122 454.53,-86 631.47,-86 631.47,-122"/>
<text text-anchor="middle" x="543" y="-99.8" font-family="Times,serif" font-size="14.00">AdminDraftCardComponent</text>
</g>
<!-- DraftLayoutModule -->
<g id="node3" class="node">
<title>DraftLayoutModule</title>
<polygon fill="#8dd3c7" stroke="black" points="348.24,-187 345.24,-191 324.24,-191 321.24,-187 219.76,-187 219.76,-151 348.24,-151 348.24,-187"/>
<text text-anchor="middle" x="284" y="-164.8" font-family="Times,serif" font-size="14.00">DraftLayoutModule</text>
</g>
<!-- AdminDraftCardComponent&#45;&gt;DraftLayoutModule -->
<g id="edge1" class="edge">
<title>AdminDraftCardComponent&#45;&gt;DraftLayoutModule</title>
<path fill="none" stroke="black" d="M459.38,-122.11C459.38,-141.34 459.38,-169 459.38,-169 459.38,-169 358.31,-169 358.31,-169"/>
<polygon fill="black" stroke="black" points="358.31,-165.5 348.31,-169 358.31,-172.5 358.31,-165.5"/>
</g>
<!-- DraftCardComponent -->
<g id="node2" class="node">
<title>DraftCardComponent</title>
<polygon fill="#ffffb3" stroke="black" points="436.08,-122 297.92,-122 297.92,-86 436.08,-86 436.08,-122"/>
<text text-anchor="middle" x="367" y="-99.8" font-family="Times,serif" font-size="14.00">DraftCardComponent</text>
</g>
<!-- DraftCardComponent&#45;&gt;DraftLayoutModule -->
<g id="edge2" class="edge">
<title>DraftCardComponent&#45;&gt;DraftLayoutModule</title>
<path fill="none" stroke="black" d="M323.17,-122.11C323.17,-122.11 323.17,-140.99 323.17,-140.99"/>
<polygon fill="black" stroke="black" points="319.67,-140.99 323.17,-150.99 326.67,-140.99 319.67,-140.99"/>
</g>
<!-- AdminDraftCardComponent  -->
<g id="node6" class="node">
<title>AdminDraftCardComponent </title>
<polygon fill="#fb8072" stroke="black" points="464.47,-252 283.53,-252 283.53,-216 464.47,-216 464.47,-252"/>
<text text-anchor="middle" x="374" y="-229.8" font-family="Times,serif" font-size="14.00">AdminDraftCardComponent </text>
</g>
<!-- DraftLayoutModule&#45;&gt;AdminDraftCardComponent  -->
<g id="edge5" class="edge">
<title>DraftLayoutModule&#45;&gt;AdminDraftCardComponent </title>
<path fill="none" stroke="black" stroke-dasharray="5,2" d="M316.07,-187.11C316.07,-187.11 316.07,-205.99 316.07,-205.99"/>
<polygon fill="black" stroke="black" points="312.57,-205.99 316.07,-215.99 319.57,-205.99 312.57,-205.99"/>
</g>
<!-- DraftCardComponent  -->
<g id="node7" class="node">
<title>DraftCardComponent </title>
<polygon fill="#fb8072" stroke="black" points="265.58,-252 124.42,-252 124.42,-216 265.58,-216 265.58,-252"/>
<text text-anchor="middle" x="195" y="-229.8" font-family="Times,serif" font-size="14.00">DraftCardComponent </text>
</g>
<!-- DraftLayoutModule&#45;&gt;DraftCardComponent  -->
<g id="edge6" class="edge">
<title>DraftLayoutModule&#45;&gt;DraftCardComponent </title>
<path fill="none" stroke="black" stroke-dasharray="5,2" d="M242.71,-187.11C242.71,-187.11 242.71,-205.99 242.71,-205.99"/>
<polygon fill="black" stroke="black" points="239.21,-205.99 242.71,-215.99 246.21,-205.99 239.21,-205.99"/>
</g>
<!-- DraftsAccessModule -->
<g id="node4" class="node">
<title>DraftsAccessModule</title>
<polygon fill="#8dd3c7" stroke="black" points="274.17,-122 271.17,-126 250.17,-126 247.17,-122 139.83,-122 139.83,-86 274.17,-86 274.17,-122"/>
<text text-anchor="middle" x="207" y="-99.8" font-family="Times,serif" font-size="14.00">DraftsAccessModule</text>
</g>
<!-- DraftsAccessModule&#45;&gt;DraftLayoutModule -->
<g id="edge3" class="edge">
<title>DraftsAccessModule&#45;&gt;DraftLayoutModule</title>
<path fill="none" stroke="black" d="M246.86,-122.11C246.86,-122.11 246.86,-140.99 246.86,-140.99"/>
<polygon fill="black" stroke="black" points="243.36,-140.99 246.86,-150.99 250.36,-140.99 243.36,-140.99"/>
</g>
<!-- SharedModule -->
<g id="node5" class="node">
<title>SharedModule</title>
<polygon fill="#8dd3c7" stroke="black" points="122.42,-122 119.42,-126 98.42,-126 95.42,-122 23.58,-122 23.58,-86 122.42,-86 122.42,-122"/>
<text text-anchor="middle" x="73" y="-99.8" font-family="Times,serif" font-size="14.00">SharedModule</text>
</g>
<!-- SharedModule&#45;&gt;DraftLayoutModule -->
<g id="edge4" class="edge">
<title>SharedModule&#45;&gt;DraftLayoutModule</title>
<path fill="none" stroke="black" d="M73,-122.11C73,-141.34 73,-169 73,-169 73,-169 209.55,-169 209.55,-169"/>
<polygon fill="black" stroke="black" points="209.55,-172.5 219.55,-169 209.55,-165.5 209.55,-172.5"/>
</g>
</g>
</svg>
