<?xml version="1.0" encoding="UTF-8" standalone="no"?>
<!DOCTYPE svg PUBLIC "-//W3C//DTD SVG 1.1//EN"
 "http://www.w3.org/Graphics/SVG/1.1/DTD/svg11.dtd">
<!-- Generated by graphviz version 2.47.0 (20210316.0004)
 -->
<!-- Title: dependencies Pages: 1 -->
<svg width="1086pt" height="211pt"
 viewBox="0.00 0.00 1086.00 211.00" xmlns="http://www.w3.org/2000/svg" xmlns:xlink="http://www.w3.org/1999/xlink">
<g id="graph0" class="graph" transform="scale(1 1) rotate(0) translate(4 207)">
<title>dependencies</title>
<polygon fill="white" stroke="transparent" points="-4,4 -4,-207 1082,-207 1082,4 -4,4"/>
<text text-anchor="start" x="518.01" y="-42.4" font-family="Times-12" font-weight="bold" font-size="14.00">Legend</text>
<polygon fill="#ffffb3" stroke="transparent" points="305,-10 305,-30 325,-30 325,-10 305,-10"/>
<text text-anchor="start" x="328.63" y="-15.4" font-family="Times-12" font-size="14.00"> &#160;Declarations</text>
<polygon fill="#8dd3c7" stroke="transparent" points="418,-10 418,-30 438,-30 438,-10 418,-10"/>
<text text-anchor="start" x="441.73" y="-15.4" font-family="Times-12" font-size="14.00"> &#160;Module</text>
<polygon fill="#80b1d3" stroke="transparent" points="504,-10 504,-30 524,-30 524,-10 504,-10"/>
<text text-anchor="start" x="527.78" y="-15.4" font-family="Times-12" font-size="14.00"> &#160;Bootstrap</text>
<polygon fill="#fdb462" stroke="transparent" points="601,-10 601,-30 621,-30 621,-10 601,-10"/>
<text text-anchor="start" x="624.67" y="-15.4" font-family="Times-12" font-size="14.00"> &#160;Providers</text>
<polygon fill="#fb8072" stroke="transparent" points="697,-10 697,-30 717,-30 717,-10 697,-10"/>
<text text-anchor="start" x="720.73" y="-15.4" font-family="Times-12" font-size="14.00"> &#160;Exports</text>
<g id="clust1" class="cluster">
<title>cluster_HomeModule</title>
<polygon fill="none" stroke="black" stroke-dasharray="1,5" points="8,-70 8,-195 1070,-195 1070,-70 8,-70"/>
</g>
<g id="clust2" class="cluster">
<title>cluster_HomeModule_declarations</title>
<polygon fill="none" stroke="black" points="422,-78 422,-130 1062,-130 1062,-78 422,-78"/>
</g>
<g id="clust7" class="cluster">
<title>cluster_HomeModule_imports</title>
<polygon fill="none" stroke="black" points="16,-78 16,-130 414,-130 414,-78 16,-78"/>
</g>
<!-- HomeComponent -->
<g id="node1" class="node">
<title>HomeComponent</title>
<polygon fill="#ffffb3" stroke="black" points="1053.55,-122 938.45,-122 938.45,-86 1053.55,-86 1053.55,-122"/>
<text text-anchor="middle" x="996" y="-99.8" font-family="Times,serif" font-size="14.00">HomeComponent</text>
</g>
<!-- HomeModule -->
<g id="node5" class="node">
<title>HomeModule</title>
<polygon fill="#8dd3c7" stroke="black" points="544.76,-187 541.76,-191 520.76,-191 517.76,-187 451.24,-187 451.24,-151 544.76,-151 544.76,-187"/>
<text text-anchor="middle" x="498" y="-164.8" font-family="Times,serif" font-size="14.00">HomeModule</text>
</g>
<!-- HomeComponent&#45;&gt;HomeModule -->
<g id="edge1" class="edge">
<title>HomeComponent&#45;&gt;HomeModule</title>
<path fill="none" stroke="black" d="M996,-122.29C996,-144.21 996,-178 996,-178 996,-178 554.85,-178 554.85,-178"/>
<polygon fill="black" stroke="black" points="554.85,-174.5 544.85,-178 554.85,-181.5 554.85,-174.5"/>
</g>
<!-- HomeContentComponent -->
<g id="node2" class="node">
<title>HomeContentComponent</title>
<polygon fill="#ffffb3" stroke="black" points="919.88,-122 760.12,-122 760.12,-86 919.88,-86 919.88,-122"/>
<text text-anchor="middle" x="840" y="-99.8" font-family="Times,serif" font-size="14.00">HomeContentComponent</text>
</g>
<!-- HomeContentComponent&#45;&gt;HomeModule -->
<g id="edge2" class="edge">
<title>HomeContentComponent&#45;&gt;HomeModule</title>
<path fill="none" stroke="black" d="M840,-122.11C840,-141.34 840,-169 840,-169 840,-169 554.84,-169 554.84,-169"/>
<polygon fill="black" stroke="black" points="554.84,-165.5 544.84,-169 554.84,-172.5 554.84,-165.5"/>
</g>
<!-- HomeSidebarComponent -->
<g id="node3" class="node">
<title>HomeSidebarComponent</title>
<polygon fill="#ffffb3" stroke="black" points="742.31,-122 583.69,-122 583.69,-86 742.31,-86 742.31,-122"/>
<text text-anchor="middle" x="663" y="-99.8" font-family="Times,serif" font-size="14.00">HomeSidebarComponent</text>
</g>
<!-- HomeSidebarComponent&#45;&gt;HomeModule -->
<g id="edge3" class="edge">
<title>HomeSidebarComponent&#45;&gt;HomeModule</title>
<path fill="none" stroke="black" d="M663,-122.03C663,-138.4 663,-160 663,-160 663,-160 554.84,-160 554.84,-160"/>
<polygon fill="black" stroke="black" points="554.84,-156.5 544.84,-160 554.84,-163.5 554.84,-156.5"/>
</g>
<!-- MainPostComponent -->
<g id="node4" class="node">
<title>MainPostComponent</title>
<polygon fill="#ffffb3" stroke="black" points="565.5,-122 430.5,-122 430.5,-86 565.5,-86 565.5,-122"/>
<text text-anchor="middle" x="498" y="-99.8" font-family="Times,serif" font-size="14.00">MainPostComponent</text>
</g>
<!-- MainPostComponent&#45;&gt;HomeModule -->
<g id="edge4" class="edge">
<title>MainPostComponent&#45;&gt;HomeModule</title>
<path fill="none" stroke="black" d="M498,-122.11C498,-122.11 498,-140.99 498,-140.99"/>
<polygon fill="black" stroke="black" points="494.5,-140.99 498,-150.99 501.5,-140.99 494.5,-140.99"/>
</g>
<!-- HomeRoutingModule -->
<g id="node6" class="node">
<title>HomeRoutingModule</title>
<polygon fill="#8dd3c7" stroke="black" points="406.38,-122 403.38,-126 382.38,-126 379.38,-122 267.62,-122 267.62,-86 406.38,-86 406.38,-122"/>
<text text-anchor="middle" x="337" y="-99.8" font-family="Times,serif" font-size="14.00">HomeRoutingModule</text>
</g>
<!-- HomeRoutingModule&#45;&gt;HomeModule -->
<g id="edge5" class="edge">
<title>HomeRoutingModule&#45;&gt;HomeModule</title>
<path fill="none" stroke="black" d="M337,-122.03C337,-138.4 337,-160 337,-160 337,-160 441,-160 441,-160"/>
<polygon fill="black" stroke="black" points="441,-163.5 451,-160 441,-156.5 441,-163.5"/>
</g>
<!-- LayoutModule -->
<g id="node7" class="node">
<title>LayoutModule</title>
<polygon fill="#8dd3c7" stroke="black" points="249.71,-122 246.71,-126 225.71,-126 222.71,-122 150.29,-122 150.29,-86 249.71,-86 249.71,-122"/>
<text text-anchor="middle" x="200" y="-99.8" font-family="Times,serif" font-size="14.00">LayoutModule</text>
</g>
<!-- LayoutModule&#45;&gt;HomeModule -->
<g id="edge6" class="edge">
<title>LayoutModule&#45;&gt;HomeModule</title>
<path fill="none" stroke="black" d="M200,-122.11C200,-141.34 200,-169 200,-169 200,-169 441.11,-169 441.11,-169"/>
<polygon fill="black" stroke="black" points="441.11,-172.5 451.11,-169 441.11,-165.5 441.11,-172.5"/>
</g>
<!-- SkeletonModule -->
<g id="node8" class="node">
<title>SkeletonModule</title>
<polygon fill="#8dd3c7" stroke="black" points="132.04,-122 129.04,-126 108.04,-126 105.04,-122 23.96,-122 23.96,-86 132.04,-86 132.04,-122"/>
<text text-anchor="middle" x="78" y="-99.8" font-family="Times,serif" font-size="14.00">SkeletonModule</text>
</g>
<!-- SkeletonModule&#45;&gt;HomeModule -->
<g id="edge7" class="edge">
<title>SkeletonModule&#45;&gt;HomeModule</title>
<path fill="none" stroke="black" d="M78,-122.29C78,-144.21 78,-178 78,-178 78,-178 441.04,-178 441.04,-178"/>
<polygon fill="black" stroke="black" points="441.04,-181.5 451.04,-178 441.04,-174.5 441.04,-181.5"/>
</g>
</g>
</svg>
