<?xml version="1.0" encoding="UTF-8" standalone="no"?>
<!DOCTYPE svg PUBLIC "-//W3C//DTD SVG 1.1//EN"
 "http://www.w3.org/Graphics/SVG/1.1/DTD/svg11.dtd">
<!-- Generated by graphviz version 2.47.0 (20210316.0004)
 -->
<!-- Title: dependencies Pages: 1 -->
<svg width="504pt" height="284pt"
 viewBox="0.00 0.00 504.00 284.00" xmlns="http://www.w3.org/2000/svg" xmlns:xlink="http://www.w3.org/1999/xlink">
<g id="graph0" class="graph" transform="scale(1 1) rotate(0) translate(4 280)">
<title>dependencies</title>
<polygon fill="white" stroke="transparent" points="-4,4 -4,-280 500,-280 500,4 -4,4"/>
<text text-anchor="start" x="227.01" y="-42.4" font-family="Times-12" font-weight="bold" font-size="14.00">Legend</text>
<polygon fill="#ffffb3" stroke="transparent" points="14,-10 14,-30 34,-30 34,-10 14,-10"/>
<text text-anchor="start" x="37.63" y="-15.4" font-family="Times-12" font-size="14.00"> &#160;Declarations</text>
<polygon fill="#8dd3c7" stroke="transparent" points="127,-10 127,-30 147,-30 147,-10 127,-10"/>
<text text-anchor="start" x="150.73" y="-15.4" font-family="Times-12" font-size="14.00"> &#160;Module</text>
<polygon fill="#80b1d3" stroke="transparent" points="213,-10 213,-30 233,-30 233,-10 213,-10"/>
<text text-anchor="start" x="236.78" y="-15.4" font-family="Times-12" font-size="14.00"> &#160;Bootstrap</text>
<polygon fill="#fdb462" stroke="transparent" points="310,-10 310,-30 330,-30 330,-10 310,-10"/>
<text text-anchor="start" x="333.67" y="-15.4" font-family="Times-12" font-size="14.00"> &#160;Providers</text>
<polygon fill="#fb8072" stroke="transparent" points="406,-10 406,-30 426,-30 426,-10 406,-10"/>
<text text-anchor="start" x="429.73" y="-15.4" font-family="Times-12" font-size="14.00"> &#160;Exports</text>
<g id="clust1" class="cluster">
<title>cluster_HeaderModule</title>
<polygon fill="none" stroke="black" stroke-dasharray="1,5" points="21,-70 21,-268 475,-268 475,-70 21,-70"/>
</g>
<g id="clust7" class="cluster">
<title>cluster_HeaderModule_exports</title>
<polygon fill="none" stroke="black" points="176,-208 176,-260 318,-260 318,-208 176,-208"/>
</g>
<g id="clust2" class="cluster">
<title>cluster_HeaderModule_declarations</title>
<polygon fill="none" stroke="black" points="29,-78 29,-130 467,-130 467,-78 29,-78"/>
</g>
<!-- HeaderComponent -->
<g id="node1" class="node">
<title>HeaderComponent</title>
<polygon fill="#ffffb3" stroke="black" points="458.74,-122 337.26,-122 337.26,-86 458.74,-86 458.74,-122"/>
<text text-anchor="middle" x="398" y="-99.8" font-family="Times,serif" font-size="14.00">HeaderComponent</text>
</g>
<!-- HeaderModule -->
<g id="node4" class="node">
<title>HeaderModule</title>
<polygon fill="#8dd3c7" stroke="black" points="296.96,-187 293.96,-191 272.96,-191 269.96,-187 197.04,-187 197.04,-151 296.96,-151 296.96,-187"/>
<text text-anchor="middle" x="247" y="-164.8" font-family="Times,serif" font-size="14.00">HeaderModule</text>
</g>
<!-- HeaderComponent&#45;&gt;HeaderModule -->
<g id="edge1" class="edge">
<title>HeaderComponent&#45;&gt;HeaderModule</title>
<path fill="none" stroke="black" d="M398,-122.11C398,-141.34 398,-169 398,-169 398,-169 307.28,-169 307.28,-169"/>
<polygon fill="black" stroke="black" points="307.28,-165.5 297.28,-169 307.28,-172.5 307.28,-165.5"/>
</g>
<!-- NavigationComponent -->
<g id="node2" class="node">
<title>NavigationComponent</title>
<polygon fill="#ffffb3" stroke="black" points="318.54,-122 175.46,-122 175.46,-86 318.54,-86 318.54,-122"/>
<text text-anchor="middle" x="247" y="-99.8" font-family="Times,serif" font-size="14.00">NavigationComponent</text>
</g>
<!-- NavigationComponent&#45;&gt;HeaderModule -->
<g id="edge2" class="edge">
<title>NavigationComponent&#45;&gt;HeaderModule</title>
<path fill="none" stroke="black" d="M247,-122.11C247,-122.11 247,-140.99 247,-140.99"/>
<polygon fill="black" stroke="black" points="243.5,-140.99 247,-150.99 250.5,-140.99 243.5,-140.99"/>
</g>
<!-- SloganComponent -->
<g id="node3" class="node">
<title>SloganComponent</title>
<polygon fill="#ffffb3" stroke="black" points="157.22,-122 36.78,-122 36.78,-86 157.22,-86 157.22,-122"/>
<text text-anchor="middle" x="97" y="-99.8" font-family="Times,serif" font-size="14.00">SloganComponent</text>
</g>
<!-- SloganComponent&#45;&gt;HeaderModule -->
<g id="edge3" class="edge">
<title>SloganComponent&#45;&gt;HeaderModule</title>
<path fill="none" stroke="black" d="M97,-122.11C97,-141.34 97,-169 97,-169 97,-169 186.63,-169 186.63,-169"/>
<polygon fill="black" stroke="black" points="186.63,-172.5 196.63,-169 186.63,-165.5 186.63,-172.5"/>
</g>
<!-- HeaderComponent  -->
<g id="node5" class="node">
<title>HeaderComponent </title>
<polygon fill="#fb8072" stroke="black" points="309.74,-252 184.26,-252 184.26,-216 309.74,-216 309.74,-252"/>
<text text-anchor="middle" x="247" y="-229.8" font-family="Times,serif" font-size="14.00">HeaderComponent </text>
</g>
<!-- HeaderModule&#45;&gt;HeaderComponent  -->
<g id="edge4" class="edge">
<title>HeaderModule&#45;&gt;HeaderComponent </title>
<path fill="none" stroke="black" stroke-dasharray="5,2" d="M247,-187.11C247,-187.11 247,-205.99 247,-205.99"/>
<polygon fill="black" stroke="black" points="243.5,-205.99 247,-215.99 250.5,-205.99 243.5,-205.99"/>
</g>
</g>
</svg>
