<?xml version="1.0" encoding="UTF-8" standalone="no"?>
<!DOCTYPE svg PUBLIC "-//W3C//DTD SVG 1.1//EN"
 "http://www.w3.org/Graphics/SVG/1.1/DTD/svg11.dtd">
<!-- Generated by graphviz version 2.47.0 (20210316.0004)
 -->
<!-- Title: dependencies Pages: 1 -->
<svg width="574pt" height="284pt"
 viewBox="0.00 0.00 574.00 284.00" xmlns="http://www.w3.org/2000/svg" xmlns:xlink="http://www.w3.org/1999/xlink">
<g id="graph0" class="graph" transform="scale(1 1) rotate(0) translate(4 280)">
<title>dependencies</title>
<polygon fill="white" stroke="transparent" points="-4,4 -4,-280 570,-280 570,4 -4,4"/>
<text text-anchor="start" x="262.01" y="-42.4" font-family="Times-12" font-weight="bold" font-size="14.00">Legend</text>
<polygon fill="#ffffb3" stroke="transparent" points="49,-10 49,-30 69,-30 69,-10 49,-10"/>
<text text-anchor="start" x="72.63" y="-15.4" font-family="Times-12" font-size="14.00"> &#160;Declarations</text>
<polygon fill="#8dd3c7" stroke="transparent" points="162,-10 162,-30 182,-30 182,-10 162,-10"/>
<text text-anchor="start" x="185.73" y="-15.4" font-family="Times-12" font-size="14.00"> &#160;Module</text>
<polygon fill="#80b1d3" stroke="transparent" points="248,-10 248,-30 268,-30 268,-10 248,-10"/>
<text text-anchor="start" x="271.78" y="-15.4" font-family="Times-12" font-size="14.00"> &#160;Bootstrap</text>
<polygon fill="#fdb462" stroke="transparent" points="345,-10 345,-30 365,-30 365,-10 345,-10"/>
<text text-anchor="start" x="368.67" y="-15.4" font-family="Times-12" font-size="14.00"> &#160;Providers</text>
<polygon fill="#fb8072" stroke="transparent" points="441,-10 441,-30 461,-30 461,-10 441,-10"/>
<text text-anchor="start" x="464.73" y="-15.4" font-family="Times-12" font-size="14.00"> &#160;Exports</text>
<g id="clust1" class="cluster">
<title>cluster_DirectivesModule</title>
<polygon fill="none" stroke="black" stroke-dasharray="1,5" points="8,-70 8,-268 558,-268 558,-70 8,-70"/>
</g>
<g id="clust7" class="cluster">
<title>cluster_DirectivesModule_exports</title>
<polygon fill="none" stroke="black" points="71,-208 71,-260 419,-260 419,-208 71,-208"/>
</g>
<g id="clust9" class="cluster">
<title>cluster_DirectivesModule_providers</title>
<polygon fill="none" stroke="black" points="362,-78 362,-130 550,-130 550,-78 362,-78"/>
</g>
<g id="clust2" class="cluster">
<title>cluster_DirectivesModule_declarations</title>
<polygon fill="none" stroke="black" points="16,-78 16,-130 354,-130 354,-78 16,-78"/>
</g>
<!-- NavDirective -->
<g id="node1" class="node">
<title>NavDirective</title>
<polygon fill="#ffffb3" stroke="black" points="345.9,-122 254.1,-122 254.1,-86 345.9,-86 345.9,-122"/>
<text text-anchor="middle" x="300" y="-99.8" font-family="Times,serif" font-size="14.00">NavDirective</text>
</g>
<!-- DirectivesModule -->
<g id="node4" class="node">
<title>DirectivesModule</title>
<polygon fill="#8dd3c7" stroke="black" points="303.58,-187 300.58,-191 279.58,-191 276.58,-187 186.42,-187 186.42,-151 303.58,-151 303.58,-187"/>
<text text-anchor="middle" x="245" y="-164.8" font-family="Times,serif" font-size="14.00">DirectivesModule</text>
</g>
<!-- NavDirective&#45;&gt;DirectivesModule -->
<g id="edge1" class="edge">
<title>NavDirective&#45;&gt;DirectivesModule</title>
<path fill="none" stroke="black" d="M278.92,-122.11C278.92,-122.11 278.92,-140.99 278.92,-140.99"/>
<polygon fill="black" stroke="black" points="275.42,-140.99 278.92,-150.99 282.42,-140.99 275.42,-140.99"/>
</g>
<!-- StickyDirective -->
<g id="node2" class="node">
<title>StickyDirective</title>
<polygon fill="#ffffb3" stroke="black" points="235.86,-122 132.14,-122 132.14,-86 235.86,-86 235.86,-122"/>
<text text-anchor="middle" x="184" y="-99.8" font-family="Times,serif" font-size="14.00">StickyDirective</text>
</g>
<!-- StickyDirective&#45;&gt;DirectivesModule -->
<g id="edge2" class="edge">
<title>StickyDirective&#45;&gt;DirectivesModule</title>
<path fill="none" stroke="black" d="M211.2,-122.11C211.2,-122.11 211.2,-140.99 211.2,-140.99"/>
<polygon fill="black" stroke="black" points="207.7,-140.99 211.2,-150.99 214.7,-140.99 207.7,-140.99"/>
</g>
<!-- TopDirective -->
<g id="node3" class="node">
<title>TopDirective</title>
<polygon fill="#ffffb3" stroke="black" points="114.14,-122 23.86,-122 23.86,-86 114.14,-86 114.14,-122"/>
<text text-anchor="middle" x="69" y="-99.8" font-family="Times,serif" font-size="14.00">TopDirective</text>
</g>
<!-- TopDirective&#45;&gt;DirectivesModule -->
<g id="edge3" class="edge">
<title>TopDirective&#45;&gt;DirectivesModule</title>
<path fill="none" stroke="black" d="M96.62,-122.02C96.62,-139.37 96.62,-163 96.62,-163 96.62,-163 176.36,-163 176.36,-163"/>
<polygon fill="black" stroke="black" points="176.36,-166.5 186.36,-163 176.36,-159.5 176.36,-166.5"/>
</g>
<!-- NavDirective  -->
<g id="node5" class="node">
<title>NavDirective </title>
<polygon fill="#fb8072" stroke="black" points="411.4,-252 316.6,-252 316.6,-216 411.4,-216 411.4,-252"/>
<text text-anchor="middle" x="364" y="-229.8" font-family="Times,serif" font-size="14.00">NavDirective </text>
</g>
<!-- DirectivesModule&#45;&gt;NavDirective  -->
<g id="edge4" class="edge">
<title>DirectivesModule&#45;&gt;NavDirective </title>
<path fill="none" stroke="black" stroke-dasharray="5,2" d="M303.87,-175C319.01,-175 331.12,-175 331.12,-175 331.12,-175 331.12,-205.98 331.12,-205.98"/>
<polygon fill="black" stroke="black" points="327.63,-205.98 331.12,-215.98 334.63,-205.98 327.63,-205.98"/>
</g>
<!-- StickyDirective  -->
<g id="node6" class="node">
<title>StickyDirective </title>
<polygon fill="#fb8072" stroke="black" points="298.86,-252 191.14,-252 191.14,-216 298.86,-216 298.86,-252"/>
<text text-anchor="middle" x="245" y="-229.8" font-family="Times,serif" font-size="14.00">StickyDirective </text>
</g>
<!-- DirectivesModule&#45;&gt;StickyDirective  -->
<g id="edge5" class="edge">
<title>DirectivesModule&#45;&gt;StickyDirective </title>
<path fill="none" stroke="black" stroke-dasharray="5,2" d="M245,-187.11C245,-187.11 245,-205.99 245,-205.99"/>
<polygon fill="black" stroke="black" points="241.5,-205.99 245,-215.99 248.5,-205.99 241.5,-205.99"/>
</g>
<!-- TopDirective  -->
<g id="node7" class="node">
<title>TopDirective </title>
<polygon fill="#fb8072" stroke="black" points="173.14,-252 78.86,-252 78.86,-216 173.14,-216 173.14,-252"/>
<text text-anchor="middle" x="126" y="-229.8" font-family="Times,serif" font-size="14.00">TopDirective </text>
</g>
<!-- DirectivesModule&#45;&gt;TopDirective  -->
<g id="edge6" class="edge">
<title>DirectivesModule&#45;&gt;TopDirective </title>
<path fill="none" stroke="black" stroke-dasharray="5,2" d="M186.2,-175C167.97,-175 152.57,-175 152.57,-175 152.57,-175 152.57,-205.98 152.57,-205.98"/>
<polygon fill="black" stroke="black" points="149.07,-205.98 152.57,-215.98 156.07,-205.98 149.07,-205.98"/>
</g>
<!-- CreateDraftService -->
<g id="node8" class="node">
<title>CreateDraftService</title>
<ellipse fill="#fdb462" stroke="black" cx="456" cy="-104" rx="85.62" ry="18"/>
<text text-anchor="middle" x="456" y="-99.8" font-family="Times,serif" font-size="14.00">CreateDraftService</text>
</g>
<!-- CreateDraftService&#45;&gt;DirectivesModule -->
<g id="edge7" class="edge">
<title>CreateDraftService&#45;&gt;DirectivesModule</title>
<path fill="none" stroke="black" d="M390.94,-115.94C390.94,-133.18 390.94,-163 390.94,-163 390.94,-163 313.94,-163 313.94,-163"/>
<polygon fill="black" stroke="black" points="313.94,-159.5 303.94,-163 313.94,-166.5 313.94,-159.5"/>
</g>
</g>
</svg>
