<?xml version="1.0" encoding="UTF-8" standalone="no"?>
<!DOCTYPE svg PUBLIC "-//W3C//DTD SVG 1.1//EN"
 "http://www.w3.org/Graphics/SVG/1.1/DTD/svg11.dtd">
<!-- Generated by graphviz version 2.47.0 (20210316.0004)
 -->
<!-- Title: dependencies Pages: 1 -->
<svg width="1327pt" height="211pt"
 viewBox="0.00 0.00 1327.00 211.00" xmlns="http://www.w3.org/2000/svg" xmlns:xlink="http://www.w3.org/1999/xlink">
<g id="graph0" class="graph" transform="scale(1 1) rotate(0) translate(4 207)">
<title>dependencies</title>
<polygon fill="white" stroke="transparent" points="-4,4 -4,-207 1323,-207 1323,4 -4,4"/>
<text text-anchor="start" x="638.51" y="-42.4" font-family="Times-12" font-weight="bold" font-size="14.00">Legend</text>
<polygon fill="#ffffb3" stroke="transparent" points="425.5,-10 425.5,-30 445.5,-30 445.5,-10 425.5,-10"/>
<text text-anchor="start" x="449.13" y="-15.4" font-family="Times-12" font-size="14.00"> &#160;Declarations</text>
<polygon fill="#8dd3c7" stroke="transparent" points="538.5,-10 538.5,-30 558.5,-30 558.5,-10 538.5,-10"/>
<text text-anchor="start" x="562.23" y="-15.4" font-family="Times-12" font-size="14.00"> &#160;Module</text>
<polygon fill="#80b1d3" stroke="transparent" points="624.5,-10 624.5,-30 644.5,-30 644.5,-10 624.5,-10"/>
<text text-anchor="start" x="648.28" y="-15.4" font-family="Times-12" font-size="14.00"> &#160;Bootstrap</text>
<polygon fill="#fdb462" stroke="transparent" points="721.5,-10 721.5,-30 741.5,-30 741.5,-10 721.5,-10"/>
<text text-anchor="start" x="745.17" y="-15.4" font-family="Times-12" font-size="14.00"> &#160;Providers</text>
<polygon fill="#fb8072" stroke="transparent" points="817.5,-10 817.5,-30 837.5,-30 837.5,-10 817.5,-10"/>
<text text-anchor="start" x="841.23" y="-15.4" font-family="Times-12" font-size="14.00"> &#160;Exports</text>
<g id="clust1" class="cluster">
<title>cluster_PostModule</title>
<polygon fill="none" stroke="black" stroke-dasharray="1,5" points="8,-70 8,-195 1311,-195 1311,-70 8,-70"/>
</g>
<g id="clust7" class="cluster">
<title>cluster_PostModule_imports</title>
<polygon fill="none" stroke="black" points="636,-78 636,-130 1303,-130 1303,-78 636,-78"/>
</g>
<g id="clust2" class="cluster">
<title>cluster_PostModule_declarations</title>
<polygon fill="none" stroke="black" points="16,-78 16,-130 628,-130 628,-78 16,-78"/>
</g>
<!-- PostComponent -->
<g id="node1" class="node">
<title>PostComponent</title>
<polygon fill="#ffffb3" stroke="black" points="619.95,-122 514.05,-122 514.05,-86 619.95,-86 619.95,-122"/>
<text text-anchor="middle" x="567" y="-99.8" font-family="Times,serif" font-size="14.00">PostComponent</text>
</g>
<!-- PostModule -->
<g id="node5" class="node">
<title>PostModule</title>
<polygon fill="#8dd3c7" stroke="black" points="739.67,-187 736.67,-191 715.67,-191 712.67,-187 656.33,-187 656.33,-151 739.67,-151 739.67,-187"/>
<text text-anchor="middle" x="698" y="-164.8" font-family="Times,serif" font-size="14.00">PostModule</text>
</g>
<!-- PostComponent&#45;&gt;PostModule -->
<g id="edge1" class="edge">
<title>PostComponent&#45;&gt;PostModule</title>
<path fill="none" stroke="black" d="M567,-122.01C567,-138.05 567,-159 567,-159 567,-159 646.19,-159 646.19,-159"/>
<polygon fill="black" stroke="black" points="646.19,-162.5 656.19,-159 646.19,-155.5 646.19,-162.5"/>
</g>
<!-- PostContentComponent -->
<g id="node2" class="node">
<title>PostContentComponent</title>
<polygon fill="#ffffb3" stroke="black" points="495.78,-122 346.22,-122 346.22,-86 495.78,-86 495.78,-122"/>
<text text-anchor="middle" x="421" y="-99.8" font-family="Times,serif" font-size="14.00">PostContentComponent</text>
</g>
<!-- PostContentComponent&#45;&gt;PostModule -->
<g id="edge2" class="edge">
<title>PostContentComponent&#45;&gt;PostModule</title>
<path fill="none" stroke="black" d="M421,-122.27C421,-140.56 421,-166 421,-166 421,-166 646.23,-166 646.23,-166"/>
<polygon fill="black" stroke="black" points="646.23,-169.5 656.23,-166 646.23,-162.5 646.23,-169.5"/>
</g>
<!-- PostIndexComponent -->
<g id="node3" class="node">
<title>PostIndexComponent</title>
<polygon fill="#ffffb3" stroke="black" points="327.83,-122 190.17,-122 190.17,-86 327.83,-86 327.83,-122"/>
<text text-anchor="middle" x="259" y="-99.8" font-family="Times,serif" font-size="14.00">PostIndexComponent</text>
</g>
<!-- PostIndexComponent&#45;&gt;PostModule -->
<g id="edge3" class="edge">
<title>PostIndexComponent&#45;&gt;PostModule</title>
<path fill="none" stroke="black" d="M259,-122.13C259,-142.57 259,-173 259,-173 259,-173 646.3,-173 646.3,-173"/>
<polygon fill="black" stroke="black" points="646.3,-176.5 656.3,-173 646.3,-169.5 646.3,-176.5"/>
</g>
<!-- PostSidebarComponent -->
<g id="node4" class="node">
<title>PostSidebarComponent</title>
<polygon fill="#ffffb3" stroke="black" points="172.21,-122 23.79,-122 23.79,-86 172.21,-86 172.21,-122"/>
<text text-anchor="middle" x="98" y="-99.8" font-family="Times,serif" font-size="14.00">PostSidebarComponent</text>
</g>
<!-- PostSidebarComponent&#45;&gt;PostModule -->
<g id="edge4" class="edge">
<title>PostSidebarComponent&#45;&gt;PostModule</title>
<path fill="none" stroke="black" d="M98,-122.01C98,-144.49 98,-180 98,-180 98,-180 646.29,-180 646.29,-180"/>
<polygon fill="black" stroke="black" points="646.29,-183.5 656.29,-180 646.29,-176.5 646.29,-183.5"/>
</g>
<!-- DraftsAccessModule -->
<g id="node6" class="node">
<title>DraftsAccessModule</title>
<polygon fill="#8dd3c7" stroke="black" points="1295.17,-122 1292.17,-126 1271.17,-126 1268.17,-122 1160.83,-122 1160.83,-86 1295.17,-86 1295.17,-122"/>
<text text-anchor="middle" x="1228" y="-99.8" font-family="Times,serif" font-size="14.00">DraftsAccessModule</text>
</g>
<!-- DraftsAccessModule&#45;&gt;PostModule -->
<g id="edge5" class="edge">
<title>DraftsAccessModule&#45;&gt;PostModule</title>
<path fill="none" stroke="black" d="M1228,-122.01C1228,-144.49 1228,-180 1228,-180 1228,-180 750.03,-180 750.03,-180"/>
<polygon fill="black" stroke="black" points="750.03,-176.5 740.03,-180 750.03,-183.5 750.03,-176.5"/>
</g>
<!-- LayoutModule -->
<g id="node7" class="node">
<title>LayoutModule</title>
<polygon fill="#8dd3c7" stroke="black" points="1142.71,-122 1139.71,-126 1118.71,-126 1115.71,-122 1043.29,-122 1043.29,-86 1142.71,-86 1142.71,-122"/>
<text text-anchor="middle" x="1093" y="-99.8" font-family="Times,serif" font-size="14.00">LayoutModule</text>
</g>
<!-- LayoutModule&#45;&gt;PostModule -->
<g id="edge6" class="edge">
<title>LayoutModule&#45;&gt;PostModule</title>
<path fill="none" stroke="black" d="M1093,-122.13C1093,-142.57 1093,-173 1093,-173 1093,-173 749.9,-173 749.9,-173"/>
<polygon fill="black" stroke="black" points="749.9,-169.5 739.9,-173 749.9,-176.5 749.9,-169.5"/>
</g>
<!-- PostRoutingModule -->
<g id="node8" class="node">
<title>PostRoutingModule</title>
<polygon fill="#8dd3c7" stroke="black" points="1025.29,-122 1022.29,-126 1001.29,-126 998.29,-122 896.71,-122 896.71,-86 1025.29,-86 1025.29,-122"/>
<text text-anchor="middle" x="961" y="-99.8" font-family="Times,serif" font-size="14.00">PostRoutingModule</text>
</g>
<!-- PostRoutingModule&#45;&gt;PostModule -->
<g id="edge7" class="edge">
<title>PostRoutingModule&#45;&gt;PostModule</title>
<path fill="none" stroke="black" d="M961,-122.27C961,-140.56 961,-166 961,-166 961,-166 749.67,-166 749.67,-166"/>
<polygon fill="black" stroke="black" points="749.67,-162.5 739.67,-166 749.67,-169.5 749.67,-162.5"/>
</g>
<!-- SkeletonModule -->
<g id="node9" class="node">
<title>SkeletonModule</title>
<polygon fill="#8dd3c7" stroke="black" points="878.04,-122 875.04,-126 854.04,-126 851.04,-122 769.96,-122 769.96,-86 878.04,-86 878.04,-122"/>
<text text-anchor="middle" x="824" y="-99.8" font-family="Times,serif" font-size="14.00">SkeletonModule</text>
</g>
<!-- SkeletonModule&#45;&gt;PostModule -->
<g id="edge8" class="edge">
<title>SkeletonModule&#45;&gt;PostModule</title>
<path fill="none" stroke="black" d="M824,-122.01C824,-138.05 824,-159 824,-159 824,-159 749.96,-159 749.96,-159"/>
<polygon fill="black" stroke="black" points="749.96,-155.5 739.96,-159 749.96,-162.5 749.96,-155.5"/>
</g>
<!-- SnippetsModule -->
<g id="node10" class="node">
<title>SnippetsModule</title>
<polygon fill="#8dd3c7" stroke="black" points="751.77,-122 748.77,-126 727.77,-126 724.77,-122 644.23,-122 644.23,-86 751.77,-86 751.77,-122"/>
<text text-anchor="middle" x="698" y="-99.8" font-family="Times,serif" font-size="14.00">SnippetsModule</text>
</g>
<!-- SnippetsModule&#45;&gt;PostModule -->
<g id="edge9" class="edge">
<title>SnippetsModule&#45;&gt;PostModule</title>
<path fill="none" stroke="black" d="M698,-122.11C698,-122.11 698,-140.99 698,-140.99"/>
<polygon fill="black" stroke="black" points="694.5,-140.99 698,-150.99 701.5,-140.99 694.5,-140.99"/>
</g>
</g>
</svg>
