<?xml version="1.0" encoding="UTF-8" standalone="no"?>
<!DOCTYPE svg PUBLIC "-//W3C//DTD SVG 1.1//EN"
 "http://www.w3.org/Graphics/SVG/1.1/DTD/svg11.dtd">
<!-- Generated by graphviz version 2.47.0 (20210316.0004)
 -->
<!-- Title: dependencies Pages: 1 -->
<svg width="1718pt" height="211pt"
 viewBox="0.00 0.00 1718.00 211.00" xmlns="http://www.w3.org/2000/svg" xmlns:xlink="http://www.w3.org/1999/xlink">
<g id="graph0" class="graph" transform="scale(1 1) rotate(0) translate(4 207)">
<title>dependencies</title>
<polygon fill="white" stroke="transparent" points="-4,4 -4,-207 1714,-207 1714,4 -4,4"/>
<text text-anchor="start" x="834.01" y="-42.4" font-family="Times-12" font-weight="bold" font-size="14.00">Legend</text>
<polygon fill="#ffffb3" stroke="transparent" points="621,-10 621,-30 641,-30 641,-10 621,-10"/>
<text text-anchor="start" x="644.63" y="-15.4" font-family="Times-12" font-size="14.00"> &#160;Declarations</text>
<polygon fill="#8dd3c7" stroke="transparent" points="734,-10 734,-30 754,-30 754,-10 734,-10"/>
<text text-anchor="start" x="757.73" y="-15.4" font-family="Times-12" font-size="14.00"> &#160;Module</text>
<polygon fill="#80b1d3" stroke="transparent" points="820,-10 820,-30 840,-30 840,-10 820,-10"/>
<text text-anchor="start" x="843.78" y="-15.4" font-family="Times-12" font-size="14.00"> &#160;Bootstrap</text>
<polygon fill="#fdb462" stroke="transparent" points="917,-10 917,-30 937,-30 937,-10 917,-10"/>
<text text-anchor="start" x="940.67" y="-15.4" font-family="Times-12" font-size="14.00"> &#160;Providers</text>
<polygon fill="#fb8072" stroke="transparent" points="1013,-10 1013,-30 1033,-30 1033,-10 1013,-10"/>
<text text-anchor="start" x="1036.73" y="-15.4" font-family="Times-12" font-size="14.00"> &#160;Exports</text>
<g id="clust1" class="cluster">
<title>cluster_CreateModule</title>
<polygon fill="none" stroke="black" stroke-dasharray="1,5" points="8,-70 8,-195 1702,-195 1702,-70 8,-70"/>
</g>
<g id="clust2" class="cluster">
<title>cluster_CreateModule_declarations</title>
<polygon fill="none" stroke="black" points="1036,-78 1036,-130 1694,-130 1694,-78 1036,-78"/>
</g>
<g id="clust10" class="cluster">
<title>cluster_CreateModule_providers</title>
<polygon fill="none" stroke="black" points="840,-78 840,-130 1028,-130 1028,-78 840,-78"/>
</g>
<g id="clust7" class="cluster">
<title>cluster_CreateModule_imports</title>
<polygon fill="none" stroke="black" points="16,-78 16,-130 832,-130 832,-78 16,-78"/>
</g>
<!-- CreateComponent -->
<g id="node1" class="node">
<title>CreateComponent</title>
<polygon fill="#ffffb3" stroke="black" points="1685.86,-122 1568.14,-122 1568.14,-86 1685.86,-86 1685.86,-122"/>
<text text-anchor="middle" x="1627" y="-99.8" font-family="Times,serif" font-size="14.00">CreateComponent</text>
</g>
<!-- CreateModule -->
<g id="node5" class="node">
<title>CreateModule</title>
<polygon fill="#8dd3c7" stroke="black" points="801.08,-187 798.08,-191 777.08,-191 774.08,-187 704.92,-187 704.92,-151 801.08,-151 801.08,-187"/>
<text text-anchor="middle" x="753" y="-164.8" font-family="Times,serif" font-size="14.00">CreateModule</text>
</g>
<!-- CreateComponent&#45;&gt;CreateModule -->
<g id="edge1" class="edge">
<title>CreateComponent&#45;&gt;CreateModule</title>
<path fill="none" stroke="black" d="M1627,-122.09C1627,-145.13 1627,-182 1627,-182 1627,-182 811.23,-182 811.23,-182"/>
<polygon fill="black" stroke="black" points="811.24,-178.5 801.23,-182 811.23,-185.5 811.24,-178.5"/>
</g>
<!-- CreateContentComponent -->
<g id="node2" class="node">
<title>CreateContentComponent</title>
<polygon fill="#ffffb3" stroke="black" points="1550.2,-122 1387.8,-122 1387.8,-86 1550.2,-86 1550.2,-122"/>
<text text-anchor="middle" x="1469" y="-99.8" font-family="Times,serif" font-size="14.00">CreateContentComponent</text>
</g>
<!-- CreateContentComponent&#45;&gt;CreateModule -->
<g id="edge2" class="edge">
<title>CreateContentComponent&#45;&gt;CreateModule</title>
<path fill="none" stroke="black" d="M1469,-122.28C1469,-143.32 1469,-175 1469,-175 1469,-175 811.09,-175 811.09,-175"/>
<polygon fill="black" stroke="black" points="811.09,-171.5 801.09,-175 811.09,-178.5 811.09,-171.5"/>
</g>
<!-- CreateFormComponent -->
<g id="node3" class="node">
<title>CreateFormComponent</title>
<polygon fill="#ffffb3" stroke="black" points="1370.2,-122 1221.8,-122 1221.8,-86 1370.2,-86 1370.2,-122"/>
<text text-anchor="middle" x="1296" y="-99.8" font-family="Times,serif" font-size="14.00">CreateFormComponent</text>
</g>
<!-- CreateFormComponent&#45;&gt;CreateModule -->
<g id="edge3" class="edge">
<title>CreateFormComponent&#45;&gt;CreateModule</title>
<path fill="none" stroke="black" d="M1296,-122.11C1296,-141.34 1296,-169 1296,-169 1296,-169 811.19,-169 811.19,-169"/>
<polygon fill="black" stroke="black" points="811.19,-165.5 801.19,-169 811.19,-172.5 811.19,-165.5"/>
</g>
<!-- CreateSidebarComponent -->
<g id="node4" class="node">
<title>CreateSidebarComponent</title>
<polygon fill="#ffffb3" stroke="black" points="1204.13,-122 1043.87,-122 1043.87,-86 1204.13,-86 1204.13,-122"/>
<text text-anchor="middle" x="1124" y="-99.8" font-family="Times,serif" font-size="14.00">CreateSidebarComponent</text>
</g>
<!-- CreateSidebarComponent&#45;&gt;CreateModule -->
<g id="edge4" class="edge">
<title>CreateSidebarComponent&#45;&gt;CreateModule</title>
<path fill="none" stroke="black" d="M1124,-122.02C1124,-139.37 1124,-163 1124,-163 1124,-163 811.12,-163 811.12,-163"/>
<polygon fill="black" stroke="black" points="811.12,-159.5 801.12,-163 811.12,-166.5 811.12,-159.5"/>
</g>
<!-- CreateRoutingModule -->
<g id="node6" class="node">
<title>CreateRoutingModule</title>
<polygon fill="#8dd3c7" stroke="black" points="823.7,-122 820.7,-126 799.7,-126 796.7,-122 682.3,-122 682.3,-86 823.7,-86 823.7,-122"/>
<text text-anchor="middle" x="753" y="-99.8" font-family="Times,serif" font-size="14.00">CreateRoutingModule</text>
</g>
<!-- CreateRoutingModule&#45;&gt;CreateModule -->
<g id="edge5" class="edge">
<title>CreateRoutingModule&#45;&gt;CreateModule</title>
<path fill="none" stroke="black" d="M753,-122.11C753,-122.11 753,-140.99 753,-140.99"/>
<polygon fill="black" stroke="black" points="749.5,-140.99 753,-150.99 756.5,-140.99 749.5,-140.99"/>
</g>
<!-- DraftLayoutModule -->
<g id="node7" class="node">
<title>DraftLayoutModule</title>
<polygon fill="#8dd3c7" stroke="black" points="664.24,-122 661.24,-126 640.24,-126 637.24,-122 535.76,-122 535.76,-86 664.24,-86 664.24,-122"/>
<text text-anchor="middle" x="600" y="-99.8" font-family="Times,serif" font-size="14.00">DraftLayoutModule</text>
</g>
<!-- DraftLayoutModule&#45;&gt;CreateModule -->
<g id="edge6" class="edge">
<title>DraftLayoutModule&#45;&gt;CreateModule</title>
<path fill="none" stroke="black" d="M600,-122.24C600,-137.57 600,-157 600,-157 600,-157 694.59,-157 694.59,-157"/>
<polygon fill="black" stroke="black" points="694.59,-160.5 704.59,-157 694.59,-153.5 694.59,-160.5"/>
</g>
<!-- DraftsAccessModule -->
<g id="node8" class="node">
<title>DraftsAccessModule</title>
<polygon fill="#8dd3c7" stroke="black" points="518.17,-122 515.17,-126 494.17,-126 491.17,-122 383.83,-122 383.83,-86 518.17,-86 518.17,-122"/>
<text text-anchor="middle" x="451" y="-99.8" font-family="Times,serif" font-size="14.00">DraftsAccessModule</text>
</g>
<!-- DraftsAccessModule&#45;&gt;CreateModule -->
<g id="edge7" class="edge">
<title>DraftsAccessModule&#45;&gt;CreateModule</title>
<path fill="none" stroke="black" d="M451,-122.02C451,-139.37 451,-163 451,-163 451,-163 694.81,-163 694.81,-163"/>
<polygon fill="black" stroke="black" points="694.81,-166.5 704.81,-163 694.81,-159.5 694.81,-166.5"/>
</g>
<!-- LayoutModule -->
<g id="node9" class="node">
<title>LayoutModule</title>
<polygon fill="#8dd3c7" stroke="black" points="365.71,-122 362.71,-126 341.71,-126 338.71,-122 266.29,-122 266.29,-86 365.71,-86 365.71,-122"/>
<text text-anchor="middle" x="316" y="-99.8" font-family="Times,serif" font-size="14.00">LayoutModule</text>
</g>
<!-- LayoutModule&#45;&gt;CreateModule -->
<g id="edge8" class="edge">
<title>LayoutModule&#45;&gt;CreateModule</title>
<path fill="none" stroke="black" d="M316,-122.11C316,-141.34 316,-169 316,-169 316,-169 694.56,-169 694.56,-169"/>
<polygon fill="black" stroke="black" points="694.56,-172.5 704.56,-169 694.56,-165.5 694.56,-172.5"/>
</g>
<!-- SharedModule -->
<g id="node10" class="node">
<title>SharedModule</title>
<polygon fill="#8dd3c7" stroke="black" points="248.42,-122 245.42,-126 224.42,-126 221.42,-122 149.58,-122 149.58,-86 248.42,-86 248.42,-122"/>
<text text-anchor="middle" x="199" y="-99.8" font-family="Times,serif" font-size="14.00">SharedModule</text>
</g>
<!-- SharedModule&#45;&gt;CreateModule -->
<g id="edge9" class="edge">
<title>SharedModule&#45;&gt;CreateModule</title>
<path fill="none" stroke="black" d="M199,-122.28C199,-143.32 199,-175 199,-175 199,-175 694.81,-175 694.81,-175"/>
<polygon fill="black" stroke="black" points="694.81,-178.5 704.81,-175 694.81,-171.5 694.81,-178.5"/>
</g>
<!-- SnippetsModule -->
<g id="node11" class="node">
<title>SnippetsModule</title>
<polygon fill="#8dd3c7" stroke="black" points="131.77,-122 128.77,-126 107.77,-126 104.77,-122 24.23,-122 24.23,-86 131.77,-86 131.77,-122"/>
<text text-anchor="middle" x="78" y="-99.8" font-family="Times,serif" font-size="14.00">SnippetsModule</text>
</g>
<!-- SnippetsModule&#45;&gt;CreateModule -->
<g id="edge10" class="edge">
<title>SnippetsModule&#45;&gt;CreateModule</title>
<path fill="none" stroke="black" d="M78,-122.09C78,-145.13 78,-182 78,-182 78,-182 694.73,-182 694.73,-182"/>
<polygon fill="black" stroke="black" points="694.73,-185.5 704.73,-182 694.73,-178.5 694.73,-185.5"/>
</g>
<!-- CreateDraftService -->
<g id="node12" class="node">
<title>CreateDraftService</title>
<ellipse fill="#fdb462" stroke="black" cx="934" cy="-104" rx="85.62" ry="18"/>
<text text-anchor="middle" x="934" y="-99.8" font-family="Times,serif" font-size="14.00">CreateDraftService</text>
</g>
<!-- CreateDraftService&#45;&gt;CreateModule -->
<g id="edge11" class="edge">
<title>CreateDraftService&#45;&gt;CreateModule</title>
<path fill="none" stroke="black" d="M934,-122.24C934,-137.57 934,-157 934,-157 934,-157 811.5,-157 811.5,-157"/>
<polygon fill="black" stroke="black" points="811.5,-153.5 801.5,-157 811.5,-160.5 811.5,-153.5"/>
</g>
</g>
</svg>
