<?xml version="1.0" encoding="UTF-8" standalone="no"?>
<!DOCTYPE svg PUBLIC "-//W3C//DTD SVG 1.1//EN"
 "http://www.w3.org/Graphics/SVG/1.1/DTD/svg11.dtd">
<!-- Generated by graphviz version 2.47.0 (20210316.0004)
 -->
<!-- Title: dependencies Pages: 1 -->
<svg width="1473pt" height="284pt"
 viewBox="0.00 0.00 1473.00 284.00" xmlns="http://www.w3.org/2000/svg" xmlns:xlink="http://www.w3.org/1999/xlink">
<g id="graph0" class="graph" transform="scale(1 1) rotate(0) translate(4 280)">
<title>dependencies</title>
<polygon fill="white" stroke="transparent" points="-4,4 -4,-280 1469,-280 1469,4 -4,4"/>
<text text-anchor="start" x="711.51" y="-42.4" font-family="Times-12" font-weight="bold" font-size="14.00">Legend</text>
<polygon fill="#ffffb3" stroke="transparent" points="498.5,-10 498.5,-30 518.5,-30 518.5,-10 498.5,-10"/>
<text text-anchor="start" x="522.13" y="-15.4" font-family="Times-12" font-size="14.00"> &#160;Declarations</text>
<polygon fill="#8dd3c7" stroke="transparent" points="611.5,-10 611.5,-30 631.5,-30 631.5,-10 611.5,-10"/>
<text text-anchor="start" x="635.23" y="-15.4" font-family="Times-12" font-size="14.00"> &#160;Module</text>
<polygon fill="#80b1d3" stroke="transparent" points="697.5,-10 697.5,-30 717.5,-30 717.5,-10 697.5,-10"/>
<text text-anchor="start" x="721.28" y="-15.4" font-family="Times-12" font-size="14.00"> &#160;Bootstrap</text>
<polygon fill="#fdb462" stroke="transparent" points="794.5,-10 794.5,-30 814.5,-30 814.5,-10 794.5,-10"/>
<text text-anchor="start" x="818.17" y="-15.4" font-family="Times-12" font-size="14.00"> &#160;Providers</text>
<polygon fill="#fb8072" stroke="transparent" points="890.5,-10 890.5,-30 910.5,-30 910.5,-10 890.5,-10"/>
<text text-anchor="start" x="914.23" y="-15.4" font-family="Times-12" font-size="14.00"> &#160;Exports</text>
<g id="clust1" class="cluster">
<title>cluster_SnippetsModule</title>
<polygon fill="none" stroke="black" stroke-dasharray="1,5" points="8,-70 8,-268 1457,-268 1457,-70 8,-70"/>
</g>
<g id="clust11" class="cluster">
<title>cluster_SnippetsModule_exports</title>
<polygon fill="none" stroke="black" points="169,-208 169,-260 1339,-260 1339,-208 169,-208"/>
</g>
<g id="clust10" class="cluster">
<title>cluster_SnippetsModule_imports</title>
<polygon fill="none" stroke="black" points="1315,-78 1315,-130 1449,-130 1449,-78 1315,-78"/>
</g>
<g id="clust13" class="cluster">
<title>cluster_SnippetsModule_providers</title>
<polygon fill="none" stroke="black" points="1171,-78 1171,-130 1307,-130 1307,-78 1171,-78"/>
</g>
<g id="clust2" class="cluster">
<title>cluster_SnippetsModule_declarations</title>
<polygon fill="none" stroke="black" points="16,-78 16,-130 1163,-130 1163,-78 16,-78"/>
</g>
<!-- ContentSearchComponent -->
<g id="node1" class="node">
<title>ContentSearchComponent</title>
<polygon fill="#ffffb3" stroke="black" points="1154.75,-122 991.25,-122 991.25,-86 1154.75,-86 1154.75,-122"/>
<text text-anchor="middle" x="1073" y="-99.8" font-family="Times,serif" font-size="14.00">ContentSearchComponent</text>
</g>
<!-- SnippetsModule -->
<g id="node8" class="node">
<title>SnippetsModule</title>
<polygon fill="#8dd3c7" stroke="black" points="790.77,-187 787.77,-191 766.77,-191 763.77,-187 683.23,-187 683.23,-151 790.77,-151 790.77,-187"/>
<text text-anchor="middle" x="737" y="-164.8" font-family="Times,serif" font-size="14.00">SnippetsModule</text>
</g>
<!-- ContentSearchComponent&#45;&gt;SnippetsModule -->
<g id="edge1" class="edge">
<title>ContentSearchComponent&#45;&gt;SnippetsModule</title>
<path fill="none" stroke="black" d="M995.89,-122.03C995.89,-138.4 995.89,-160 995.89,-160 995.89,-160 800.96,-160 800.96,-160"/>
<polygon fill="black" stroke="black" points="800.96,-156.5 790.96,-160 800.96,-163.5 800.96,-156.5"/>
</g>
<!-- FormErrorComponent -->
<g id="node2" class="node">
<title>FormErrorComponent</title>
<polygon fill="#ffffb3" stroke="black" points="973.7,-122 832.3,-122 832.3,-86 973.7,-86 973.7,-122"/>
<text text-anchor="middle" x="903" y="-99.8" font-family="Times,serif" font-size="14.00">FormErrorComponent</text>
</g>
<!-- FormErrorComponent&#45;&gt;SnippetsModule -->
<g id="edge2" class="edge">
<title>FormErrorComponent&#45;&gt;SnippetsModule</title>
<path fill="none" stroke="black" d="M903,-122.19C903,-137.18 903,-156 903,-156 903,-156 800.9,-156 800.9,-156"/>
<polygon fill="black" stroke="black" points="800.9,-152.5 790.9,-156 800.9,-159.5 800.9,-152.5"/>
</g>
<!-- QuillToolbarComponent -->
<g id="node3" class="node">
<title>QuillToolbarComponent</title>
<polygon fill="#ffffb3" stroke="black" points="814.43,-122 659.57,-122 659.57,-86 814.43,-86 814.43,-122"/>
<text text-anchor="middle" x="737" y="-99.8" font-family="Times,serif" font-size="14.00">QuillToolbarComponent</text>
</g>
<!-- QuillToolbarComponent&#45;&gt;SnippetsModule -->
<g id="edge3" class="edge">
<title>QuillToolbarComponent&#45;&gt;SnippetsModule</title>
<path fill="none" stroke="black" d="M737,-122.11C737,-122.11 737,-140.99 737,-140.99"/>
<polygon fill="black" stroke="black" points="733.5,-140.99 737,-150.99 740.5,-140.99 733.5,-140.99"/>
</g>
<!-- ScrollTopComponent -->
<g id="node4" class="node">
<title>ScrollTopComponent</title>
<polygon fill="#ffffb3" stroke="black" points="641.82,-122 504.18,-122 504.18,-86 641.82,-86 641.82,-122"/>
<text text-anchor="middle" x="573" y="-99.8" font-family="Times,serif" font-size="14.00">ScrollTopComponent</text>
</g>
<!-- ScrollTopComponent&#45;&gt;SnippetsModule -->
<g id="edge4" class="edge">
<title>ScrollTopComponent&#45;&gt;SnippetsModule</title>
<path fill="none" stroke="black" d="M573,-122.19C573,-137.18 573,-156 573,-156 573,-156 672.85,-156 672.85,-156"/>
<polygon fill="black" stroke="black" points="672.85,-159.5 682.85,-156 672.85,-152.5 672.85,-159.5"/>
</g>
<!-- SnackOverlayComponent -->
<g id="node5" class="node">
<title>SnackOverlayComponent</title>
<polygon fill="#ffffb3" stroke="black" points="486.13,-122 325.87,-122 325.87,-86 486.13,-86 486.13,-122"/>
<text text-anchor="middle" x="406" y="-99.8" font-family="Times,serif" font-size="14.00">SnackOverlayComponent</text>
</g>
<!-- SnackOverlayComponent&#45;&gt;SnippetsModule -->
<g id="edge5" class="edge">
<title>SnackOverlayComponent&#45;&gt;SnippetsModule</title>
<path fill="none" stroke="black" d="M476.06,-122.03C476.06,-138.4 476.06,-160 476.06,-160 476.06,-160 672.93,-160 672.93,-160"/>
<polygon fill="black" stroke="black" points="672.93,-163.5 682.93,-160 672.93,-156.5 672.93,-163.5"/>
</g>
<!-- SpinnerComponent -->
<g id="node6" class="node">
<title>SpinnerComponent</title>
<polygon fill="#ffffb3" stroke="black" points="307.38,-122 182.62,-122 182.62,-86 307.38,-86 307.38,-122"/>
<text text-anchor="middle" x="245" y="-99.8" font-family="Times,serif" font-size="14.00">SpinnerComponent</text>
</g>
<!-- SpinnerComponent&#45;&gt;SnippetsModule -->
<g id="edge6" class="edge">
<title>SpinnerComponent&#45;&gt;SnippetsModule</title>
<path fill="none" stroke="black" d="M245,-122.3C245,-140.27 245,-165 245,-165 245,-165 672.94,-165 672.94,-165"/>
<polygon fill="black" stroke="black" points="672.94,-168.5 682.94,-165 672.94,-161.5 672.94,-168.5"/>
</g>
<!-- TextSliderComponent -->
<g id="node7" class="node">
<title>TextSliderComponent</title>
<polygon fill="#ffffb3" stroke="black" points="164.43,-122 23.57,-122 23.57,-86 164.43,-86 164.43,-122"/>
<text text-anchor="middle" x="94" y="-99.8" font-family="Times,serif" font-size="14.00">TextSliderComponent</text>
</g>
<!-- TextSliderComponent&#45;&gt;SnippetsModule -->
<g id="edge7" class="edge">
<title>TextSliderComponent&#45;&gt;SnippetsModule</title>
<path fill="none" stroke="black" d="M94,-122.11C94,-141.34 94,-169 94,-169 94,-169 673.01,-169 673.01,-169"/>
<polygon fill="black" stroke="black" points="673.01,-172.5 683.01,-169 673.01,-165.5 673.01,-172.5"/>
</g>
<!-- ContentSearchComponent  -->
<g id="node10" class="node">
<title>ContentSearchComponent </title>
<polygon fill="#fb8072" stroke="black" points="1330.75,-252 1163.25,-252 1163.25,-216 1330.75,-216 1330.75,-252"/>
<text text-anchor="middle" x="1247" y="-229.8" font-family="Times,serif" font-size="14.00">ContentSearchComponent </text>
</g>
<!-- SnippetsModule&#45;&gt;ContentSearchComponent  -->
<g id="edge9" class="edge">
<title>SnippetsModule&#45;&gt;ContentSearchComponent </title>
<path fill="none" stroke="black" stroke-dasharray="5,2" d="M791.12,-174C907.53,-174 1171.27,-174 1171.27,-174 1171.27,-174 1171.27,-206 1171.27,-206"/>
<polygon fill="black" stroke="black" points="1167.77,-206 1171.27,-216 1174.77,-206 1167.77,-206"/>
</g>
<!-- FormErrorComponent  -->
<g id="node11" class="node">
<title>FormErrorComponent </title>
<polygon fill="#fb8072" stroke="black" points="1145.2,-252 1000.8,-252 1000.8,-216 1145.2,-216 1145.2,-252"/>
<text text-anchor="middle" x="1073" y="-229.8" font-family="Times,serif" font-size="14.00">FormErrorComponent </text>
</g>
<!-- SnippetsModule&#45;&gt;FormErrorComponent  -->
<g id="edge10" class="edge">
<title>SnippetsModule&#45;&gt;FormErrorComponent </title>
<path fill="none" stroke="black" stroke-dasharray="5,2" d="M790.98,-178C885.96,-178 1073,-178 1073,-178 1073,-178 1073,-205.97 1073,-205.97"/>
<polygon fill="black" stroke="black" points="1069.5,-205.97 1073,-215.97 1076.5,-205.97 1069.5,-205.97"/>
</g>
<!-- QuillToolbarComponent  -->
<g id="node12" class="node">
<title>QuillToolbarComponent </title>
<polygon fill="#fb8072" stroke="black" points="982.93,-252 825.07,-252 825.07,-216 982.93,-216 982.93,-252"/>
<text text-anchor="middle" x="904" y="-229.8" font-family="Times,serif" font-size="14.00">QuillToolbarComponent </text>
</g>
<!-- SnippetsModule&#45;&gt;QuillToolbarComponent  -->
<g id="edge11" class="edge">
<title>SnippetsModule&#45;&gt;QuillToolbarComponent </title>
<path fill="none" stroke="black" stroke-dasharray="5,2" d="M790.88,-183C810.85,-183 828.72,-183 828.72,-183 828.72,-183 828.72,-205.88 828.72,-205.88"/>
<polygon fill="black" stroke="black" points="825.22,-205.88 828.72,-215.88 832.22,-205.88 825.22,-205.88"/>
</g>
<!-- ScrollTopComponent  -->
<g id="node13" class="node">
<title>ScrollTopComponent </title>
<polygon fill="#fb8072" stroke="black" points="807.32,-252 666.68,-252 666.68,-216 807.32,-216 807.32,-252"/>
<text text-anchor="middle" x="737" y="-229.8" font-family="Times,serif" font-size="14.00">ScrollTopComponent </text>
</g>
<!-- SnippetsModule&#45;&gt;ScrollTopComponent  -->
<g id="edge12" class="edge">
<title>SnippetsModule&#45;&gt;ScrollTopComponent </title>
<path fill="none" stroke="black" stroke-dasharray="5,2" d="M737,-187.11C737,-187.11 737,-205.99 737,-205.99"/>
<polygon fill="black" stroke="black" points="733.5,-205.99 737,-215.99 740.5,-205.99 733.5,-205.99"/>
</g>
<!-- SnackOverlayComponent  -->
<g id="node14" class="node">
<title>SnackOverlayComponent </title>
<polygon fill="#fb8072" stroke="black" points="649.13,-252 484.87,-252 484.87,-216 649.13,-216 649.13,-252"/>
<text text-anchor="middle" x="567" y="-229.8" font-family="Times,serif" font-size="14.00">SnackOverlayComponent </text>
</g>
<!-- SnippetsModule&#45;&gt;SnackOverlayComponent  -->
<g id="edge13" class="edge">
<title>SnippetsModule&#45;&gt;SnackOverlayComponent </title>
<path fill="none" stroke="black" stroke-dasharray="5,2" d="M683.16,-183C663.22,-183 645.36,-183 645.36,-183 645.36,-183 645.36,-205.88 645.36,-205.88"/>
<polygon fill="black" stroke="black" points="641.86,-205.88 645.36,-215.88 648.86,-205.88 641.86,-205.88"/>
</g>
<!-- SpinnerComponent  -->
<g id="node15" class="node">
<title>SpinnerComponent </title>
<polygon fill="#fb8072" stroke="black" points="467.38,-252 338.62,-252 338.62,-216 467.38,-216 467.38,-252"/>
<text text-anchor="middle" x="403" y="-229.8" font-family="Times,serif" font-size="14.00">SpinnerComponent </text>
</g>
<!-- SnippetsModule&#45;&gt;SpinnerComponent  -->
<g id="edge14" class="edge">
<title>SnippetsModule&#45;&gt;SpinnerComponent </title>
<path fill="none" stroke="black" stroke-dasharray="5,2" d="M682.97,-178C588.44,-178 403,-178 403,-178 403,-178 403,-205.97 403,-205.97"/>
<polygon fill="black" stroke="black" points="399.5,-205.97 403,-215.97 406.5,-205.97 399.5,-205.97"/>
</g>
<!-- TextSliderComponent  -->
<g id="node16" class="node">
<title>TextSliderComponent </title>
<polygon fill="#fb8072" stroke="black" points="320.93,-252 177.07,-252 177.07,-216 320.93,-216 320.93,-252"/>
<text text-anchor="middle" x="249" y="-229.8" font-family="Times,serif" font-size="14.00">TextSliderComponent </text>
</g>
<!-- SnippetsModule&#45;&gt;TextSliderComponent  -->
<g id="edge15" class="edge">
<title>SnippetsModule&#45;&gt;TextSliderComponent </title>
<path fill="none" stroke="black" stroke-dasharray="5,2" d="M683.02,-174C569.04,-174 314.2,-174 314.2,-174 314.2,-174 314.2,-206 314.2,-206"/>
<polygon fill="black" stroke="black" points="310.7,-206 314.2,-216 317.7,-206 310.7,-206"/>
</g>
<!-- DirectivesModule -->
<g id="node9" class="node">
<title>DirectivesModule</title>
<polygon fill="#8dd3c7" stroke="black" points="1440.58,-122 1437.58,-126 1416.58,-126 1413.58,-122 1323.42,-122 1323.42,-86 1440.58,-86 1440.58,-122"/>
<text text-anchor="middle" x="1382" y="-99.8" font-family="Times,serif" font-size="14.00">DirectivesModule</text>
</g>
<!-- DirectivesModule&#45;&gt;SnippetsModule -->
<g id="edge8" class="edge">
<title>DirectivesModule&#45;&gt;SnippetsModule</title>
<path fill="none" stroke="black" d="M1327.04,-122.11C1327.04,-141.34 1327.04,-169 1327.04,-169 1327.04,-169 800.93,-169 800.93,-169"/>
<polygon fill="black" stroke="black" points="800.93,-165.5 790.93,-169 800.93,-172.5 800.93,-165.5"/>
</g>
<!-- QuillService -->
<g id="node17" class="node">
<title>QuillService</title>
<ellipse fill="#fdb462" stroke="black" cx="1239" cy="-104" rx="59.69" ry="18"/>
<text text-anchor="middle" x="1239" y="-99.8" font-family="Times,serif" font-size="14.00">QuillService</text>
</g>
<!-- QuillService&#45;&gt;SnippetsModule -->
<g id="edge16" class="edge">
<title>QuillService&#45;&gt;SnippetsModule</title>
<path fill="none" stroke="black" d="M1239,-122.3C1239,-140.27 1239,-165 1239,-165 1239,-165 801.2,-165 801.2,-165"/>
<polygon fill="black" stroke="black" points="801.2,-161.5 791.2,-165 801.2,-168.5 801.2,-161.5"/>
</g>
</g>
</svg>
