<?xml version="1.0" encoding="UTF-8" standalone="no"?>
<!DOCTYPE svg PUBLIC "-//W3C//DTD SVG 1.1//EN"
 "http://www.w3.org/Graphics/SVG/1.1/DTD/svg11.dtd">
<!-- Generated by graphviz version 2.47.0 (20210316.0004)
 -->
<!-- Title: dependencies Pages: 1 -->
<svg width="953pt" height="211pt"
 viewBox="0.00 0.00 953.00 211.00" xmlns="http://www.w3.org/2000/svg" xmlns:xlink="http://www.w3.org/1999/xlink">
<g id="graph0" class="graph" transform="scale(1 1) rotate(0) translate(4 207)">
<title>dependencies</title>
<polygon fill="white" stroke="transparent" points="-4,4 -4,-207 949,-207 949,4 -4,4"/>
<text text-anchor="start" x="451.51" y="-42.4" font-family="Times-12" font-weight="bold" font-size="14.00">Legend</text>
<polygon fill="#ffffb3" stroke="transparent" points="238.5,-10 238.5,-30 258.5,-30 258.5,-10 238.5,-10"/>
<text text-anchor="start" x="262.13" y="-15.4" font-family="Times-12" font-size="14.00"> &#160;Declarations</text>
<polygon fill="#8dd3c7" stroke="transparent" points="351.5,-10 351.5,-30 371.5,-30 371.5,-10 351.5,-10"/>
<text text-anchor="start" x="375.23" y="-15.4" font-family="Times-12" font-size="14.00"> &#160;Module</text>
<polygon fill="#80b1d3" stroke="transparent" points="437.5,-10 437.5,-30 457.5,-30 457.5,-10 437.5,-10"/>
<text text-anchor="start" x="461.28" y="-15.4" font-family="Times-12" font-size="14.00"> &#160;Bootstrap</text>
<polygon fill="#fdb462" stroke="transparent" points="534.5,-10 534.5,-30 554.5,-30 554.5,-10 534.5,-10"/>
<text text-anchor="start" x="558.17" y="-15.4" font-family="Times-12" font-size="14.00"> &#160;Providers</text>
<polygon fill="#fb8072" stroke="transparent" points="630.5,-10 630.5,-30 650.5,-30 650.5,-10 630.5,-10"/>
<text text-anchor="start" x="654.23" y="-15.4" font-family="Times-12" font-size="14.00"> &#160;Exports</text>
<g id="clust1" class="cluster">
<title>cluster_SearchModule</title>
<polygon fill="none" stroke="black" stroke-dasharray="1,5" points="8,-70 8,-195 937,-195 937,-70 8,-70"/>
</g>
<g id="clust6" class="cluster">
<title>cluster_SearchModule_imports</title>
<polygon fill="none" stroke="black" points="509,-78 509,-130 929,-130 929,-78 509,-78"/>
</g>
<g id="clust2" class="cluster">
<title>cluster_SearchModule_declarations</title>
<polygon fill="none" stroke="black" points="16,-78 16,-130 501,-130 501,-78 16,-78"/>
</g>
<!-- SearchComponent -->
<g id="node1" class="node">
<title>SearchComponent</title>
<polygon fill="#ffffb3" stroke="black" points="492.92,-122 373.08,-122 373.08,-86 492.92,-86 492.92,-122"/>
<text text-anchor="middle" x="433" y="-99.8" font-family="Times,serif" font-size="14.00">SearchComponent</text>
</g>
<!-- SearchModule -->
<g id="node4" class="node">
<title>SearchModule</title>
<polygon fill="#8dd3c7" stroke="black" points="554.64,-187 551.64,-191 530.64,-191 527.64,-187 457.36,-187 457.36,-151 554.64,-151 554.64,-187"/>
<text text-anchor="middle" x="506" y="-164.8" font-family="Times,serif" font-size="14.00">SearchModule</text>
</g>
<!-- SearchComponent&#45;&gt;SearchModule -->
<g id="edge1" class="edge">
<title>SearchComponent&#45;&gt;SearchModule</title>
<path fill="none" stroke="black" d="M474.95,-122.11C474.95,-122.11 474.95,-140.99 474.95,-140.99"/>
<polygon fill="black" stroke="black" points="471.45,-140.99 474.95,-150.99 478.45,-140.99 471.45,-140.99"/>
</g>
<!-- SearhContentComponent -->
<g id="node2" class="node">
<title>SearhContentComponent</title>
<polygon fill="#ffffb3" stroke="black" points="355.54,-122 198.46,-122 198.46,-86 355.54,-86 355.54,-122"/>
<text text-anchor="middle" x="277" y="-99.8" font-family="Times,serif" font-size="14.00">SearhContentComponent</text>
</g>
<!-- SearhContentComponent&#45;&gt;SearchModule -->
<g id="edge2" class="edge">
<title>SearhContentComponent&#45;&gt;SearchModule</title>
<path fill="none" stroke="black" d="M277,-122.02C277,-139.37 277,-163 277,-163 277,-163 447.15,-163 447.15,-163"/>
<polygon fill="black" stroke="black" points="447.15,-166.5 457.15,-163 447.15,-159.5 447.15,-166.5"/>
</g>
<!-- SearhSidebarComponent -->
<g id="node3" class="node">
<title>SearhSidebarComponent</title>
<polygon fill="#ffffb3" stroke="black" points="179.97,-122 24.03,-122 24.03,-86 179.97,-86 179.97,-122"/>
<text text-anchor="middle" x="102" y="-99.8" font-family="Times,serif" font-size="14.00">SearhSidebarComponent</text>
</g>
<!-- SearhSidebarComponent&#45;&gt;SearchModule -->
<g id="edge3" class="edge">
<title>SearhSidebarComponent&#45;&gt;SearchModule</title>
<path fill="none" stroke="black" d="M102,-122.28C102,-143.32 102,-175 102,-175 102,-175 447.27,-175 447.27,-175"/>
<polygon fill="black" stroke="black" points="447.27,-178.5 457.27,-175 447.27,-171.5 447.27,-178.5"/>
</g>
<!-- LayoutModule -->
<g id="node5" class="node">
<title>LayoutModule</title>
<polygon fill="#8dd3c7" stroke="black" points="920.71,-122 917.71,-126 896.71,-126 893.71,-122 821.29,-122 821.29,-86 920.71,-86 920.71,-122"/>
<text text-anchor="middle" x="871" y="-99.8" font-family="Times,serif" font-size="14.00">LayoutModule</text>
</g>
<!-- LayoutModule&#45;&gt;SearchModule -->
<g id="edge4" class="edge">
<title>LayoutModule&#45;&gt;SearchModule</title>
<path fill="none" stroke="black" d="M871,-122.28C871,-143.32 871,-175 871,-175 871,-175 564.85,-175 564.85,-175"/>
<polygon fill="black" stroke="black" points="564.85,-171.5 554.85,-175 564.85,-178.5 564.85,-171.5"/>
</g>
<!-- SearchRoutingModule -->
<g id="node6" class="node">
<title>SearchRoutingModule</title>
<polygon fill="#8dd3c7" stroke="black" points="803.25,-122 800.25,-126 779.25,-126 776.25,-122 660.75,-122 660.75,-86 803.25,-86 803.25,-122"/>
<text text-anchor="middle" x="732" y="-99.8" font-family="Times,serif" font-size="14.00">SearchRoutingModule</text>
</g>
<!-- SearchRoutingModule&#45;&gt;SearchModule -->
<g id="edge5" class="edge">
<title>SearchRoutingModule&#45;&gt;SearchModule</title>
<path fill="none" stroke="black" d="M732,-122.02C732,-139.37 732,-163 732,-163 732,-163 564.76,-163 564.76,-163"/>
<polygon fill="black" stroke="black" points="564.76,-159.5 554.76,-163 564.76,-166.5 564.76,-159.5"/>
</g>
<!-- UserLayoutModule -->
<g id="node7" class="node">
<title>UserLayoutModule</title>
<polygon fill="#8dd3c7" stroke="black" points="642.63,-122 639.63,-126 618.63,-126 615.63,-122 517.37,-122 517.37,-86 642.63,-86 642.63,-122"/>
<text text-anchor="middle" x="580" y="-99.8" font-family="Times,serif" font-size="14.00">UserLayoutModule</text>
</g>
<!-- UserLayoutModule&#45;&gt;SearchModule -->
<g id="edge6" class="edge">
<title>UserLayoutModule&#45;&gt;SearchModule</title>
<path fill="none" stroke="black" d="M536,-122.11C536,-122.11 536,-140.99 536,-140.99"/>
<polygon fill="black" stroke="black" points="532.5,-140.99 536,-150.99 539.5,-140.99 532.5,-140.99"/>
</g>
</g>
</svg>
