<?xml version="1.0" encoding="UTF-8" standalone="no"?>
<!DOCTYPE svg PUBLIC "-//W3C//DTD SVG 1.1//EN"
 "http://www.w3.org/Graphics/SVG/1.1/DTD/svg11.dtd">
<!-- Generated by graphviz version 2.47.0 (20210316.0004)
 -->
<!-- Title: dependencies Pages: 1 -->
<svg width="504pt" height="211pt"
 viewBox="0.00 0.00 504.00 211.00" xmlns="http://www.w3.org/2000/svg" xmlns:xlink="http://www.w3.org/1999/xlink">
<g id="graph0" class="graph" transform="scale(1 1) rotate(0) translate(4 207)">
<title>dependencies</title>
<polygon fill="white" stroke="transparent" points="-4,4 -4,-207 500,-207 500,4 -4,4"/>
<text text-anchor="start" x="227.01" y="-42.4" font-family="Times-12" font-weight="bold" font-size="14.00">Legend</text>
<polygon fill="#ffffb3" stroke="transparent" points="14,-10 14,-30 34,-30 34,-10 14,-10"/>
<text text-anchor="start" x="37.63" y="-15.4" font-family="Times-12" font-size="14.00"> &#160;Declarations</text>
<polygon fill="#8dd3c7" stroke="transparent" points="127,-10 127,-30 147,-30 147,-10 127,-10"/>
<text text-anchor="start" x="150.73" y="-15.4" font-family="Times-12" font-size="14.00"> &#160;Module</text>
<polygon fill="#80b1d3" stroke="transparent" points="213,-10 213,-30 233,-30 233,-10 213,-10"/>
<text text-anchor="start" x="236.78" y="-15.4" font-family="Times-12" font-size="14.00"> &#160;Bootstrap</text>
<polygon fill="#fdb462" stroke="transparent" points="310,-10 310,-30 330,-30 330,-10 310,-10"/>
<text text-anchor="start" x="333.67" y="-15.4" font-family="Times-12" font-size="14.00"> &#160;Providers</text>
<polygon fill="#fb8072" stroke="transparent" points="406,-10 406,-30 426,-30 426,-10 406,-10"/>
<text text-anchor="start" x="429.73" y="-15.4" font-family="Times-12" font-size="14.00"> &#160;Exports</text>
<g id="clust1" class="cluster">
<title>cluster_NewsAccessModule</title>
<polygon fill="none" stroke="black" stroke-dasharray="1,5" points="101,-70 101,-195 395,-195 395,-70 101,-70"/>
</g>
<g id="clust6" class="cluster">
<title>cluster_NewsAccessModule_providers</title>
<polygon fill="none" stroke="black" points="109,-78 109,-130 387,-130 387,-78 109,-78"/>
</g>
<!-- NewsFacade -->
<g id="node1" class="node">
<title>NewsFacade</title>
<ellipse fill="#fdb462" stroke="black" cx="319" cy="-104" rx="60.23" ry="18"/>
<text text-anchor="middle" x="319" y="-99.8" font-family="Times,serif" font-size="14.00">NewsFacade</text>
</g>
<!-- NewsAccessModule -->
<g id="node3" class="node">
<title>NewsAccessModule</title>
<polygon fill="#8dd3c7" stroke="black" points="314.56,-187 311.56,-191 290.56,-191 287.56,-187 183.44,-187 183.44,-151 314.56,-151 314.56,-187"/>
<text text-anchor="middle" x="249" y="-164.8" font-family="Times,serif" font-size="14.00">NewsAccessModule</text>
</g>
<!-- NewsFacade&#45;&gt;NewsAccessModule -->
<g id="edge1" class="edge">
<title>NewsFacade&#45;&gt;NewsAccessModule</title>
<path fill="none" stroke="black" d="M286.58,-119.4C286.58,-119.4 286.58,-140.94 286.58,-140.94"/>
<polygon fill="black" stroke="black" points="283.08,-140.94 286.58,-150.94 290.08,-140.94 283.08,-140.94"/>
</g>
<!-- NewsService -->
<g id="node2" class="node">
<title>NewsService</title>
<ellipse fill="#fdb462" stroke="black" cx="179" cy="-104" rx="61.95" ry="18"/>
<text text-anchor="middle" x="179" y="-99.8" font-family="Times,serif" font-size="14.00">NewsService</text>
</g>
<!-- NewsService&#45;&gt;NewsAccessModule -->
<g id="edge2" class="edge">
<title>NewsService&#45;&gt;NewsAccessModule</title>
<path fill="none" stroke="black" d="M212.22,-119.4C212.22,-119.4 212.22,-140.94 212.22,-140.94"/>
<polygon fill="black" stroke="black" points="208.72,-140.94 212.22,-150.94 215.72,-140.94 208.72,-140.94"/>
</g>
</g>
</svg>
