<?xml version="1.0" encoding="UTF-8" standalone="no"?>
<!DOCTYPE svg PUBLIC "-//W3C//DTD SVG 1.1//EN"
 "http://www.w3.org/Graphics/SVG/1.1/DTD/svg11.dtd">
<!-- Generated by graphviz version 2.47.0 (20210316.0004)
 -->
<!-- Title: dependencies Pages: 1 -->
<svg width="860pt" height="284pt"
 viewBox="0.00 0.00 860.00 284.00" xmlns="http://www.w3.org/2000/svg" xmlns:xlink="http://www.w3.org/1999/xlink">
<g id="graph0" class="graph" transform="scale(1 1) rotate(0) translate(4 280)">
<title>dependencies</title>
<polygon fill="white" stroke="transparent" points="-4,4 -4,-280 856,-280 856,4 -4,4"/>
<text text-anchor="start" x="405.01" y="-42.4" font-family="Times-12" font-weight="bold" font-size="14.00">Legend</text>
<polygon fill="#ffffb3" stroke="transparent" points="192,-10 192,-30 212,-30 212,-10 192,-10"/>
<text text-anchor="start" x="215.63" y="-15.4" font-family="Times-12" font-size="14.00"> &#160;Declarations</text>
<polygon fill="#8dd3c7" stroke="transparent" points="305,-10 305,-30 325,-30 325,-10 305,-10"/>
<text text-anchor="start" x="328.73" y="-15.4" font-family="Times-12" font-size="14.00"> &#160;Module</text>
<polygon fill="#80b1d3" stroke="transparent" points="391,-10 391,-30 411,-30 411,-10 391,-10"/>
<text text-anchor="start" x="414.78" y="-15.4" font-family="Times-12" font-size="14.00"> &#160;Bootstrap</text>
<polygon fill="#fdb462" stroke="transparent" points="488,-10 488,-30 508,-30 508,-10 488,-10"/>
<text text-anchor="start" x="511.67" y="-15.4" font-family="Times-12" font-size="14.00"> &#160;Providers</text>
<polygon fill="#fb8072" stroke="transparent" points="584,-10 584,-30 604,-30 604,-10 584,-10"/>
<text text-anchor="start" x="607.73" y="-15.4" font-family="Times-12" font-size="14.00"> &#160;Exports</text>
<g id="clust1" class="cluster">
<title>cluster_SkeletonModule</title>
<polygon fill="none" stroke="black" stroke-dasharray="1,5" points="8,-70 8,-268 844,-268 844,-70 8,-70"/>
</g>
<g id="clust2" class="cluster">
<title>cluster_SkeletonModule_declarations</title>
<polygon fill="none" stroke="black" points="23,-78 23,-130 831,-130 831,-78 23,-78"/>
</g>
<g id="clust8" class="cluster">
<title>cluster_SkeletonModule_exports</title>
<polygon fill="none" stroke="black" points="16,-208 16,-260 836,-260 836,-208 16,-208"/>
</g>
<!-- ActivitySkeletonComponent -->
<g id="node1" class="node">
<title>ActivitySkeletonComponent</title>
<polygon fill="#ffffb3" stroke="black" points="823.21,-122 646.79,-122 646.79,-86 823.21,-86 823.21,-122"/>
<text text-anchor="middle" x="735" y="-99.8" font-family="Times,serif" font-size="14.00">ActivitySkeletonComponent</text>
</g>
<!-- SkeletonModule -->
<g id="node5" class="node">
<title>SkeletonModule</title>
<polygon fill="#8dd3c7" stroke="black" points="392.04,-187 389.04,-191 368.04,-191 365.04,-187 283.96,-187 283.96,-151 392.04,-151 392.04,-187"/>
<text text-anchor="middle" x="338" y="-164.8" font-family="Times,serif" font-size="14.00">SkeletonModule</text>
</g>
<!-- ActivitySkeletonComponent&#45;&gt;SkeletonModule -->
<g id="edge1" class="edge">
<title>ActivitySkeletonComponent&#45;&gt;SkeletonModule</title>
<path fill="none" stroke="black" d="M764.78,-122.27C764.78,-140.56 764.78,-166 764.78,-166 764.78,-166 402.05,-166 402.05,-166"/>
<polygon fill="black" stroke="black" points="402.05,-162.5 392.05,-166 402.05,-169.5 402.05,-162.5"/>
</g>
<!-- PostCardSkeletonComponent -->
<g id="node2" class="node">
<title>PostCardSkeletonComponent</title>
<polygon fill="#ffffb3" stroke="black" points="628.66,-122 447.34,-122 447.34,-86 628.66,-86 628.66,-122"/>
<text text-anchor="middle" x="538" y="-99.8" font-family="Times,serif" font-size="14.00">PostCardSkeletonComponent</text>
</g>
<!-- PostCardSkeletonComponent&#45;&gt;SkeletonModule -->
<g id="edge2" class="edge">
<title>PostCardSkeletonComponent&#45;&gt;SkeletonModule</title>
<path fill="none" stroke="black" d="M568.28,-122.01C568.28,-138.05 568.28,-159 568.28,-159 568.28,-159 402.28,-159 402.28,-159"/>
<polygon fill="black" stroke="black" points="402.28,-155.5 392.28,-159 402.28,-162.5 402.28,-155.5"/>
</g>
<!-- PostIndexSkeletonComponent -->
<g id="node3" class="node">
<title>PostIndexSkeletonComponent</title>
<polygon fill="#ffffb3" stroke="black" points="429.32,-122 242.68,-122 242.68,-86 429.32,-86 429.32,-122"/>
<text text-anchor="middle" x="336" y="-99.8" font-family="Times,serif" font-size="14.00">PostIndexSkeletonComponent</text>
</g>
<!-- PostIndexSkeletonComponent&#45;&gt;SkeletonModule -->
<g id="edge3" class="edge">
<title>PostIndexSkeletonComponent&#45;&gt;SkeletonModule</title>
<path fill="none" stroke="black" d="M338,-122.11C338,-122.11 338,-140.99 338,-140.99"/>
<polygon fill="black" stroke="black" points="334.5,-140.99 338,-150.99 341.5,-140.99 334.5,-140.99"/>
</g>
<!-- RecentPostSkeletonComponent -->
<g id="node4" class="node">
<title>RecentPostSkeletonComponent</title>
<polygon fill="#ffffb3" stroke="black" points="224.81,-122 31.19,-122 31.19,-86 224.81,-86 224.81,-122"/>
<text text-anchor="middle" x="128" y="-99.8" font-family="Times,serif" font-size="14.00">RecentPostSkeletonComponent</text>
</g>
<!-- RecentPostSkeletonComponent&#45;&gt;SkeletonModule -->
<g id="edge4" class="edge">
<title>RecentPostSkeletonComponent&#45;&gt;SkeletonModule</title>
<path fill="none" stroke="black" d="M157.39,-122.02C157.39,-139.37 157.39,-163 157.39,-163 157.39,-163 273.81,-163 273.81,-163"/>
<polygon fill="black" stroke="black" points="273.81,-166.5 283.81,-163 273.81,-159.5 273.81,-166.5"/>
</g>
<!-- ActivitySkeletonComponent  -->
<g id="node6" class="node">
<title>ActivitySkeletonComponent </title>
<polygon fill="#fb8072" stroke="black" points="827.71,-252 648.29,-252 648.29,-216 827.71,-216 827.71,-252"/>
<text text-anchor="middle" x="738" y="-229.8" font-family="Times,serif" font-size="14.00">ActivitySkeletonComponent </text>
</g>
<!-- SkeletonModule&#45;&gt;ActivitySkeletonComponent  -->
<g id="edge5" class="edge">
<title>SkeletonModule&#45;&gt;ActivitySkeletonComponent </title>
<path fill="none" stroke="black" stroke-dasharray="5,2" d="M392.37,-173C494.86,-173 706.47,-173 706.47,-173 706.47,-173 706.47,-205.7 706.47,-205.7"/>
<polygon fill="black" stroke="black" points="702.97,-205.7 706.47,-215.7 709.97,-205.7 702.97,-205.7"/>
</g>
<!-- PostCardSkeletonComponent  -->
<g id="node7" class="node">
<title>PostCardSkeletonComponent </title>
<polygon fill="#fb8072" stroke="black" points="630.66,-252 445.34,-252 445.34,-216 630.66,-216 630.66,-252"/>
<text text-anchor="middle" x="538" y="-229.8" font-family="Times,serif" font-size="14.00">PostCardSkeletonComponent </text>
</g>
<!-- SkeletonModule&#45;&gt;PostCardSkeletonComponent  -->
<g id="edge6" class="edge">
<title>SkeletonModule&#45;&gt;PostCardSkeletonComponent </title>
<path fill="none" stroke="black" stroke-dasharray="5,2" d="M392.17,-180C441.84,-180 507.72,-180 507.72,-180 507.72,-180 507.72,-205.72 507.72,-205.72"/>
<polygon fill="black" stroke="black" points="504.22,-205.72 507.72,-215.72 511.22,-205.72 504.22,-205.72"/>
</g>
<!-- PostIndexSkeletonComponent  -->
<g id="node8" class="node">
<title>PostIndexSkeletonComponent </title>
<polygon fill="#fb8072" stroke="black" points="427.82,-252 238.18,-252 238.18,-216 427.82,-216 427.82,-252"/>
<text text-anchor="middle" x="333" y="-229.8" font-family="Times,serif" font-size="14.00">PostIndexSkeletonComponent </text>
</g>
<!-- SkeletonModule&#45;&gt;PostIndexSkeletonComponent  -->
<g id="edge7" class="edge">
<title>SkeletonModule&#45;&gt;PostIndexSkeletonComponent </title>
<path fill="none" stroke="black" stroke-dasharray="5,2" d="M338,-187.11C338,-187.11 338,-205.99 338,-205.99"/>
<polygon fill="black" stroke="black" points="334.5,-205.99 338,-215.99 341.5,-205.99 334.5,-205.99"/>
</g>
<!-- RecentPostSkeletonComponent  -->
<g id="node9" class="node">
<title>RecentPostSkeletonComponent </title>
<polygon fill="#fb8072" stroke="black" points="220.31,-252 23.69,-252 23.69,-216 220.31,-216 220.31,-252"/>
<text text-anchor="middle" x="122" y="-229.8" font-family="Times,serif" font-size="14.00">RecentPostSkeletonComponent </text>
</g>
<!-- SkeletonModule&#45;&gt;RecentPostSkeletonComponent  -->
<g id="edge8" class="edge">
<title>SkeletonModule&#45;&gt;RecentPostSkeletonComponent </title>
<path fill="none" stroke="black" stroke-dasharray="5,2" d="M283.93,-175C212.15,-175 94.36,-175 94.36,-175 94.36,-175 94.36,-205.98 94.36,-205.98"/>
<polygon fill="black" stroke="black" points="90.86,-205.98 94.36,-215.98 97.86,-205.98 90.86,-205.98"/>
</g>
</g>
</svg>
