<?xml version="1.0" encoding="UTF-8" standalone="no"?>
<!DOCTYPE svg PUBLIC "-//W3C//DTD SVG 1.1//EN"
 "http://www.w3.org/Graphics/SVG/1.1/DTD/svg11.dtd">
<!-- Generated by graphviz version 2.47.0 (20210316.0004)
 -->
<!-- Title: dependencies Pages: 1 -->
<svg width="512pt" height="284pt"
 viewBox="0.00 0.00 512.00 284.00" xmlns="http://www.w3.org/2000/svg" xmlns:xlink="http://www.w3.org/1999/xlink">
<g id="graph0" class="graph" transform="scale(1 1) rotate(0) translate(4 280)">
<title>dependencies</title>
<polygon fill="white" stroke="transparent" points="-4,4 -4,-280 508,-280 508,4 -4,4"/>
<text text-anchor="start" x="231.01" y="-42.4" font-family="Times-12" font-weight="bold" font-size="14.00">Legend</text>
<polygon fill="#ffffb3" stroke="transparent" points="18,-10 18,-30 38,-30 38,-10 18,-10"/>
<text text-anchor="start" x="41.63" y="-15.4" font-family="Times-12" font-size="14.00"> &#160;Declarations</text>
<polygon fill="#8dd3c7" stroke="transparent" points="131,-10 131,-30 151,-30 151,-10 131,-10"/>
<text text-anchor="start" x="154.73" y="-15.4" font-family="Times-12" font-size="14.00"> &#160;Module</text>
<polygon fill="#80b1d3" stroke="transparent" points="217,-10 217,-30 237,-30 237,-10 217,-10"/>
<text text-anchor="start" x="240.78" y="-15.4" font-family="Times-12" font-size="14.00"> &#160;Bootstrap</text>
<polygon fill="#fdb462" stroke="transparent" points="314,-10 314,-30 334,-30 334,-10 314,-10"/>
<text text-anchor="start" x="337.67" y="-15.4" font-family="Times-12" font-size="14.00"> &#160;Providers</text>
<polygon fill="#fb8072" stroke="transparent" points="410,-10 410,-30 430,-30 430,-10 410,-10"/>
<text text-anchor="start" x="433.73" y="-15.4" font-family="Times-12" font-size="14.00"> &#160;Exports</text>
<g id="clust1" class="cluster">
<title>cluster_FooterModule</title>
<polygon fill="none" stroke="black" stroke-dasharray="1,5" points="8,-70 8,-268 496,-268 496,-70 8,-70"/>
</g>
<g id="clust7" class="cluster">
<title>cluster_FooterModule_exports</title>
<polygon fill="none" stroke="black" points="195,-208 195,-260 333,-260 333,-208 195,-208"/>
</g>
<g id="clust2" class="cluster">
<title>cluster_FooterModule_declarations</title>
<polygon fill="none" stroke="black" points="16,-78 16,-130 488,-130 488,-78 16,-78"/>
</g>
<!-- FooterComponent -->
<g id="node1" class="node">
<title>FooterComponent</title>
<polygon fill="#ffffb3" stroke="black" points="479.88,-122 362.12,-122 362.12,-86 479.88,-86 479.88,-122"/>
<text text-anchor="middle" x="421" y="-99.8" font-family="Times,serif" font-size="14.00">FooterComponent</text>
</g>
<!-- FooterModule -->
<g id="node4" class="node">
<title>FooterModule</title>
<polygon fill="#8dd3c7" stroke="black" points="312.1,-187 309.1,-191 288.1,-191 285.1,-187 215.9,-187 215.9,-151 312.1,-151 312.1,-187"/>
<text text-anchor="middle" x="264" y="-164.8" font-family="Times,serif" font-size="14.00">FooterModule</text>
</g>
<!-- FooterComponent&#45;&gt;FooterModule -->
<g id="edge1" class="edge">
<title>FooterComponent&#45;&gt;FooterModule</title>
<path fill="none" stroke="black" d="M421,-122.11C421,-141.34 421,-169 421,-169 421,-169 322.39,-169 322.39,-169"/>
<polygon fill="black" stroke="black" points="322.39,-165.5 312.39,-169 322.39,-172.5 322.39,-165.5"/>
</g>
<!-- FooterGalleryComponent -->
<g id="node2" class="node">
<title>FooterGalleryComponent</title>
<polygon fill="#ffffb3" stroke="black" points="343.86,-122 184.14,-122 184.14,-86 343.86,-86 343.86,-122"/>
<text text-anchor="middle" x="264" y="-99.8" font-family="Times,serif" font-size="14.00">FooterGalleryComponent</text>
</g>
<!-- FooterGalleryComponent&#45;&gt;FooterModule -->
<g id="edge2" class="edge">
<title>FooterGalleryComponent&#45;&gt;FooterModule</title>
<path fill="none" stroke="black" d="M264,-122.11C264,-122.11 264,-140.99 264,-140.99"/>
<polygon fill="black" stroke="black" points="260.5,-140.99 264,-150.99 267.5,-140.99 260.5,-140.99"/>
</g>
<!-- FooterNavComponent -->
<g id="node3" class="node">
<title>FooterNavComponent</title>
<polygon fill="#ffffb3" stroke="black" points="165.7,-122 24.3,-122 24.3,-86 165.7,-86 165.7,-122"/>
<text text-anchor="middle" x="95" y="-99.8" font-family="Times,serif" font-size="14.00">FooterNavComponent</text>
</g>
<!-- FooterNavComponent&#45;&gt;FooterModule -->
<g id="edge3" class="edge">
<title>FooterNavComponent&#45;&gt;FooterModule</title>
<path fill="none" stroke="black" d="M95,-122.11C95,-141.34 95,-169 95,-169 95,-169 205.57,-169 205.57,-169"/>
<polygon fill="black" stroke="black" points="205.57,-172.5 215.57,-169 205.57,-165.5 205.57,-172.5"/>
</g>
<!-- FooterComponent  -->
<g id="node5" class="node">
<title>FooterComponent </title>
<polygon fill="#fb8072" stroke="black" points="324.88,-252 203.12,-252 203.12,-216 324.88,-216 324.88,-252"/>
<text text-anchor="middle" x="264" y="-229.8" font-family="Times,serif" font-size="14.00">FooterComponent </text>
</g>
<!-- FooterModule&#45;&gt;FooterComponent  -->
<g id="edge4" class="edge">
<title>FooterModule&#45;&gt;FooterComponent </title>
<path fill="none" stroke="black" stroke-dasharray="5,2" d="M264,-187.11C264,-187.11 264,-205.99 264,-205.99"/>
<polygon fill="black" stroke="black" points="260.5,-205.99 264,-215.99 267.5,-205.99 260.5,-205.99"/>
</g>
</g>
</svg>
