<?xml version="1.0" encoding="UTF-8" standalone="no"?>
<!DOCTYPE svg PUBLIC "-//W3C//DTD SVG 1.1//EN"
 "http://www.w3.org/Graphics/SVG/1.1/DTD/svg11.dtd">
<!-- Generated by graphviz version 2.47.0 (20210316.0004)
 -->
<!-- Title: dependencies Pages: 1 -->
<svg width="516pt" height="284pt"
 viewBox="0.00 0.00 516.00 284.00" xmlns="http://www.w3.org/2000/svg" xmlns:xlink="http://www.w3.org/1999/xlink">
<g id="graph0" class="graph" transform="scale(1 1) rotate(0) translate(4 280)">
<title>dependencies</title>
<polygon fill="white" stroke="transparent" points="-4,4 -4,-280 512,-280 512,4 -4,4"/>
<text text-anchor="start" x="233.01" y="-42.4" font-family="Times-12" font-weight="bold" font-size="14.00">Legend</text>
<polygon fill="#ffffb3" stroke="transparent" points="20,-10 20,-30 40,-30 40,-10 20,-10"/>
<text text-anchor="start" x="43.63" y="-15.4" font-family="Times-12" font-size="14.00"> &#160;Declarations</text>
<polygon fill="#8dd3c7" stroke="transparent" points="133,-10 133,-30 153,-30 153,-10 133,-10"/>
<text text-anchor="start" x="156.73" y="-15.4" font-family="Times-12" font-size="14.00"> &#160;Module</text>
<polygon fill="#80b1d3" stroke="transparent" points="219,-10 219,-30 239,-30 239,-10 219,-10"/>
<text text-anchor="start" x="242.78" y="-15.4" font-family="Times-12" font-size="14.00"> &#160;Bootstrap</text>
<polygon fill="#fdb462" stroke="transparent" points="316,-10 316,-30 336,-30 336,-10 316,-10"/>
<text text-anchor="start" x="339.67" y="-15.4" font-family="Times-12" font-size="14.00"> &#160;Providers</text>
<polygon fill="#fb8072" stroke="transparent" points="412,-10 412,-30 432,-30 432,-10 412,-10"/>
<text text-anchor="start" x="435.73" y="-15.4" font-family="Times-12" font-size="14.00"> &#160;Exports</text>
<g id="clust1" class="cluster">
<title>cluster_PipesModule</title>
<polygon fill="none" stroke="black" stroke-dasharray="1,5" points="8,-70 8,-268 500,-268 500,-70 8,-70"/>
</g>
<g id="clust2" class="cluster">
<title>cluster_PipesModule_declarations</title>
<polygon fill="none" stroke="black" points="25,-78 25,-130 485,-130 485,-78 25,-78"/>
</g>
<g id="clust8" class="cluster">
<title>cluster_PipesModule_exports</title>
<polygon fill="none" stroke="black" points="16,-208 16,-260 492,-260 492,-208 16,-208"/>
</g>
<!-- DraftStatusPipe -->
<g id="node1" class="node">
<title>DraftStatusPipe</title>
<polygon fill="#ffffb3" stroke="black" points="477.14,-122 372.86,-122 372.86,-86 477.14,-86 477.14,-122"/>
<text text-anchor="middle" x="425" y="-99.8" font-family="Times,serif" font-size="14.00">DraftStatusPipe</text>
</g>
<!-- PipesModule -->
<g id="node5" class="node">
<title>PipesModule</title>
<polygon fill="#8dd3c7" stroke="black" points="263.88,-187 260.88,-191 239.88,-191 236.88,-187 174.12,-187 174.12,-151 263.88,-151 263.88,-187"/>
<text text-anchor="middle" x="219" y="-164.8" font-family="Times,serif" font-size="14.00">PipesModule</text>
</g>
<!-- DraftStatusPipe&#45;&gt;PipesModule -->
<g id="edge1" class="edge">
<title>DraftStatusPipe&#45;&gt;PipesModule</title>
<path fill="none" stroke="black" d="M443.52,-122.27C443.52,-140.56 443.52,-166 443.52,-166 443.52,-166 273.9,-166 273.9,-166"/>
<polygon fill="black" stroke="black" points="273.9,-162.5 263.9,-166 273.9,-169.5 273.9,-162.5"/>
</g>
<!-- ImagePipe -->
<g id="node2" class="node">
<title>ImagePipe</title>
<polygon fill="#ffffb3" stroke="black" points="354.87,-122 279.13,-122 279.13,-86 354.87,-86 354.87,-122"/>
<text text-anchor="middle" x="317" y="-99.8" font-family="Times,serif" font-size="14.00">ImagePipe</text>
</g>
<!-- ImagePipe&#45;&gt;PipesModule -->
<g id="edge2" class="edge">
<title>ImagePipe&#45;&gt;PipesModule</title>
<path fill="none" stroke="black" d="M329.64,-122.01C329.64,-138.05 329.64,-159 329.64,-159 329.64,-159 274,-159 274,-159"/>
<polygon fill="black" stroke="black" points="274,-155.5 264,-159 274,-162.5 274,-155.5"/>
</g>
<!-- SanitizerPipe -->
<g id="node3" class="node">
<title>SanitizerPipe</title>
<polygon fill="#ffffb3" stroke="black" points="261.15,-122 170.85,-122 170.85,-86 261.15,-86 261.15,-122"/>
<text text-anchor="middle" x="216" y="-99.8" font-family="Times,serif" font-size="14.00">SanitizerPipe</text>
</g>
<!-- SanitizerPipe&#45;&gt;PipesModule -->
<g id="edge3" class="edge">
<title>SanitizerPipe&#45;&gt;PipesModule</title>
<path fill="none" stroke="black" d="M217.69,-122.11C217.69,-122.11 217.69,-140.99 217.69,-140.99"/>
<polygon fill="black" stroke="black" points="214.19,-140.99 217.69,-150.99 221.19,-140.99 214.19,-140.99"/>
</g>
<!-- ShortMessagePipe -->
<g id="node4" class="node">
<title>ShortMessagePipe</title>
<polygon fill="#ffffb3" stroke="black" points="153.2,-122 32.8,-122 32.8,-86 153.2,-86 153.2,-122"/>
<text text-anchor="middle" x="93" y="-99.8" font-family="Times,serif" font-size="14.00">ShortMessagePipe</text>
</g>
<!-- ShortMessagePipe&#45;&gt;PipesModule -->
<g id="edge4" class="edge">
<title>ShortMessagePipe&#45;&gt;PipesModule</title>
<path fill="none" stroke="black" d="M109.53,-122.02C109.53,-139.37 109.53,-163 109.53,-163 109.53,-163 163.84,-163 163.84,-163"/>
<polygon fill="black" stroke="black" points="163.84,-166.5 173.84,-163 163.84,-159.5 163.84,-166.5"/>
</g>
<!-- DraftStatusPipe  -->
<g id="node6" class="node">
<title>DraftStatusPipe </title>
<polygon fill="#fb8072" stroke="black" points="484.14,-252 375.86,-252 375.86,-216 484.14,-216 484.14,-252"/>
<text text-anchor="middle" x="430" y="-229.8" font-family="Times,serif" font-size="14.00">DraftStatusPipe </text>
</g>
<!-- PipesModule&#45;&gt;DraftStatusPipe  -->
<g id="edge5" class="edge">
<title>PipesModule&#45;&gt;DraftStatusPipe </title>
<path fill="none" stroke="black" stroke-dasharray="5,2" d="M264.2,-173C320.6,-173 409.73,-173 409.73,-173 409.73,-173 409.73,-205.7 409.73,-205.7"/>
<polygon fill="black" stroke="black" points="406.23,-205.7 409.73,-215.7 413.23,-205.7 406.23,-205.7"/>
</g>
<!-- ImagePipe  -->
<g id="node7" class="node">
<title>ImagePipe </title>
<polygon fill="#fb8072" stroke="black" points="357.87,-252 278.13,-252 278.13,-216 357.87,-216 357.87,-252"/>
<text text-anchor="middle" x="318" y="-229.8" font-family="Times,serif" font-size="14.00">ImagePipe </text>
</g>
<!-- PipesModule&#45;&gt;ImagePipe  -->
<g id="edge6" class="edge">
<title>PipesModule&#45;&gt;ImagePipe </title>
<path fill="none" stroke="black" stroke-dasharray="5,2" d="M264.18,-180C284.65,-180 304.36,-180 304.36,-180 304.36,-180 304.36,-205.72 304.36,-205.72"/>
<polygon fill="black" stroke="black" points="300.86,-205.72 304.36,-215.72 307.86,-205.72 300.86,-205.72"/>
</g>
<!-- SanitizerPipe  -->
<g id="node8" class="node">
<title>SanitizerPipe </title>
<polygon fill="#fb8072" stroke="black" points="260.15,-252 165.85,-252 165.85,-216 260.15,-216 260.15,-252"/>
<text text-anchor="middle" x="213" y="-229.8" font-family="Times,serif" font-size="14.00">SanitizerPipe </text>
</g>
<!-- PipesModule&#45;&gt;SanitizerPipe  -->
<g id="edge7" class="edge">
<title>PipesModule&#45;&gt;SanitizerPipe </title>
<path fill="none" stroke="black" stroke-dasharray="5,2" d="M217.07,-187.11C217.07,-187.11 217.07,-205.99 217.07,-205.99"/>
<polygon fill="black" stroke="black" points="213.57,-205.99 217.07,-215.99 220.57,-205.99 213.57,-205.99"/>
</g>
<!-- ShortMessagePipe  -->
<g id="node9" class="node">
<title>ShortMessagePipe </title>
<polygon fill="#fb8072" stroke="black" points="147.7,-252 24.3,-252 24.3,-216 147.7,-216 147.7,-252"/>
<text text-anchor="middle" x="86" y="-229.8" font-family="Times,serif" font-size="14.00">ShortMessagePipe </text>
</g>
<!-- PipesModule&#45;&gt;ShortMessagePipe  -->
<g id="edge8" class="edge">
<title>PipesModule&#45;&gt;ShortMessagePipe </title>
<path fill="none" stroke="black" stroke-dasharray="5,2" d="M173.86,-175C130.4,-175 71.22,-175 71.22,-175 71.22,-175 71.22,-205.98 71.22,-205.98"/>
<polygon fill="black" stroke="black" points="67.72,-205.98 71.22,-215.98 74.72,-205.98 67.72,-205.98"/>
</g>
</g>
</svg>
