<?xml version="1.0" encoding="UTF-8" standalone="no"?>
<!DOCTYPE svg PUBLIC "-//W3C//DTD SVG 1.1//EN"
 "http://www.w3.org/Graphics/SVG/1.1/DTD/svg11.dtd">
<!-- Generated by graphviz version 2.47.0 (20210316.0004)
 -->
<!-- Title: dependencies Pages: 1 -->
<svg width="506pt" height="211pt"
 viewBox="0.00 0.00 506.00 211.00" xmlns="http://www.w3.org/2000/svg" xmlns:xlink="http://www.w3.org/1999/xlink">
<g id="graph0" class="graph" transform="scale(1 1) rotate(0) translate(4 207)">
<title>dependencies</title>
<polygon fill="white" stroke="transparent" points="-4,4 -4,-207 502,-207 502,4 -4,4"/>
<text text-anchor="start" x="228.01" y="-42.4" font-family="Times-12" font-weight="bold" font-size="14.00">Legend</text>
<polygon fill="#ffffb3" stroke="transparent" points="15,-10 15,-30 35,-30 35,-10 15,-10"/>
<text text-anchor="start" x="38.63" y="-15.4" font-family="Times-12" font-size="14.00"> &#160;Declarations</text>
<polygon fill="#8dd3c7" stroke="transparent" points="128,-10 128,-30 148,-30 148,-10 128,-10"/>
<text text-anchor="start" x="151.73" y="-15.4" font-family="Times-12" font-size="14.00"> &#160;Module</text>
<polygon fill="#80b1d3" stroke="transparent" points="214,-10 214,-30 234,-30 234,-10 214,-10"/>
<text text-anchor="start" x="237.78" y="-15.4" font-family="Times-12" font-size="14.00"> &#160;Bootstrap</text>
<polygon fill="#fdb462" stroke="transparent" points="311,-10 311,-30 331,-30 331,-10 311,-10"/>
<text text-anchor="start" x="334.67" y="-15.4" font-family="Times-12" font-size="14.00"> &#160;Providers</text>
<polygon fill="#fb8072" stroke="transparent" points="407,-10 407,-30 427,-30 427,-10 407,-10"/>
<text text-anchor="start" x="430.73" y="-15.4" font-family="Times-12" font-size="14.00"> &#160;Exports</text>
<g id="clust1" class="cluster">
<title>cluster_ConditionsModule</title>
<polygon fill="none" stroke="black" stroke-dasharray="1,5" points="8,-70 8,-195 490,-195 490,-70 8,-70"/>
</g>
<g id="clust4" class="cluster">
<title>cluster_ConditionsModule_imports</title>
<polygon fill="none" stroke="black" points="182,-78 182,-130 482,-130 482,-78 182,-78"/>
</g>
<g id="clust2" class="cluster">
<title>cluster_ConditionsModule_declarations</title>
<polygon fill="none" stroke="black" points="16,-78 16,-130 174,-130 174,-78 16,-78"/>
</g>
<!-- ConditionsComponent -->
<g id="node1" class="node">
<title>ConditionsComponent</title>
<polygon fill="#ffffb3" stroke="black" points="166.29,-122 23.71,-122 23.71,-86 166.29,-86 166.29,-122"/>
<text text-anchor="middle" x="95" y="-99.8" font-family="Times,serif" font-size="14.00">ConditionsComponent</text>
</g>
<!-- ConditionsModule -->
<g id="node2" class="node">
<title>ConditionsModule</title>
<polygon fill="#8dd3c7" stroke="black" points="300.5,-187 297.5,-191 276.5,-191 273.5,-187 179.5,-187 179.5,-151 300.5,-151 300.5,-187"/>
<text text-anchor="middle" x="240" y="-164.8" font-family="Times,serif" font-size="14.00">ConditionsModule</text>
</g>
<!-- ConditionsComponent&#45;&gt;ConditionsModule -->
<g id="edge1" class="edge">
<title>ConditionsComponent&#45;&gt;ConditionsModule</title>
<path fill="none" stroke="black" d="M166.31,-104C177.23,-104 184.95,-104 184.95,-104 184.95,-104 184.95,-140.89 184.95,-140.89"/>
<polygon fill="black" stroke="black" points="181.45,-140.89 184.95,-150.89 188.45,-140.89 181.45,-140.89"/>
</g>
<!-- ConditionsRoutingModule -->
<g id="node3" class="node">
<title>ConditionsRoutingModule</title>
<polygon fill="#8dd3c7" stroke="black" points="474.12,-122 471.12,-126 450.12,-126 447.12,-122 307.88,-122 307.88,-86 474.12,-86 474.12,-122"/>
<text text-anchor="middle" x="391" y="-99.8" font-family="Times,serif" font-size="14.00">ConditionsRoutingModule</text>
</g>
<!-- ConditionsRoutingModule&#45;&gt;ConditionsModule -->
<g id="edge2" class="edge">
<title>ConditionsRoutingModule&#45;&gt;ConditionsModule</title>
<path fill="none" stroke="black" d="M307.6,-104C299.98,-104 295.05,-104 295.05,-104 295.05,-104 295.05,-140.89 295.05,-140.89"/>
<polygon fill="black" stroke="black" points="291.55,-140.89 295.05,-150.89 298.55,-140.89 291.55,-140.89"/>
</g>
<!-- LayoutModule -->
<g id="node4" class="node">
<title>LayoutModule</title>
<polygon fill="#8dd3c7" stroke="black" points="289.71,-122 286.71,-126 265.71,-126 262.71,-122 190.29,-122 190.29,-86 289.71,-86 289.71,-122"/>
<text text-anchor="middle" x="240" y="-99.8" font-family="Times,serif" font-size="14.00">LayoutModule</text>
</g>
<!-- LayoutModule&#45;&gt;ConditionsModule -->
<g id="edge3" class="edge">
<title>LayoutModule&#45;&gt;ConditionsModule</title>
<path fill="none" stroke="black" d="M240,-122.11C240,-122.11 240,-140.99 240,-140.99"/>
<polygon fill="black" stroke="black" points="236.5,-140.99 240,-150.99 243.5,-140.99 236.5,-140.99"/>
</g>
</g>
</svg>
