<?xml version="1.0" encoding="UTF-8" standalone="no"?>
<!DOCTYPE svg PUBLIC "-//W3C//DTD SVG 1.1//EN"
 "http://www.w3.org/Graphics/SVG/1.1/DTD/svg11.dtd">
<!-- Generated by graphviz version 2.47.0 (20210316.0004)
 -->
<!-- Title: dependencies Pages: 1 -->
<svg width="2260pt" height="284pt"
 viewBox="0.00 0.00 2260.00 284.00" xmlns="http://www.w3.org/2000/svg" xmlns:xlink="http://www.w3.org/1999/xlink">
<g id="graph0" class="graph" transform="scale(1 1) rotate(0) translate(4 280)">
<title>dependencies</title>
<polygon fill="white" stroke="transparent" points="-4,4 -4,-280 2256,-280 2256,4 -4,4"/>
<text text-anchor="start" x="1105.01" y="-42.4" font-family="Times-12" font-weight="bold" font-size="14.00">Legend</text>
<polygon fill="#ffffb3" stroke="transparent" points="892,-10 892,-30 912,-30 912,-10 892,-10"/>
<text text-anchor="start" x="915.63" y="-15.4" font-family="Times-12" font-size="14.00"> &#160;Declarations</text>
<polygon fill="#8dd3c7" stroke="transparent" points="1005,-10 1005,-30 1025,-30 1025,-10 1005,-10"/>
<text text-anchor="start" x="1028.73" y="-15.4" font-family="Times-12" font-size="14.00"> &#160;Module</text>
<polygon fill="#80b1d3" stroke="transparent" points="1091,-10 1091,-30 1111,-30 1111,-10 1091,-10"/>
<text text-anchor="start" x="1114.78" y="-15.4" font-family="Times-12" font-size="14.00"> &#160;Bootstrap</text>
<polygon fill="#fdb462" stroke="transparent" points="1188,-10 1188,-30 1208,-30 1208,-10 1188,-10"/>
<text text-anchor="start" x="1211.67" y="-15.4" font-family="Times-12" font-size="14.00"> &#160;Providers</text>
<polygon fill="#fb8072" stroke="transparent" points="1284,-10 1284,-30 1304,-30 1304,-10 1284,-10"/>
<text text-anchor="start" x="1307.73" y="-15.4" font-family="Times-12" font-size="14.00"> &#160;Exports</text>
<g id="clust1" class="cluster">
<title>cluster_LayoutModule</title>
<polygon fill="none" stroke="black" stroke-dasharray="1,5" points="8,-70 8,-268 2244,-268 2244,-70 8,-70"/>
</g>
<g id="clust13" class="cluster">
<title>cluster_LayoutModule_providers</title>
<polygon fill="none" stroke="black" points="2096,-78 2096,-130 2236,-130 2236,-78 2096,-78"/>
</g>
<g id="clust10" class="cluster">
<title>cluster_LayoutModule_imports</title>
<polygon fill="none" stroke="black" points="1087,-78 1087,-130 2088,-130 2088,-78 1087,-78"/>
</g>
<g id="clust11" class="cluster">
<title>cluster_LayoutModule_exports</title>
<polygon fill="none" stroke="black" points="403,-208 403,-260 1959,-260 1959,-208 403,-208"/>
</g>
<g id="clust2" class="cluster">
<title>cluster_LayoutModule_declarations</title>
<polygon fill="none" stroke="black" points="16,-78 16,-130 1079,-130 1079,-78 16,-78"/>
</g>
<!-- ActionBarComponent -->
<g id="node1" class="node">
<title>ActionBarComponent</title>
<polygon fill="#ffffb3" stroke="black" points="1070.65,-122 931.35,-122 931.35,-86 1070.65,-86 1070.65,-122"/>
<text text-anchor="middle" x="1001" y="-99.8" font-family="Times,serif" font-size="14.00">ActionBarComponent</text>
</g>
<!-- LayoutModule -->
<g id="node8" class="node">
<title>LayoutModule</title>
<polygon fill="#8dd3c7" stroke="black" points="1258.71,-187 1255.71,-191 1234.71,-191 1231.71,-187 1159.29,-187 1159.29,-151 1258.71,-151 1258.71,-187"/>
<text text-anchor="middle" x="1209" y="-164.8" font-family="Times,serif" font-size="14.00">LayoutModule</text>
</g>
<!-- ActionBarComponent&#45;&gt;LayoutModule -->
<g id="edge1" class="edge">
<title>ActionBarComponent&#45;&gt;LayoutModule</title>
<path fill="none" stroke="black" d="M1036.21,-122.05C1036.21,-136.37 1036.21,-154 1036.21,-154 1036.21,-154 1149.02,-154 1149.02,-154"/>
<polygon fill="black" stroke="black" points="1149.02,-157.5 1159.02,-154 1149.02,-150.5 1149.02,-157.5"/>
</g>
<!-- MinWidthComponent -->
<g id="node2" class="node">
<title>MinWidthComponent</title>
<polygon fill="#ffffb3" stroke="black" points="912.66,-122 773.34,-122 773.34,-86 912.66,-86 912.66,-122"/>
<text text-anchor="middle" x="843" y="-99.8" font-family="Times,serif" font-size="14.00">MinWidthComponent</text>
</g>
<!-- MinWidthComponent&#45;&gt;LayoutModule -->
<g id="edge2" class="edge">
<title>MinWidthComponent&#45;&gt;LayoutModule</title>
<path fill="none" stroke="black" d="M884.71,-122.24C884.71,-137.57 884.71,-157 884.71,-157 884.71,-157 1149.39,-157 1149.39,-157"/>
<polygon fill="black" stroke="black" points="1149.39,-160.5 1159.39,-157 1149.39,-153.5 1149.39,-160.5"/>
</g>
<!-- NavbarComponent -->
<g id="node3" class="node">
<title>NavbarComponent</title>
<polygon fill="#ffffb3" stroke="black" points="755.03,-122 632.97,-122 632.97,-86 755.03,-86 755.03,-122"/>
<text text-anchor="middle" x="694" y="-99.8" font-family="Times,serif" font-size="14.00">NavbarComponent</text>
</g>
<!-- NavbarComponent&#45;&gt;LayoutModule -->
<g id="edge3" class="edge">
<title>NavbarComponent&#45;&gt;LayoutModule</title>
<path fill="none" stroke="black" d="M733.23,-122.03C733.23,-138.4 733.23,-160 733.23,-160 733.23,-160 1148.98,-160 1148.98,-160"/>
<polygon fill="black" stroke="black" points="1148.98,-163.5 1158.98,-160 1148.98,-156.5 1148.98,-163.5"/>
</g>
<!-- SearchBarComponent -->
<g id="node4" class="node">
<title>SearchBarComponent</title>
<polygon fill="#ffffb3" stroke="black" points="614.63,-122 475.37,-122 475.37,-86 614.63,-86 614.63,-122"/>
<text text-anchor="middle" x="545" y="-99.8" font-family="Times,serif" font-size="14.00">SearchBarComponent</text>
</g>
<!-- SearchBarComponent&#45;&gt;LayoutModule -->
<g id="edge4" class="edge">
<title>SearchBarComponent&#45;&gt;LayoutModule</title>
<path fill="none" stroke="black" d="M598.59,-122.02C598.59,-139.37 598.59,-163 598.59,-163 598.59,-163 1149.31,-163 1149.31,-163"/>
<polygon fill="black" stroke="black" points="1149.31,-166.5 1159.31,-163 1149.31,-159.5 1149.31,-166.5"/>
</g>
<!-- SectionComponent -->
<g id="node5" class="node">
<title>SectionComponent</title>
<polygon fill="#ffffb3" stroke="black" points="457.83,-122 334.17,-122 334.17,-86 457.83,-86 457.83,-122"/>
<text text-anchor="middle" x="396" y="-99.8" font-family="Times,serif" font-size="14.00">SectionComponent</text>
</g>
<!-- SectionComponent&#45;&gt;LayoutModule -->
<g id="edge5" class="edge">
<title>SectionComponent&#45;&gt;LayoutModule</title>
<path fill="none" stroke="black" d="M434.51,-122.3C434.51,-140.27 434.51,-165 434.51,-165 434.51,-165 1149.37,-165 1149.37,-165"/>
<polygon fill="black" stroke="black" points="1149.37,-168.5 1159.37,-165 1149.37,-161.5 1149.37,-168.5"/>
</g>
<!-- SidebarComponent -->
<g id="node6" class="node">
<title>SidebarComponent</title>
<polygon fill="#ffffb3" stroke="black" points="316.1,-122 191.9,-122 191.9,-86 316.1,-86 316.1,-122"/>
<text text-anchor="middle" x="254" y="-99.8" font-family="Times,serif" font-size="14.00">SidebarComponent</text>
</g>
<!-- SidebarComponent&#45;&gt;LayoutModule -->
<g id="edge6" class="edge">
<title>SidebarComponent&#45;&gt;LayoutModule</title>
<path fill="none" stroke="black" d="M254,-122.17C254,-141.09 254,-168 254,-168 254,-168 1149.33,-168 1149.33,-168"/>
<polygon fill="black" stroke="black" points="1149.33,-171.5 1159.33,-168 1149.33,-164.5 1149.33,-171.5"/>
</g>
<!-- StickyAsideComponent -->
<g id="node7" class="node">
<title>StickyAsideComponent</title>
<polygon fill="#ffffb3" stroke="black" points="173.77,-122 24.23,-122 24.23,-86 173.77,-86 173.77,-122"/>
<text text-anchor="middle" x="99" y="-99.8" font-family="Times,serif" font-size="14.00">StickyAsideComponent</text>
</g>
<!-- StickyAsideComponent&#45;&gt;LayoutModule -->
<g id="edge7" class="edge">
<title>StickyAsideComponent&#45;&gt;LayoutModule</title>
<path fill="none" stroke="black" d="M99,-122.31C99,-142.15 99,-171 99,-171 99,-171 1149.15,-171 1149.15,-171"/>
<polygon fill="black" stroke="black" points="1149.15,-174.5 1159.15,-171 1149.15,-167.5 1149.15,-174.5"/>
</g>
<!-- ActionBarComponent  -->
<g id="node17" class="node">
<title>ActionBarComponent </title>
<polygon fill="#fb8072" stroke="black" points="1950.65,-252 1807.35,-252 1807.35,-216 1950.65,-216 1950.65,-252"/>
<text text-anchor="middle" x="1879" y="-229.8" font-family="Times,serif" font-size="14.00">ActionBarComponent </text>
</g>
<!-- LayoutModule&#45;&gt;ActionBarComponent  -->
<g id="edge16" class="edge">
<title>LayoutModule&#45;&gt;ActionBarComponent </title>
<path fill="none" stroke="black" stroke-dasharray="5,2" d="M1258.79,-174C1403.56,-174 1814.24,-174 1814.24,-174 1814.24,-174 1814.24,-206 1814.24,-206"/>
<polygon fill="black" stroke="black" points="1810.74,-206 1814.24,-216 1817.74,-206 1810.74,-206"/>
</g>
<!-- BoxesModule  -->
<g id="node18" class="node">
<title>BoxesModule </title>
<polygon fill="#fb8072" stroke="black" points="1789.05,-252 1690.95,-252 1690.95,-216 1789.05,-216 1789.05,-252"/>
<text text-anchor="middle" x="1740" y="-229.8" font-family="Times,serif" font-size="14.00">BoxesModule </text>
</g>
<!-- LayoutModule&#45;&gt;BoxesModule  -->
<g id="edge17" class="edge">
<title>LayoutModule&#45;&gt;BoxesModule </title>
<path fill="none" stroke="black" stroke-dasharray="5,2" d="M1258.68,-176C1383.25,-176 1698.98,-176 1698.98,-176 1698.98,-176 1698.98,-205.97 1698.98,-205.97"/>
<polygon fill="black" stroke="black" points="1695.48,-205.97 1698.98,-215.97 1702.48,-205.97 1695.48,-205.97"/>
</g>
<!-- FooterModule  -->
<g id="node19" class="node">
<title>FooterModule </title>
<polygon fill="#fb8072" stroke="black" points="1672.6,-252 1573.4,-252 1573.4,-216 1672.6,-216 1672.6,-252"/>
<text text-anchor="middle" x="1623" y="-229.8" font-family="Times,serif" font-size="14.00">FooterModule </text>
</g>
<!-- LayoutModule&#45;&gt;FooterModule  -->
<g id="edge18" class="edge">
<title>LayoutModule&#45;&gt;FooterModule </title>
<path fill="none" stroke="black" stroke-dasharray="5,2" d="M1258.8,-179C1360.2,-179 1581.12,-179 1581.12,-179 1581.12,-179 1581.12,-205.99 1581.12,-205.99"/>
<polygon fill="black" stroke="black" points="1577.62,-205.99 1581.12,-215.99 1584.62,-205.99 1577.62,-205.99"/>
</g>
<!-- HeaderModule  -->
<g id="node20" class="node">
<title>HeaderModule </title>
<polygon fill="#fb8072" stroke="black" points="1554.96,-252 1451.04,-252 1451.04,-216 1554.96,-216 1554.96,-252"/>
<text text-anchor="middle" x="1503" y="-229.8" font-family="Times,serif" font-size="14.00">HeaderModule </text>
</g>
<!-- LayoutModule&#45;&gt;HeaderModule  -->
<g id="edge19" class="edge">
<title>LayoutModule&#45;&gt;HeaderModule </title>
<path fill="none" stroke="black" stroke-dasharray="5,2" d="M1258.68,-182C1330.8,-182 1455.97,-182 1455.97,-182 1455.97,-182 1455.97,-205.81 1455.97,-205.81"/>
<polygon fill="black" stroke="black" points="1452.47,-205.81 1455.97,-215.81 1459.47,-205.81 1452.47,-205.81"/>
</g>
<!-- MinWidthComponent  -->
<g id="node21" class="node">
<title>MinWidthComponent </title>
<polygon fill="#fb8072" stroke="black" points="1433.66,-252 1290.34,-252 1290.34,-216 1433.66,-216 1433.66,-252"/>
<text text-anchor="middle" x="1362" y="-229.8" font-family="Times,serif" font-size="14.00">MinWidthComponent </text>
</g>
<!-- LayoutModule&#45;&gt;MinWidthComponent  -->
<g id="edge20" class="edge">
<title>LayoutModule&#45;&gt;MinWidthComponent </title>
<path fill="none" stroke="black" stroke-dasharray="5,2" d="M1258.87,-185C1282.15,-185 1304.81,-185 1304.81,-185 1304.81,-185 1304.81,-205.75 1304.81,-205.75"/>
<polygon fill="black" stroke="black" points="1301.31,-205.75 1304.81,-215.75 1308.31,-205.75 1301.31,-205.75"/>
</g>
<!-- NavbarComponent  -->
<g id="node22" class="node">
<title>NavbarComponent </title>
<polygon fill="#fb8072" stroke="black" points="1272.03,-252 1145.97,-252 1145.97,-216 1272.03,-216 1272.03,-252"/>
<text text-anchor="middle" x="1209" y="-229.8" font-family="Times,serif" font-size="14.00">NavbarComponent </text>
</g>
<!-- LayoutModule&#45;&gt;NavbarComponent  -->
<g id="edge21" class="edge">
<title>LayoutModule&#45;&gt;NavbarComponent </title>
<path fill="none" stroke="black" stroke-dasharray="5,2" d="M1209,-187.11C1209,-187.11 1209,-205.99 1209,-205.99"/>
<polygon fill="black" stroke="black" points="1205.5,-205.99 1209,-215.99 1212.5,-205.99 1205.5,-205.99"/>
</g>
<!-- PostLayoutModule  -->
<g id="node23" class="node">
<title>PostLayoutModule </title>
<polygon fill="#fb8072" stroke="black" points="1128.33,-252 1001.67,-252 1001.67,-216 1128.33,-216 1128.33,-252"/>
<text text-anchor="middle" x="1065" y="-229.8" font-family="Times,serif" font-size="14.00">PostLayoutModule </text>
</g>
<!-- LayoutModule&#45;&gt;PostLayoutModule  -->
<g id="edge22" class="edge">
<title>LayoutModule&#45;&gt;PostLayoutModule </title>
<path fill="none" stroke="black" stroke-dasharray="5,2" d="M1159.24,-185C1135.32,-185 1111.76,-185 1111.76,-185 1111.76,-185 1111.76,-205.75 1111.76,-205.75"/>
<polygon fill="black" stroke="black" points="1108.26,-205.75 1111.76,-215.75 1115.26,-205.75 1108.26,-205.75"/>
</g>
<!-- SectionComponent  -->
<g id="node24" class="node">
<title>SectionComponent </title>
<polygon fill="#fb8072" stroke="black" points="983.33,-252 856.67,-252 856.67,-216 983.33,-216 983.33,-252"/>
<text text-anchor="middle" x="920" y="-229.8" font-family="Times,serif" font-size="14.00">SectionComponent </text>
</g>
<!-- LayoutModule&#45;&gt;SectionComponent  -->
<g id="edge23" class="edge">
<title>LayoutModule&#45;&gt;SectionComponent </title>
<path fill="none" stroke="black" stroke-dasharray="5,2" d="M1159.27,-182C1085.92,-182 957.29,-182 957.29,-182 957.29,-182 957.29,-205.81 957.29,-205.81"/>
<polygon fill="black" stroke="black" points="953.79,-205.81 957.29,-215.81 960.79,-205.81 953.79,-205.81"/>
</g>
<!-- SidebarComponent  -->
<g id="node25" class="node">
<title>SidebarComponent </title>
<polygon fill="#fb8072" stroke="black" points="838.6,-252 711.4,-252 711.4,-216 838.6,-216 838.6,-252"/>
<text text-anchor="middle" x="775" y="-229.8" font-family="Times,serif" font-size="14.00">SidebarComponent </text>
</g>
<!-- LayoutModule&#45;&gt;SidebarComponent  -->
<g id="edge24" class="edge">
<title>LayoutModule&#45;&gt;SidebarComponent </title>
<path fill="none" stroke="black" stroke-dasharray="5,2" d="M1159.18,-179C1051.35,-179 805.98,-179 805.98,-179 805.98,-179 805.98,-205.99 805.98,-205.99"/>
<polygon fill="black" stroke="black" points="802.48,-205.99 805.98,-215.99 809.48,-205.99 802.48,-205.99"/>
</g>
<!-- SnippetsModule  -->
<g id="node26" class="node">
<title>SnippetsModule </title>
<polygon fill="#fb8072" stroke="black" points="693.77,-252 582.23,-252 582.23,-216 693.77,-216 693.77,-252"/>
<text text-anchor="middle" x="638" y="-229.8" font-family="Times,serif" font-size="14.00">SnippetsModule </text>
</g>
<!-- LayoutModule&#45;&gt;SnippetsModule  -->
<g id="edge25" class="edge">
<title>LayoutModule&#45;&gt;SnippetsModule </title>
<path fill="none" stroke="black" stroke-dasharray="5,2" d="M1159.12,-176C1024.38,-176 663.19,-176 663.19,-176 663.19,-176 663.19,-205.97 663.19,-205.97"/>
<polygon fill="black" stroke="black" points="659.69,-205.97 663.19,-215.97 666.69,-205.97 659.69,-205.97"/>
</g>
<!-- StickyAsideComponent  -->
<g id="node27" class="node">
<title>StickyAsideComponent </title>
<polygon fill="#fb8072" stroke="black" points="564.77,-252 411.23,-252 411.23,-216 564.77,-216 564.77,-252"/>
<text text-anchor="middle" x="488" y="-229.8" font-family="Times,serif" font-size="14.00">StickyAsideComponent </text>
</g>
<!-- LayoutModule&#45;&gt;StickyAsideComponent  -->
<g id="edge26" class="edge">
<title>LayoutModule&#45;&gt;StickyAsideComponent </title>
<path fill="none" stroke="black" stroke-dasharray="5,2" d="M1159.17,-174C1000.88,-174 519.91,-174 519.91,-174 519.91,-174 519.91,-206 519.91,-206"/>
<polygon fill="black" stroke="black" points="516.41,-206 519.91,-216 523.41,-206 516.41,-206"/>
</g>
<!-- BoxesModule -->
<g id="node9" class="node">
<title>BoxesModule</title>
<polygon fill="#8dd3c7" stroke="black" points="2080.05,-122 2077.05,-126 2056.05,-126 2053.05,-122 1985.95,-122 1985.95,-86 2080.05,-86 2080.05,-122"/>
<text text-anchor="middle" x="2033" y="-99.8" font-family="Times,serif" font-size="14.00">BoxesModule</text>
</g>
<!-- BoxesModule&#45;&gt;LayoutModule -->
<g id="edge8" class="edge">
<title>BoxesModule&#45;&gt;LayoutModule</title>
<path fill="none" stroke="black" d="M2033,-122.17C2033,-141.09 2033,-168 2033,-168 2033,-168 1268.69,-168 1268.69,-168"/>
<polygon fill="black" stroke="black" points="1268.69,-164.5 1258.69,-168 1268.69,-171.5 1268.69,-164.5"/>
</g>
<!-- DraftLayoutModule -->
<g id="node10" class="node">
<title>DraftLayoutModule</title>
<polygon fill="#8dd3c7" stroke="black" points="1967.24,-122 1964.24,-126 1943.24,-126 1940.24,-122 1838.76,-122 1838.76,-86 1967.24,-86 1967.24,-122"/>
<text text-anchor="middle" x="1903" y="-99.8" font-family="Times,serif" font-size="14.00">DraftLayoutModule</text>
</g>
<!-- DraftLayoutModule&#45;&gt;LayoutModule -->
<g id="edge9" class="edge">
<title>DraftLayoutModule&#45;&gt;LayoutModule</title>
<path fill="none" stroke="black" d="M1894.6,-122.3C1894.6,-140.27 1894.6,-165 1894.6,-165 1894.6,-165 1268.86,-165 1268.86,-165"/>
<polygon fill="black" stroke="black" points="1268.86,-161.5 1258.86,-165 1268.86,-168.5 1268.86,-161.5"/>
</g>
<!-- FooterModule -->
<g id="node11" class="node">
<title>FooterModule</title>
<polygon fill="#8dd3c7" stroke="black" points="1821.1,-122 1818.1,-126 1797.1,-126 1794.1,-122 1724.9,-122 1724.9,-86 1821.1,-86 1821.1,-122"/>
<text text-anchor="middle" x="1773" y="-99.8" font-family="Times,serif" font-size="14.00">FooterModule</text>
</g>
<!-- FooterModule&#45;&gt;LayoutModule -->
<g id="edge10" class="edge">
<title>FooterModule&#45;&gt;LayoutModule</title>
<path fill="none" stroke="black" d="M1756.99,-122.02C1756.99,-139.37 1756.99,-163 1756.99,-163 1756.99,-163 1269.08,-163 1269.08,-163"/>
<polygon fill="black" stroke="black" points="1269.08,-159.5 1259.08,-163 1269.08,-166.5 1269.08,-159.5"/>
</g>
<!-- HeaderModule -->
<g id="node12" class="node">
<title>HeaderModule</title>
<polygon fill="#8dd3c7" stroke="black" points="1706.96,-122 1703.96,-126 1682.96,-126 1679.96,-122 1607.04,-122 1607.04,-86 1706.96,-86 1706.96,-122"/>
<text text-anchor="middle" x="1657" y="-99.8" font-family="Times,serif" font-size="14.00">HeaderModule</text>
</g>
<!-- HeaderModule&#45;&gt;LayoutModule -->
<g id="edge11" class="edge">
<title>HeaderModule&#45;&gt;LayoutModule</title>
<path fill="none" stroke="black" d="M1639.91,-122.03C1639.91,-138.4 1639.91,-160 1639.91,-160 1639.91,-160 1268.85,-160 1268.85,-160"/>
<polygon fill="black" stroke="black" points="1268.85,-156.5 1258.85,-160 1268.85,-163.5 1268.85,-156.5"/>
</g>
<!-- OverlaysModule -->
<g id="node13" class="node">
<title>OverlaysModule</title>
<polygon fill="#8dd3c7" stroke="black" points="1589.08,-122 1586.08,-126 1565.08,-126 1562.08,-122 1478.92,-122 1478.92,-86 1589.08,-86 1589.08,-122"/>
<text text-anchor="middle" x="1534" y="-99.8" font-family="Times,serif" font-size="14.00">OverlaysModule</text>
</g>
<!-- OverlaysModule&#45;&gt;LayoutModule -->
<g id="edge12" class="edge">
<title>OverlaysModule&#45;&gt;LayoutModule</title>
<path fill="none" stroke="black" d="M1516.84,-122.24C1516.84,-137.57 1516.84,-157 1516.84,-157 1516.84,-157 1268.8,-157 1268.8,-157"/>
<polygon fill="black" stroke="black" points="1268.8,-153.5 1258.8,-157 1268.8,-160.5 1268.8,-153.5"/>
</g>
<!-- PostLayoutModule -->
<g id="node14" class="node">
<title>PostLayoutModule</title>
<polygon fill="#8dd3c7" stroke="black" points="1460.83,-122 1457.83,-126 1436.83,-126 1433.83,-122 1337.17,-122 1337.17,-86 1460.83,-86 1460.83,-122"/>
<text text-anchor="middle" x="1399" y="-99.8" font-family="Times,serif" font-size="14.00">PostLayoutModule</text>
</g>
<!-- PostLayoutModule&#45;&gt;LayoutModule -->
<g id="edge13" class="edge">
<title>PostLayoutModule&#45;&gt;LayoutModule</title>
<path fill="none" stroke="black" d="M1385.46,-122.05C1385.46,-136.37 1385.46,-154 1385.46,-154 1385.46,-154 1268.62,-154 1268.62,-154"/>
<polygon fill="black" stroke="black" points="1268.62,-150.5 1258.62,-154 1268.62,-157.5 1268.62,-150.5"/>
</g>
<!-- SharedModule -->
<g id="node15" class="node">
<title>SharedModule</title>
<polygon fill="#8dd3c7" stroke="black" points="1319.42,-122 1316.42,-126 1295.42,-126 1292.42,-122 1220.58,-122 1220.58,-86 1319.42,-86 1319.42,-122"/>
<text text-anchor="middle" x="1270" y="-99.8" font-family="Times,serif" font-size="14.00">SharedModule</text>
</g>
<!-- SharedModule&#45;&gt;LayoutModule -->
<g id="edge14" class="edge">
<title>SharedModule&#45;&gt;LayoutModule</title>
<path fill="none" stroke="black" d="M1239.7,-122.11C1239.7,-122.11 1239.7,-140.99 1239.7,-140.99"/>
<polygon fill="black" stroke="black" points="1236.2,-140.99 1239.7,-150.99 1243.2,-140.99 1236.2,-140.99"/>
</g>
<!-- SnippetsModule -->
<g id="node16" class="node">
<title>SnippetsModule</title>
<polygon fill="#8dd3c7" stroke="black" points="1202.77,-122 1199.77,-126 1178.77,-126 1175.77,-122 1095.23,-122 1095.23,-86 1202.77,-86 1202.77,-122"/>
<text text-anchor="middle" x="1149" y="-99.8" font-family="Times,serif" font-size="14.00">SnippetsModule</text>
</g>
<!-- SnippetsModule&#45;&gt;LayoutModule -->
<g id="edge15" class="edge">
<title>SnippetsModule&#45;&gt;LayoutModule</title>
<path fill="none" stroke="black" d="M1181.14,-122.11C1181.14,-122.11 1181.14,-140.99 1181.14,-140.99"/>
<polygon fill="black" stroke="black" points="1177.64,-140.99 1181.14,-150.99 1184.64,-140.99 1177.64,-140.99"/>
</g>
<!-- ShareService -->
<g id="node28" class="node">
<title>ShareService</title>
<ellipse fill="#fdb462" stroke="black" cx="2166" cy="-104" rx="61.95" ry="18"/>
<text text-anchor="middle" x="2166" y="-99.8" font-family="Times,serif" font-size="14.00">ShareService</text>
</g>
<!-- ShareService&#45;&gt;LayoutModule -->
<g id="edge27" class="edge">
<title>ShareService&#45;&gt;LayoutModule</title>
<path fill="none" stroke="black" d="M2166,-122.31C2166,-142.15 2166,-171 2166,-171 2166,-171 1268.77,-171 1268.77,-171"/>
<polygon fill="black" stroke="black" points="1268.77,-167.5 1258.77,-171 1268.77,-174.5 1268.77,-167.5"/>
</g>
</g>
</svg>
