<?xml version="1.0" encoding="UTF-8" standalone="no"?>
<!DOCTYPE svg PUBLIC "-//W3C//DTD SVG 1.1//EN"
 "http://www.w3.org/Graphics/SVG/1.1/DTD/svg11.dtd">
<!-- Generated by graphviz version 2.47.0 (20210316.0004)
 -->
<!-- Title: dependencies Pages: 1 -->
<svg width="504pt" height="284pt"
 viewBox="0.00 0.00 504.00 284.00" xmlns="http://www.w3.org/2000/svg" xmlns:xlink="http://www.w3.org/1999/xlink">
<g id="graph0" class="graph" transform="scale(1 1) rotate(0) translate(4 280)">
<title>dependencies</title>
<polygon fill="white" stroke="transparent" points="-4,4 -4,-280 500,-280 500,4 -4,4"/>
<text text-anchor="start" x="227.01" y="-42.4" font-family="Times-12" font-weight="bold" font-size="14.00">Legend</text>
<polygon fill="#ffffb3" stroke="transparent" points="14,-10 14,-30 34,-30 34,-10 14,-10"/>
<text text-anchor="start" x="37.63" y="-15.4" font-family="Times-12" font-size="14.00"> &#160;Declarations</text>
<polygon fill="#8dd3c7" stroke="transparent" points="127,-10 127,-30 147,-30 147,-10 127,-10"/>
<text text-anchor="start" x="150.73" y="-15.4" font-family="Times-12" font-size="14.00"> &#160;Module</text>
<polygon fill="#80b1d3" stroke="transparent" points="213,-10 213,-30 233,-30 233,-10 213,-10"/>
<text text-anchor="start" x="236.78" y="-15.4" font-family="Times-12" font-size="14.00"> &#160;Bootstrap</text>
<polygon fill="#fdb462" stroke="transparent" points="310,-10 310,-30 330,-30 330,-10 310,-10"/>
<text text-anchor="start" x="333.67" y="-15.4" font-family="Times-12" font-size="14.00"> &#160;Providers</text>
<polygon fill="#fb8072" stroke="transparent" points="406,-10 406,-30 426,-30 426,-10 406,-10"/>
<text text-anchor="start" x="429.73" y="-15.4" font-family="Times-12" font-size="14.00"> &#160;Exports</text>
<g id="clust1" class="cluster">
<title>cluster_PostLayoutModule</title>
<polygon fill="none" stroke="black" stroke-dasharray="1,5" points="73,-70 73,-268 423,-268 423,-70 73,-70"/>
</g>
<g id="clust6" class="cluster">
<title>cluster_PostLayoutModule_exports</title>
<polygon fill="none" stroke="black" points="81,-208 81,-260 415,-260 415,-208 81,-208"/>
</g>
<g id="clust2" class="cluster">
<title>cluster_PostLayoutModule_declarations</title>
<polygon fill="none" stroke="black" points="85,-78 85,-130 411,-130 411,-78 85,-78"/>
</g>
<!-- PostCardComponent -->
<g id="node1" class="node">
<title>PostCardComponent</title>
<polygon fill="#ffffb3" stroke="black" points="403.16,-122 270.84,-122 270.84,-86 403.16,-86 403.16,-122"/>
<text text-anchor="middle" x="337" y="-99.8" font-family="Times,serif" font-size="14.00">PostCardComponent</text>
</g>
<!-- PostLayoutModule -->
<g id="node3" class="node">
<title>PostLayoutModule</title>
<polygon fill="#8dd3c7" stroke="black" points="235.83,-187 232.83,-191 211.83,-191 208.83,-187 112.17,-187 112.17,-151 235.83,-151 235.83,-187"/>
<text text-anchor="middle" x="174" y="-164.8" font-family="Times,serif" font-size="14.00">PostLayoutModule</text>
</g>
<!-- PostCardComponent&#45;&gt;PostLayoutModule -->
<g id="edge1" class="edge">
<title>PostCardComponent&#45;&gt;PostLayoutModule</title>
<path fill="none" stroke="black" d="M359.19,-122.02C359.19,-139.37 359.19,-163 359.19,-163 359.19,-163 245.67,-163 245.67,-163"/>
<polygon fill="black" stroke="black" points="245.67,-159.5 235.67,-163 245.67,-166.5 245.67,-159.5"/>
</g>
<!-- PostCarrouselComponent -->
<g id="node2" class="node">
<title>PostCarrouselComponent</title>
<polygon fill="#ffffb3" stroke="black" points="252.87,-122 93.13,-122 93.13,-86 252.87,-86 252.87,-122"/>
<text text-anchor="middle" x="173" y="-99.8" font-family="Times,serif" font-size="14.00">PostCarrouselComponent</text>
</g>
<!-- PostCarrouselComponent&#45;&gt;PostLayoutModule -->
<g id="edge2" class="edge">
<title>PostCarrouselComponent&#45;&gt;PostLayoutModule</title>
<path fill="none" stroke="black" d="M174,-122.11C174,-122.11 174,-140.99 174,-140.99"/>
<polygon fill="black" stroke="black" points="170.5,-140.99 174,-150.99 177.5,-140.99 170.5,-140.99"/>
</g>
<!-- PostCardComponent  -->
<g id="node4" class="node">
<title>PostCardComponent </title>
<polygon fill="#fb8072" stroke="black" points="407.16,-252 270.84,-252 270.84,-216 407.16,-216 407.16,-252"/>
<text text-anchor="middle" x="339" y="-229.8" font-family="Times,serif" font-size="14.00">PostCardComponent </text>
</g>
<!-- PostLayoutModule&#45;&gt;PostCardComponent  -->
<g id="edge3" class="edge">
<title>PostLayoutModule&#45;&gt;PostCardComponent </title>
<path fill="none" stroke="black" stroke-dasharray="5,2" d="M235.87,-175C273.77,-175 315.06,-175 315.06,-175 315.06,-175 315.06,-205.98 315.06,-205.98"/>
<polygon fill="black" stroke="black" points="311.56,-205.98 315.06,-215.98 318.56,-205.98 311.56,-205.98"/>
</g>
<!-- PostCarrouselComponent  -->
<g id="node5" class="node">
<title>PostCarrouselComponent </title>
<polygon fill="#fb8072" stroke="black" points="252.87,-252 89.13,-252 89.13,-216 252.87,-216 252.87,-252"/>
<text text-anchor="middle" x="171" y="-229.8" font-family="Times,serif" font-size="14.00">PostCarrouselComponent </text>
</g>
<!-- PostLayoutModule&#45;&gt;PostCarrouselComponent  -->
<g id="edge4" class="edge">
<title>PostLayoutModule&#45;&gt;PostCarrouselComponent </title>
<path fill="none" stroke="black" stroke-dasharray="5,2" d="M174,-187.11C174,-187.11 174,-205.99 174,-205.99"/>
<polygon fill="black" stroke="black" points="170.5,-205.99 174,-215.99 177.5,-205.99 170.5,-205.99"/>
</g>
</g>
</svg>
