<?xml version="1.0" encoding="UTF-8" standalone="no"?>
<!DOCTYPE svg PUBLIC "-//W3C//DTD SVG 1.1//EN"
 "http://www.w3.org/Graphics/SVG/1.1/DTD/svg11.dtd">
<!-- Generated by graphviz version 2.47.0 (20210316.0004)
 -->
<!-- Title: dependencies Pages: 1 -->
<svg width="878pt" height="284pt"
 viewBox="0.00 0.00 878.00 284.00" xmlns="http://www.w3.org/2000/svg" xmlns:xlink="http://www.w3.org/1999/xlink">
<g id="graph0" class="graph" transform="scale(1 1) rotate(0) translate(4 280)">
<title>dependencies</title>
<polygon fill="white" stroke="transparent" points="-4,4 -4,-280 874,-280 874,4 -4,4"/>
<text text-anchor="start" x="414.01" y="-42.4" font-family="Times-12" font-weight="bold" font-size="14.00">Legend</text>
<polygon fill="#ffffb3" stroke="transparent" points="201,-10 201,-30 221,-30 221,-10 201,-10"/>
<text text-anchor="start" x="224.63" y="-15.4" font-family="Times-12" font-size="14.00"> &#160;Declarations</text>
<polygon fill="#8dd3c7" stroke="transparent" points="314,-10 314,-30 334,-30 334,-10 314,-10"/>
<text text-anchor="start" x="337.73" y="-15.4" font-family="Times-12" font-size="14.00"> &#160;Module</text>
<polygon fill="#80b1d3" stroke="transparent" points="400,-10 400,-30 420,-30 420,-10 400,-10"/>
<text text-anchor="start" x="423.78" y="-15.4" font-family="Times-12" font-size="14.00"> &#160;Bootstrap</text>
<polygon fill="#fdb462" stroke="transparent" points="497,-10 497,-30 517,-30 517,-10 497,-10"/>
<text text-anchor="start" x="520.67" y="-15.4" font-family="Times-12" font-size="14.00"> &#160;Providers</text>
<polygon fill="#fb8072" stroke="transparent" points="593,-10 593,-30 613,-30 613,-10 593,-10"/>
<text text-anchor="start" x="616.73" y="-15.4" font-family="Times-12" font-size="14.00"> &#160;Exports</text>
<g id="clust1" class="cluster">
<title>cluster_LogInModule</title>
<polygon fill="none" stroke="black" stroke-dasharray="1,5" points="8,-70 8,-268 862,-268 862,-70 8,-70"/>
</g>
<g id="clust2" class="cluster">
<title>cluster_LogInModule_declarations</title>
<polygon fill="none" stroke="black" points="406,-78 406,-130 854,-130 854,-78 406,-78"/>
</g>
<g id="clust7" class="cluster">
<title>cluster_LogInModule_exports</title>
<polygon fill="none" stroke="black" points="321,-208 321,-260 495,-260 495,-208 321,-208"/>
</g>
<g id="clust6" class="cluster">
<title>cluster_LogInModule_imports</title>
<polygon fill="none" stroke="black" points="158,-78 158,-130 398,-130 398,-78 158,-78"/>
</g>
<g id="clust9" class="cluster">
<title>cluster_LogInModule_providers</title>
<polygon fill="none" stroke="black" points="16,-78 16,-130 150,-130 150,-78 16,-78"/>
</g>
<!-- LogInDialogComponent -->
<g id="node1" class="node">
<title>LogInDialogComponent</title>
<polygon fill="#ffffb3" stroke="black" points="845.65,-122 692.35,-122 692.35,-86 845.65,-86 845.65,-122"/>
<text text-anchor="middle" x="769" y="-99.8" font-family="Times,serif" font-size="14.00">LogInDialogComponent</text>
</g>
<!-- LogInModule -->
<g id="node4" class="node">
<title>LogInModule</title>
<polygon fill="#8dd3c7" stroke="black" points="454.76,-187 451.76,-191 430.76,-191 427.76,-187 361.24,-187 361.24,-151 454.76,-151 454.76,-187"/>
<text text-anchor="middle" x="408" y="-164.8" font-family="Times,serif" font-size="14.00">LogInModule</text>
</g>
<!-- LogInDialogComponent&#45;&gt;LogInModule -->
<g id="edge1" class="edge">
<title>LogInDialogComponent&#45;&gt;LogInModule</title>
<path fill="none" stroke="black" d="M769,-122.28C769,-143.32 769,-175 769,-175 769,-175 464.82,-175 464.82,-175"/>
<polygon fill="black" stroke="black" points="464.82,-171.5 454.82,-175 464.82,-178.5 464.82,-171.5"/>
</g>
<!-- SignInComponent -->
<g id="node2" class="node">
<title>SignInComponent</title>
<polygon fill="#ffffb3" stroke="black" points="674.17,-122 555.83,-122 555.83,-86 674.17,-86 674.17,-122"/>
<text text-anchor="middle" x="615" y="-99.8" font-family="Times,serif" font-size="14.00">SignInComponent</text>
</g>
<!-- SignInComponent&#45;&gt;LogInModule -->
<g id="edge2" class="edge">
<title>SignInComponent&#45;&gt;LogInModule</title>
<path fill="none" stroke="black" d="M615,-122.02C615,-139.37 615,-163 615,-163 615,-163 464.97,-163 464.97,-163"/>
<polygon fill="black" stroke="black" points="464.97,-159.5 454.97,-163 464.97,-166.5 464.97,-159.5"/>
</g>
<!-- SignUpComponent -->
<g id="node3" class="node">
<title>SignUpComponent</title>
<polygon fill="#ffffb3" stroke="black" points="538.11,-122 413.89,-122 413.89,-86 538.11,-86 538.11,-122"/>
<text text-anchor="middle" x="476" y="-99.8" font-family="Times,serif" font-size="14.00">SignUpComponent</text>
</g>
<!-- SignUpComponent&#45;&gt;LogInModule -->
<g id="edge3" class="edge">
<title>SignUpComponent&#45;&gt;LogInModule</title>
<path fill="none" stroke="black" d="M434.41,-122.11C434.41,-122.11 434.41,-140.99 434.41,-140.99"/>
<polygon fill="black" stroke="black" points="430.91,-140.99 434.41,-150.99 437.91,-140.99 430.91,-140.99"/>
</g>
<!-- LogInDialogComponent  -->
<g id="node7" class="node">
<title>LogInDialogComponent </title>
<polygon fill="#fb8072" stroke="black" points="486.65,-252 329.35,-252 329.35,-216 486.65,-216 486.65,-252"/>
<text text-anchor="middle" x="408" y="-229.8" font-family="Times,serif" font-size="14.00">LogInDialogComponent </text>
</g>
<!-- LogInModule&#45;&gt;LogInDialogComponent  -->
<g id="edge6" class="edge">
<title>LogInModule&#45;&gt;LogInDialogComponent </title>
<path fill="none" stroke="black" stroke-dasharray="5,2" d="M408,-187.11C408,-187.11 408,-205.99 408,-205.99"/>
<polygon fill="black" stroke="black" points="404.5,-205.99 408,-215.99 411.5,-205.99 404.5,-205.99"/>
</g>
<!-- SharedModule -->
<g id="node5" class="node">
<title>SharedModule</title>
<polygon fill="#8dd3c7" stroke="black" points="390.42,-122 387.42,-126 366.42,-126 363.42,-122 291.58,-122 291.58,-86 390.42,-86 390.42,-122"/>
<text text-anchor="middle" x="341" y="-99.8" font-family="Times,serif" font-size="14.00">SharedModule</text>
</g>
<!-- SharedModule&#45;&gt;LogInModule -->
<g id="edge4" class="edge">
<title>SharedModule&#45;&gt;LogInModule</title>
<path fill="none" stroke="black" d="M375.66,-122.11C375.66,-122.11 375.66,-140.99 375.66,-140.99"/>
<polygon fill="black" stroke="black" points="372.16,-140.99 375.66,-150.99 379.16,-140.99 372.16,-140.99"/>
</g>
<!-- SnippetsModule -->
<g id="node6" class="node">
<title>SnippetsModule</title>
<polygon fill="#8dd3c7" stroke="black" points="273.77,-122 270.77,-126 249.77,-126 246.77,-122 166.23,-122 166.23,-86 273.77,-86 273.77,-122"/>
<text text-anchor="middle" x="220" y="-99.8" font-family="Times,serif" font-size="14.00">SnippetsModule</text>
</g>
<!-- SnippetsModule&#45;&gt;LogInModule -->
<g id="edge5" class="edge">
<title>SnippetsModule&#45;&gt;LogInModule</title>
<path fill="none" stroke="black" d="M220,-122.02C220,-139.37 220,-163 220,-163 220,-163 351.04,-163 351.04,-163"/>
<polygon fill="black" stroke="black" points="351.04,-166.5 361.04,-163 351.04,-159.5 351.04,-166.5"/>
</g>
<!-- UtilsService -->
<g id="node8" class="node">
<title>UtilsService</title>
<ellipse fill="#fdb462" stroke="black" cx="83" cy="-104" rx="58.54" ry="18"/>
<text text-anchor="middle" x="83" y="-99.8" font-family="Times,serif" font-size="14.00">UtilsService</text>
</g>
<!-- UtilsService&#45;&gt;LogInModule -->
<g id="edge7" class="edge">
<title>UtilsService&#45;&gt;LogInModule</title>
<path fill="none" stroke="black" d="M83,-122.28C83,-143.32 83,-175 83,-175 83,-175 351.09,-175 351.09,-175"/>
<polygon fill="black" stroke="black" points="351.09,-178.5 361.09,-175 351.09,-171.5 351.09,-178.5"/>
</g>
</g>
</svg>
