<?xml version="1.0" encoding="UTF-8" standalone="no"?>
<!DOCTYPE svg PUBLIC "-//W3C//DTD SVG 1.1//EN"
 "http://www.w3.org/Graphics/SVG/1.1/DTD/svg11.dtd">
<!-- Generated by graphviz version 2.47.0 (20210316.0004)
 -->
<!-- Title: dependencies Pages: 1 -->
<svg width="1210pt" height="211pt"
 viewBox="0.00 0.00 1210.00 211.00" xmlns="http://www.w3.org/2000/svg" xmlns:xlink="http://www.w3.org/1999/xlink">
<g id="graph0" class="graph" transform="scale(1 1) rotate(0) translate(4 207)">
<title>dependencies</title>
<polygon fill="white" stroke="transparent" points="-4,4 -4,-207 1206,-207 1206,4 -4,4"/>
<text text-anchor="start" x="580.01" y="-42.4" font-family="Times-12" font-weight="bold" font-size="14.00">Legend</text>
<polygon fill="#ffffb3" stroke="transparent" points="367,-10 367,-30 387,-30 387,-10 367,-10"/>
<text text-anchor="start" x="390.63" y="-15.4" font-family="Times-12" font-size="14.00"> &#160;Declarations</text>
<polygon fill="#8dd3c7" stroke="transparent" points="480,-10 480,-30 500,-30 500,-10 480,-10"/>
<text text-anchor="start" x="503.73" y="-15.4" font-family="Times-12" font-size="14.00"> &#160;Module</text>
<polygon fill="#80b1d3" stroke="transparent" points="566,-10 566,-30 586,-30 586,-10 566,-10"/>
<text text-anchor="start" x="589.78" y="-15.4" font-family="Times-12" font-size="14.00"> &#160;Bootstrap</text>
<polygon fill="#fdb462" stroke="transparent" points="663,-10 663,-30 683,-30 683,-10 663,-10"/>
<text text-anchor="start" x="686.67" y="-15.4" font-family="Times-12" font-size="14.00"> &#160;Providers</text>
<polygon fill="#fb8072" stroke="transparent" points="759,-10 759,-30 779,-30 779,-10 759,-10"/>
<text text-anchor="start" x="782.73" y="-15.4" font-family="Times-12" font-size="14.00"> &#160;Exports</text>
<g id="clust1" class="cluster">
<title>cluster_NewsModule</title>
<polygon fill="none" stroke="black" stroke-dasharray="1,5" points="8,-70 8,-195 1194,-195 1194,-70 8,-70"/>
</g>
<g id="clust8" class="cluster">
<title>cluster_NewsModule_providers</title>
<polygon fill="none" stroke="black" points="1022,-78 1022,-130 1186,-130 1186,-78 1022,-78"/>
</g>
<g id="clust5" class="cluster">
<title>cluster_NewsModule_imports</title>
<polygon fill="none" stroke="black" points="334,-78 334,-130 1014,-130 1014,-78 334,-78"/>
</g>
<g id="clust2" class="cluster">
<title>cluster_NewsModule_declarations</title>
<polygon fill="none" stroke="black" points="16,-78 16,-130 326,-130 326,-78 16,-78"/>
</g>
<!-- NewsComponent -->
<g id="node1" class="node">
<title>NewsComponent</title>
<polygon fill="#ffffb3" stroke="black" points="317.7,-122 204.3,-122 204.3,-86 317.7,-86 317.7,-122"/>
<text text-anchor="middle" x="261" y="-99.8" font-family="Times,serif" font-size="14.00">NewsComponent</text>
</g>
<!-- NewsModule -->
<g id="node3" class="node">
<title>NewsModule</title>
<polygon fill="#8dd3c7" stroke="black" points="657.92,-187 654.92,-191 633.92,-191 630.92,-187 566.08,-187 566.08,-151 657.92,-151 657.92,-187"/>
<text text-anchor="middle" x="612" y="-164.8" font-family="Times,serif" font-size="14.00">NewsModule</text>
</g>
<!-- NewsComponent&#45;&gt;NewsModule -->
<g id="edge1" class="edge">
<title>NewsComponent&#45;&gt;NewsModule</title>
<path fill="none" stroke="black" d="M261,-122.11C261,-141.34 261,-169 261,-169 261,-169 556.11,-169 556.11,-169"/>
<polygon fill="black" stroke="black" points="556.11,-172.5 566.11,-169 556.11,-165.5 556.11,-172.5"/>
</g>
<!-- NewsMasonryComponent -->
<g id="node2" class="node">
<title>NewsMasonryComponent</title>
<polygon fill="#ffffb3" stroke="black" points="186.47,-122 23.53,-122 23.53,-86 186.47,-86 186.47,-122"/>
<text text-anchor="middle" x="105" y="-99.8" font-family="Times,serif" font-size="14.00">NewsMasonryComponent</text>
</g>
<!-- NewsMasonryComponent&#45;&gt;NewsModule -->
<g id="edge2" class="edge">
<title>NewsMasonryComponent&#45;&gt;NewsModule</title>
<path fill="none" stroke="black" d="M105,-122.29C105,-144.21 105,-178 105,-178 105,-178 556.11,-178 556.11,-178"/>
<polygon fill="black" stroke="black" points="556.11,-181.5 566.11,-178 556.11,-174.5 556.11,-181.5"/>
</g>
<!-- DirectivesModule -->
<g id="node4" class="node">
<title>DirectivesModule</title>
<polygon fill="#8dd3c7" stroke="black" points="1005.58,-122 1002.58,-126 981.58,-126 978.58,-122 888.42,-122 888.42,-86 1005.58,-86 1005.58,-122"/>
<text text-anchor="middle" x="947" y="-99.8" font-family="Times,serif" font-size="14.00">DirectivesModule</text>
</g>
<!-- DirectivesModule&#45;&gt;NewsModule -->
<g id="edge3" class="edge">
<title>DirectivesModule&#45;&gt;NewsModule</title>
<path fill="none" stroke="black" d="M947,-122.11C947,-141.34 947,-169 947,-169 947,-169 667.88,-169 667.88,-169"/>
<polygon fill="black" stroke="black" points="667.88,-165.5 657.88,-169 667.88,-172.5 667.88,-165.5"/>
</g>
<!-- LayoutModule -->
<g id="node5" class="node">
<title>LayoutModule</title>
<polygon fill="#8dd3c7" stroke="black" points="870.71,-122 867.71,-126 846.71,-126 843.71,-122 771.29,-122 771.29,-86 870.71,-86 870.71,-122"/>
<text text-anchor="middle" x="821" y="-99.8" font-family="Times,serif" font-size="14.00">LayoutModule</text>
</g>
<!-- LayoutModule&#45;&gt;NewsModule -->
<g id="edge4" class="edge">
<title>LayoutModule&#45;&gt;NewsModule</title>
<path fill="none" stroke="black" d="M821,-122.03C821,-138.4 821,-160 821,-160 821,-160 667.87,-160 667.87,-160"/>
<polygon fill="black" stroke="black" points="667.87,-156.5 657.87,-160 667.87,-163.5 667.87,-156.5"/>
</g>
<!-- NewsAccessModule -->
<g id="node6" class="node">
<title>NewsAccessModule</title>
<polygon fill="#8dd3c7" stroke="black" points="753.56,-122 750.56,-126 729.56,-126 726.56,-122 622.44,-122 622.44,-86 753.56,-86 753.56,-122"/>
<text text-anchor="middle" x="688" y="-99.8" font-family="Times,serif" font-size="14.00">NewsAccessModule</text>
</g>
<!-- NewsAccessModule&#45;&gt;NewsModule -->
<g id="edge5" class="edge">
<title>NewsAccessModule&#45;&gt;NewsModule</title>
<path fill="none" stroke="black" d="M640.09,-122.11C640.09,-122.11 640.09,-140.99 640.09,-140.99"/>
<polygon fill="black" stroke="black" points="636.59,-140.99 640.09,-150.99 643.59,-140.99 636.59,-140.99"/>
</g>
<!-- NewsRoutingModule -->
<g id="node7" class="node">
<title>NewsRoutingModule</title>
<polygon fill="#8dd3c7" stroke="black" points="604.04,-122 601.04,-126 580.04,-126 577.04,-122 467.96,-122 467.96,-86 604.04,-86 604.04,-122"/>
<text text-anchor="middle" x="536" y="-99.8" font-family="Times,serif" font-size="14.00">NewsRoutingModule</text>
</g>
<!-- NewsRoutingModule&#45;&gt;NewsModule -->
<g id="edge6" class="edge">
<title>NewsRoutingModule&#45;&gt;NewsModule</title>
<path fill="none" stroke="black" d="M585.28,-122.11C585.28,-122.11 585.28,-140.99 585.28,-140.99"/>
<polygon fill="black" stroke="black" points="581.78,-140.99 585.28,-150.99 588.78,-140.99 581.78,-140.99"/>
</g>
<!-- SnippetsModule -->
<g id="node8" class="node">
<title>SnippetsModule</title>
<polygon fill="#8dd3c7" stroke="black" points="449.77,-122 446.77,-126 425.77,-126 422.77,-122 342.23,-122 342.23,-86 449.77,-86 449.77,-122"/>
<text text-anchor="middle" x="396" y="-99.8" font-family="Times,serif" font-size="14.00">SnippetsModule</text>
</g>
<!-- SnippetsModule&#45;&gt;NewsModule -->
<g id="edge7" class="edge">
<title>SnippetsModule&#45;&gt;NewsModule</title>
<path fill="none" stroke="black" d="M396,-122.03C396,-138.4 396,-160 396,-160 396,-160 556.19,-160 556.19,-160"/>
<polygon fill="black" stroke="black" points="556.19,-163.5 566.19,-160 556.19,-156.5 556.19,-163.5"/>
</g>
<!-- MasonryService -->
<g id="node9" class="node">
<title>MasonryService</title>
<ellipse fill="#fdb462" stroke="black" cx="1104" cy="-104" rx="74.14" ry="18"/>
<text text-anchor="middle" x="1104" y="-99.8" font-family="Times,serif" font-size="14.00">MasonryService</text>
</g>
<!-- MasonryService&#45;&gt;NewsModule -->
<g id="edge8" class="edge">
<title>MasonryService&#45;&gt;NewsModule</title>
<path fill="none" stroke="black" d="M1104,-122.29C1104,-144.21 1104,-178 1104,-178 1104,-178 667.84,-178 667.84,-178"/>
<polygon fill="black" stroke="black" points="667.84,-174.5 657.84,-178 667.84,-181.5 667.84,-174.5"/>
</g>
</g>
</svg>
