<?xml version="1.0" encoding="UTF-8" standalone="no"?>
<!DOCTYPE svg PUBLIC "-//W3C//DTD SVG 1.1//EN"
 "http://www.w3.org/Graphics/SVG/1.1/DTD/svg11.dtd">
<!-- Generated by graphviz version 2.47.0 (20210316.0004)
 -->
<!-- Title: dependencies Pages: 1 -->
<svg width="595pt" height="211pt"
 viewBox="0.00 0.00 595.00 211.00" xmlns="http://www.w3.org/2000/svg" xmlns:xlink="http://www.w3.org/1999/xlink">
<g id="graph0" class="graph" transform="scale(1 1) rotate(0) translate(4 207)">
<title>dependencies</title>
<polygon fill="white" stroke="transparent" points="-4,4 -4,-207 591,-207 591,4 -4,4"/>
<text text-anchor="start" x="272.51" y="-42.4" font-family="Times-12" font-weight="bold" font-size="14.00">Legend</text>
<polygon fill="#ffffb3" stroke="transparent" points="59.5,-10 59.5,-30 79.5,-30 79.5,-10 59.5,-10"/>
<text text-anchor="start" x="83.13" y="-15.4" font-family="Times-12" font-size="14.00"> &#160;Declarations</text>
<polygon fill="#8dd3c7" stroke="transparent" points="172.5,-10 172.5,-30 192.5,-30 192.5,-10 172.5,-10"/>
<text text-anchor="start" x="196.23" y="-15.4" font-family="Times-12" font-size="14.00"> &#160;Module</text>
<polygon fill="#80b1d3" stroke="transparent" points="258.5,-10 258.5,-30 278.5,-30 278.5,-10 258.5,-10"/>
<text text-anchor="start" x="282.28" y="-15.4" font-family="Times-12" font-size="14.00"> &#160;Bootstrap</text>
<polygon fill="#fdb462" stroke="transparent" points="355.5,-10 355.5,-30 375.5,-30 375.5,-10 355.5,-10"/>
<text text-anchor="start" x="379.17" y="-15.4" font-family="Times-12" font-size="14.00"> &#160;Providers</text>
<polygon fill="#fb8072" stroke="transparent" points="451.5,-10 451.5,-30 471.5,-30 471.5,-10 451.5,-10"/>
<text text-anchor="start" x="475.23" y="-15.4" font-family="Times-12" font-size="14.00"> &#160;Exports</text>
<g id="clust1" class="cluster">
<title>cluster_CoreModule</title>
<polygon fill="none" stroke="black" stroke-dasharray="1,5" points="8,-70 8,-195 579,-195 579,-70 8,-70"/>
</g>
<g id="clust6" class="cluster">
<title>cluster_CoreModule_providers</title>
<polygon fill="none" stroke="black" points="289,-78 289,-130 571,-130 571,-78 289,-78"/>
</g>
<g id="clust3" class="cluster">
<title>cluster_CoreModule_imports</title>
<polygon fill="none" stroke="black" points="16,-78 16,-130 281,-130 281,-78 16,-78"/>
</g>
<!-- QuillFormatModule -->
<g id="node1" class="node">
<title>QuillFormatModule</title>
<polygon fill="#8dd3c7" stroke="black" points="273.27,-122 270.27,-126 249.27,-126 246.27,-122 144.73,-122 144.73,-86 273.27,-86 273.27,-122"/>
<text text-anchor="middle" x="209" y="-99.8" font-family="Times,serif" font-size="14.00">QuillFormatModule</text>
</g>
<!-- CoreModule -->
<g id="node3" class="node">
<title>CoreModule</title>
<polygon fill="#8dd3c7" stroke="black" points="329.26,-187 326.26,-191 305.26,-191 302.26,-187 242.74,-187 242.74,-151 329.26,-151 329.26,-187"/>
<text text-anchor="middle" x="286" y="-164.8" font-family="Times,serif" font-size="14.00">CoreModule</text>
</g>
<!-- QuillFormatModule&#45;&gt;CoreModule -->
<g id="edge1" class="edge">
<title>QuillFormatModule&#45;&gt;CoreModule</title>
<path fill="none" stroke="black" d="M258,-122.11C258,-122.11 258,-140.99 258,-140.99"/>
<polygon fill="black" stroke="black" points="254.5,-140.99 258,-150.99 261.5,-140.99 254.5,-140.99"/>
</g>
<!-- StorageModule -->
<g id="node2" class="node">
<title>StorageModule</title>
<polygon fill="#8dd3c7" stroke="black" points="126.31,-122 123.31,-126 102.31,-126 99.31,-122 23.69,-122 23.69,-86 126.31,-86 126.31,-122"/>
<text text-anchor="middle" x="75" y="-99.8" font-family="Times,serif" font-size="14.00">StorageModule</text>
</g>
<!-- StorageModule&#45;&gt;CoreModule -->
<g id="edge2" class="edge">
<title>StorageModule&#45;&gt;CoreModule</title>
<path fill="none" stroke="black" d="M75,-122.11C75,-141.34 75,-169 75,-169 75,-169 232.54,-169 232.54,-169"/>
<polygon fill="black" stroke="black" points="232.54,-172.5 242.54,-169 232.54,-165.5 232.54,-172.5"/>
</g>
<!-- HttpService -->
<g id="node4" class="node">
<title>HttpService</title>
<ellipse fill="#fdb462" stroke="black" cx="506" cy="-104" rx="57.32" ry="18"/>
<text text-anchor="middle" x="506" y="-99.8" font-family="Times,serif" font-size="14.00">HttpService</text>
</g>
<!-- HttpService&#45;&gt;CoreModule -->
<g id="edge3" class="edge">
<title>HttpService&#45;&gt;CoreModule</title>
<path fill="none" stroke="black" d="M506,-122.11C506,-141.34 506,-169 506,-169 506,-169 339.46,-169 339.46,-169"/>
<polygon fill="black" stroke="black" points="339.46,-165.5 329.46,-169 339.46,-172.5 339.46,-165.5"/>
</g>
<!-- JwtInterceptor -->
<g id="node5" class="node">
<title>JwtInterceptor</title>
<ellipse fill="#fdb462" stroke="black" cx="364" cy="-104" rx="66.61" ry="18"/>
<text text-anchor="middle" x="364" y="-99.8" font-family="Times,serif" font-size="14.00">JwtInterceptor</text>
</g>
<!-- JwtInterceptor&#45;&gt;CoreModule -->
<g id="edge4" class="edge">
<title>JwtInterceptor&#45;&gt;CoreModule</title>
<path fill="none" stroke="black" d="M313.29,-115.92C313.29,-115.92 313.29,-140.77 313.29,-140.77"/>
<polygon fill="black" stroke="black" points="309.79,-140.77 313.29,-150.77 316.79,-140.77 309.79,-140.77"/>
</g>
</g>
</svg>
