<?xml version="1.0" encoding="UTF-8" standalone="no"?>
<!DOCTYPE svg PUBLIC "-//W3C//DTD SVG 1.1//EN"
 "http://www.w3.org/Graphics/SVG/1.1/DTD/svg11.dtd">
<!-- Generated by graphviz version 2.47.0 (20210316.0004)
 -->
<!-- Title: dependencies Pages: 1 -->
<svg width="787pt" height="211pt"
 viewBox="0.00 0.00 787.00 211.00" xmlns="http://www.w3.org/2000/svg" xmlns:xlink="http://www.w3.org/1999/xlink">
<g id="graph0" class="graph" transform="scale(1 1) rotate(0) translate(4 207)">
<title>dependencies</title>
<polygon fill="white" stroke="transparent" points="-4,4 -4,-207 783,-207 783,4 -4,4"/>
<text text-anchor="start" x="368.51" y="-42.4" font-family="Times-12" font-weight="bold" font-size="14.00">Legend</text>
<polygon fill="#ffffb3" stroke="transparent" points="155.5,-10 155.5,-30 175.5,-30 175.5,-10 155.5,-10"/>
<text text-anchor="start" x="179.13" y="-15.4" font-family="Times-12" font-size="14.00"> &#160;Declarations</text>
<polygon fill="#8dd3c7" stroke="transparent" points="268.5,-10 268.5,-30 288.5,-30 288.5,-10 268.5,-10"/>
<text text-anchor="start" x="292.23" y="-15.4" font-family="Times-12" font-size="14.00"> &#160;Module</text>
<polygon fill="#80b1d3" stroke="transparent" points="354.5,-10 354.5,-30 374.5,-30 374.5,-10 354.5,-10"/>
<text text-anchor="start" x="378.28" y="-15.4" font-family="Times-12" font-size="14.00"> &#160;Bootstrap</text>
<polygon fill="#fdb462" stroke="transparent" points="451.5,-10 451.5,-30 471.5,-30 471.5,-10 451.5,-10"/>
<text text-anchor="start" x="475.17" y="-15.4" font-family="Times-12" font-size="14.00"> &#160;Providers</text>
<polygon fill="#fb8072" stroke="transparent" points="547.5,-10 547.5,-30 567.5,-30 567.5,-10 547.5,-10"/>
<text text-anchor="start" x="571.23" y="-15.4" font-family="Times-12" font-size="14.00"> &#160;Exports</text>
<g id="clust1" class="cluster">
<title>cluster_DraftModule</title>
<polygon fill="none" stroke="black" stroke-dasharray="1,5" points="8,-70 8,-195 771,-195 771,-70 8,-70"/>
</g>
<g id="clust6" class="cluster">
<title>cluster_DraftModule_imports</title>
<polygon fill="none" stroke="black" points="495,-78 495,-130 763,-130 763,-78 495,-78"/>
</g>
<g id="clust2" class="cluster">
<title>cluster_DraftModule_declarations</title>
<polygon fill="none" stroke="black" points="16,-78 16,-130 487,-130 487,-78 16,-78"/>
</g>
<!-- DraftComponent -->
<g id="node1" class="node">
<title>DraftComponent</title>
<polygon fill="#ffffb3" stroke="black" points="479.37,-122 368.63,-122 368.63,-86 479.37,-86 479.37,-122"/>
<text text-anchor="middle" x="424" y="-99.8" font-family="Times,serif" font-size="14.00">DraftComponent</text>
</g>
<!-- DraftModule -->
<g id="node4" class="node">
<title>DraftModule</title>
<polygon fill="#8dd3c7" stroke="black" points="468.58,-187 465.58,-191 444.58,-191 441.58,-187 379.42,-187 379.42,-151 468.58,-151 468.58,-187"/>
<text text-anchor="middle" x="424" y="-164.8" font-family="Times,serif" font-size="14.00">DraftModule</text>
</g>
<!-- DraftComponent&#45;&gt;DraftModule -->
<g id="edge1" class="edge">
<title>DraftComponent&#45;&gt;DraftModule</title>
<path fill="none" stroke="black" d="M424,-122.11C424,-122.11 424,-140.99 424,-140.99"/>
<polygon fill="black" stroke="black" points="420.5,-140.99 424,-150.99 427.5,-140.99 420.5,-140.99"/>
</g>
<!-- DraftContentComponent -->
<g id="node2" class="node">
<title>DraftContentComponent</title>
<polygon fill="#ffffb3" stroke="black" points="350.7,-122 195.3,-122 195.3,-86 350.7,-86 350.7,-122"/>
<text text-anchor="middle" x="273" y="-99.8" font-family="Times,serif" font-size="14.00">DraftContentComponent</text>
</g>
<!-- DraftContentComponent&#45;&gt;DraftModule -->
<g id="edge2" class="edge">
<title>DraftContentComponent&#45;&gt;DraftModule</title>
<path fill="none" stroke="black" d="M273,-122.02C273,-139.37 273,-163 273,-163 273,-163 369.1,-163 369.1,-163"/>
<polygon fill="black" stroke="black" points="369.1,-166.5 379.1,-163 369.1,-159.5 369.1,-166.5"/>
</g>
<!-- DraftSidebarComponent -->
<g id="node3" class="node">
<title>DraftSidebarComponent</title>
<polygon fill="#ffffb3" stroke="black" points="177.63,-122 24.37,-122 24.37,-86 177.63,-86 177.63,-122"/>
<text text-anchor="middle" x="101" y="-99.8" font-family="Times,serif" font-size="14.00">DraftSidebarComponent</text>
</g>
<!-- DraftSidebarComponent&#45;&gt;DraftModule -->
<g id="edge3" class="edge">
<title>DraftSidebarComponent&#45;&gt;DraftModule</title>
<path fill="none" stroke="black" d="M101,-122.28C101,-143.32 101,-175 101,-175 101,-175 369.43,-175 369.43,-175"/>
<polygon fill="black" stroke="black" points="369.43,-178.5 379.43,-175 369.43,-171.5 369.43,-178.5"/>
</g>
<!-- DraftRoutingModule -->
<g id="node5" class="node">
<title>DraftRoutingModule</title>
<polygon fill="#8dd3c7" stroke="black" points="755.2,-122 752.2,-126 731.2,-126 728.2,-122 620.8,-122 620.8,-86 755.2,-86 755.2,-122"/>
<text text-anchor="middle" x="688" y="-99.8" font-family="Times,serif" font-size="14.00">DraftRoutingModule</text>
</g>
<!-- DraftRoutingModule&#45;&gt;DraftModule -->
<g id="edge4" class="edge">
<title>DraftRoutingModule&#45;&gt;DraftModule</title>
<path fill="none" stroke="black" d="M688,-122.28C688,-143.32 688,-175 688,-175 688,-175 478.78,-175 478.78,-175"/>
<polygon fill="black" stroke="black" points="478.78,-171.5 468.78,-175 478.78,-178.5 478.78,-171.5"/>
</g>
<!-- LayoutModule -->
<g id="node6" class="node">
<title>LayoutModule</title>
<polygon fill="#8dd3c7" stroke="black" points="602.71,-122 599.71,-126 578.71,-126 575.71,-122 503.29,-122 503.29,-86 602.71,-86 602.71,-122"/>
<text text-anchor="middle" x="553" y="-99.8" font-family="Times,serif" font-size="14.00">LayoutModule</text>
</g>
<!-- LayoutModule&#45;&gt;DraftModule -->
<g id="edge5" class="edge">
<title>LayoutModule&#45;&gt;DraftModule</title>
<path fill="none" stroke="black" d="M553,-122.02C553,-139.37 553,-163 553,-163 553,-163 478.76,-163 478.76,-163"/>
<polygon fill="black" stroke="black" points="478.76,-159.5 468.76,-163 478.76,-166.5 478.76,-159.5"/>
</g>
</g>
</svg>
