<?xml version="1.0" encoding="UTF-8" standalone="no"?>
<!DOCTYPE svg PUBLIC "-//W3C//DTD SVG 1.1//EN"
 "http://www.w3.org/Graphics/SVG/1.1/DTD/svg11.dtd">
<!-- Generated by graphviz version 2.47.0 (20210316.0004)
 -->
<!-- Title: dependencies Pages: 1 -->
<svg width="4132pt" height="211pt"
 viewBox="0.00 0.00 4132.00 211.00" xmlns="http://www.w3.org/2000/svg" xmlns:xlink="http://www.w3.org/1999/xlink">
<g id="graph0" class="graph" transform="scale(1 1) rotate(0) translate(4 207)">
<title>dependencies</title>
<polygon fill="white" stroke="transparent" points="-4,4 -4,-207 4128,-207 4128,4 -4,4"/>
<text text-anchor="start" x="2041.01" y="-42.4" font-family="Times-12" font-weight="bold" font-size="14.00">Legend</text>
<polygon fill="#ffffb3" stroke="transparent" points="1828,-10 1828,-30 1848,-30 1848,-10 1828,-10"/>
<text text-anchor="start" x="1851.63" y="-15.4" font-family="Times-12" font-size="14.00"> &#160;Declarations</text>
<polygon fill="#8dd3c7" stroke="transparent" points="1941,-10 1941,-30 1961,-30 1961,-10 1941,-10"/>
<text text-anchor="start" x="1964.73" y="-15.4" font-family="Times-12" font-size="14.00"> &#160;Module</text>
<polygon fill="#80b1d3" stroke="transparent" points="2027,-10 2027,-30 2047,-30 2047,-10 2027,-10"/>
<text text-anchor="start" x="2050.78" y="-15.4" font-family="Times-12" font-size="14.00"> &#160;Bootstrap</text>
<polygon fill="#fdb462" stroke="transparent" points="2124,-10 2124,-30 2144,-30 2144,-10 2124,-10"/>
<text text-anchor="start" x="2147.67" y="-15.4" font-family="Times-12" font-size="14.00"> &#160;Providers</text>
<polygon fill="#fb8072" stroke="transparent" points="2220,-10 2220,-30 2240,-30 2240,-10 2220,-10"/>
<text text-anchor="start" x="2243.73" y="-15.4" font-family="Times-12" font-size="14.00"> &#160;Exports</text>
<g id="clust1" class="cluster">
<title>cluster_ProfileModule</title>
<polygon fill="none" stroke="black" stroke-dasharray="1,5" points="8,-70 8,-195 4116,-195 4116,-70 8,-70"/>
</g>
<g id="clust21" class="cluster">
<title>cluster_ProfileModule_providers</title>
<polygon fill="none" stroke="black" points="3898,-78 3898,-130 4108,-130 4108,-78 3898,-78"/>
</g>
<g id="clust2" class="cluster">
<title>cluster_ProfileModule_declarations</title>
<polygon fill="none" stroke="black" points="1011,-78 1011,-130 3890,-130 3890,-78 1011,-78"/>
</g>
<g id="clust18" class="cluster">
<title>cluster_ProfileModule_imports</title>
<polygon fill="none" stroke="black" points="16,-78 16,-130 1003,-130 1003,-78 16,-78"/>
</g>
<!-- ProfileComponent -->
<g id="node1" class="node">
<title>ProfileComponent</title>
<polygon fill="#ffffb3" stroke="black" points="3881.93,-122 3762.07,-122 3762.07,-86 3881.93,-86 3881.93,-122"/>
<text text-anchor="middle" x="3822" y="-99.8" font-family="Times,serif" font-size="14.00">ProfileComponent</text>
</g>
<!-- ProfileModule -->
<g id="node16" class="node">
<title>ProfileModule</title>
<polygon fill="#8dd3c7" stroke="black" points="1950.65,-187 1947.65,-191 1926.65,-191 1923.65,-187 1853.35,-187 1853.35,-151 1950.65,-151 1950.65,-187"/>
<text text-anchor="middle" x="1902" y="-164.8" font-family="Times,serif" font-size="14.00">ProfileModule</text>
</g>
<!-- ProfileComponent&#45;&gt;ProfileModule -->
<g id="edge1" class="edge">
<title>ProfileComponent&#45;&gt;ProfileModule</title>
<path fill="none" stroke="black" d="M3822,-122.09C3822,-145.13 3822,-182 3822,-182 3822,-182 1960.9,-182 1960.9,-182"/>
<polygon fill="black" stroke="black" points="1960.9,-178.5 1950.9,-182 1960.9,-185.5 1960.9,-178.5"/>
</g>
<!-- ProfileDraftsComponent -->
<g id="node2" class="node">
<title>ProfileDraftsComponent</title>
<polygon fill="#ffffb3" stroke="black" points="3744.41,-122 3589.59,-122 3589.59,-86 3744.41,-86 3744.41,-122"/>
<text text-anchor="middle" x="3667" y="-99.8" font-family="Times,serif" font-size="14.00">ProfileDraftsComponent</text>
</g>
<!-- ProfileDraftsComponent&#45;&gt;ProfileModule -->
<g id="edge2" class="edge">
<title>ProfileDraftsComponent&#45;&gt;ProfileModule</title>
<path fill="none" stroke="black" d="M3667,-122.29C3667,-144.21 3667,-178 3667,-178 3667,-178 1961.05,-178 1961.05,-178"/>
<polygon fill="black" stroke="black" points="1961.05,-174.5 1951.05,-178 1961.05,-181.5 1961.05,-174.5"/>
</g>
<!-- ProfileFavoritesComponent -->
<g id="node3" class="node">
<title>ProfileFavoritesComponent</title>
<polygon fill="#ffffb3" stroke="black" points="3571.53,-122 3400.47,-122 3400.47,-86 3571.53,-86 3571.53,-122"/>
<text text-anchor="middle" x="3486" y="-99.8" font-family="Times,serif" font-size="14.00">ProfileFavoritesComponent</text>
</g>
<!-- ProfileFavoritesComponent&#45;&gt;ProfileModule -->
<g id="edge3" class="edge">
<title>ProfileFavoritesComponent&#45;&gt;ProfileModule</title>
<path fill="none" stroke="black" d="M3486,-122.28C3486,-143.32 3486,-175 3486,-175 3486,-175 1960.71,-175 1960.71,-175"/>
<polygon fill="black" stroke="black" points="1960.71,-171.5 1950.71,-175 1960.71,-178.5 1960.71,-171.5"/>
</g>
<!-- ProfileFriendsComponent -->
<g id="node4" class="node">
<title>ProfileFriendsComponent</title>
<polygon fill="#ffffb3" stroke="black" points="3382.93,-122 3221.07,-122 3221.07,-86 3382.93,-86 3382.93,-122"/>
<text text-anchor="middle" x="3302" y="-99.8" font-family="Times,serif" font-size="14.00">ProfileFriendsComponent</text>
</g>
<!-- ProfileFriendsComponent&#45;&gt;ProfileModule -->
<g id="edge4" class="edge">
<title>ProfileFriendsComponent&#45;&gt;ProfileModule</title>
<path fill="none" stroke="black" d="M3302,-122.22C3302,-142.37 3302,-172 3302,-172 3302,-172 1961.01,-172 1961.01,-172"/>
<polygon fill="black" stroke="black" points="1961.01,-168.5 1951.01,-172 1961.01,-175.5 1961.01,-168.5"/>
</g>
<!-- ProfileFriendsContentComponent -->
<g id="node5" class="node">
<title>ProfileFriendsContentComponent</title>
<polygon fill="#ffffb3" stroke="black" points="3202.76,-122 2997.24,-122 2997.24,-86 3202.76,-86 3202.76,-122"/>
<text text-anchor="middle" x="3100" y="-99.8" font-family="Times,serif" font-size="14.00">ProfileFriendsContentComponent</text>
</g>
<!-- ProfileFriendsContentComponent&#45;&gt;ProfileModule -->
<g id="edge5" class="edge">
<title>ProfileFriendsContentComponent&#45;&gt;ProfileModule</title>
<path fill="none" stroke="black" d="M3100,-122.11C3100,-141.34 3100,-169 3100,-169 3100,-169 1960.82,-169 1960.82,-169"/>
<polygon fill="black" stroke="black" points="1960.82,-165.5 1950.82,-169 1960.82,-172.5 1960.82,-165.5"/>
</g>
<!-- ProfileFriendsSidebarComponent -->
<g id="node6" class="node">
<title>ProfileFriendsSidebarComponent</title>
<polygon fill="#ffffb3" stroke="black" points="2979.19,-122 2774.81,-122 2774.81,-86 2979.19,-86 2979.19,-122"/>
<text text-anchor="middle" x="2877" y="-99.8" font-family="Times,serif" font-size="14.00">ProfileFriendsSidebarComponent</text>
</g>
<!-- ProfileFriendsSidebarComponent&#45;&gt;ProfileModule -->
<g id="edge6" class="edge">
<title>ProfileFriendsSidebarComponent&#45;&gt;ProfileModule</title>
<path fill="none" stroke="black" d="M2877,-122.22C2877,-140.83 2877,-167 2877,-167 2877,-167 1960.68,-167 1960.68,-167"/>
<polygon fill="black" stroke="black" points="1960.68,-163.5 1950.68,-167 1960.68,-170.5 1960.68,-163.5"/>
</g>
<!-- ProfileHeaderComponent -->
<g id="node7" class="node">
<title>ProfileHeaderComponent</title>
<polygon fill="#ffffb3" stroke="black" points="2756.84,-122 2597.16,-122 2597.16,-86 2756.84,-86 2756.84,-122"/>
<text text-anchor="middle" x="2677" y="-99.8" font-family="Times,serif" font-size="14.00">ProfileHeaderComponent</text>
</g>
<!-- ProfileHeaderComponent&#45;&gt;ProfileModule -->
<g id="edge7" class="edge">
<title>ProfileHeaderComponent&#45;&gt;ProfileModule</title>
<path fill="none" stroke="black" d="M2677,-122.02C2677,-139.37 2677,-163 2677,-163 2677,-163 1960.77,-163 1960.77,-163"/>
<polygon fill="black" stroke="black" points="1960.77,-159.5 1950.77,-163 1960.77,-166.5 1960.77,-159.5"/>
</g>
<!-- ProfileHomeComponent -->
<g id="node8" class="node">
<title>ProfileHomeComponent</title>
<polygon fill="#ffffb3" stroke="black" points="2578.64,-122 2425.36,-122 2425.36,-86 2578.64,-86 2578.64,-122"/>
<text text-anchor="middle" x="2502" y="-99.8" font-family="Times,serif" font-size="14.00">ProfileHomeComponent</text>
</g>
<!-- ProfileHomeComponent&#45;&gt;ProfileModule -->
<g id="edge8" class="edge">
<title>ProfileHomeComponent&#45;&gt;ProfileModule</title>
<path fill="none" stroke="black" d="M2502,-122.03C2502,-138.4 2502,-160 2502,-160 2502,-160 1960.85,-160 1960.85,-160"/>
<polygon fill="black" stroke="black" points="1960.85,-156.5 1950.85,-160 1960.85,-163.5 1960.85,-156.5"/>
</g>
<!-- ProfileHomeContentComponent -->
<g id="node9" class="node">
<title>ProfileHomeContentComponent</title>
<polygon fill="#ffffb3" stroke="black" points="2406.98,-122 2209.02,-122 2209.02,-86 2406.98,-86 2406.98,-122"/>
<text text-anchor="middle" x="2308" y="-99.8" font-family="Times,serif" font-size="14.00">ProfileHomeContentComponent</text>
</g>
<!-- ProfileHomeContentComponent&#45;&gt;ProfileModule -->
<g id="edge9" class="edge">
<title>ProfileHomeContentComponent&#45;&gt;ProfileModule</title>
<path fill="none" stroke="black" d="M2308,-122.24C2308,-137.57 2308,-157 2308,-157 2308,-157 1960.97,-157 1960.97,-157"/>
<polygon fill="black" stroke="black" points="1960.97,-153.5 1950.97,-157 1960.97,-160.5 1960.97,-153.5"/>
</g>
<!-- ProfileHomeSidebarComponent -->
<g id="node10" class="node">
<title>ProfileHomeSidebarComponent</title>
<polygon fill="#ffffb3" stroke="black" points="2191.41,-122 1994.59,-122 1994.59,-86 2191.41,-86 2191.41,-122"/>
<text text-anchor="middle" x="2093" y="-99.8" font-family="Times,serif" font-size="14.00">ProfileHomeSidebarComponent</text>
</g>
<!-- ProfileHomeSidebarComponent&#45;&gt;ProfileModule -->
<g id="edge10" class="edge">
<title>ProfileHomeSidebarComponent&#45;&gt;ProfileModule</title>
<path fill="none" stroke="black" d="M2093,-122.05C2093,-136.37 2093,-154 2093,-154 2093,-154 1960.69,-154 1960.69,-154"/>
<polygon fill="black" stroke="black" points="1960.69,-150.5 1950.69,-154 1960.69,-157.5 1960.69,-150.5"/>
</g>
<!-- ProfilePostsComponent -->
<g id="node11" class="node">
<title>ProfilePostsComponent</title>
<polygon fill="#ffffb3" stroke="black" points="1976.49,-122 1827.51,-122 1827.51,-86 1976.49,-86 1976.49,-122"/>
<text text-anchor="middle" x="1902" y="-99.8" font-family="Times,serif" font-size="14.00">ProfilePostsComponent</text>
</g>
<!-- ProfilePostsComponent&#45;&gt;ProfileModule -->
<g id="edge11" class="edge">
<title>ProfilePostsComponent&#45;&gt;ProfileModule</title>
<path fill="none" stroke="black" d="M1902,-122.11C1902,-122.11 1902,-140.99 1902,-140.99"/>
<polygon fill="black" stroke="black" points="1898.5,-140.99 1902,-150.99 1905.5,-140.99 1898.5,-140.99"/>
</g>
<!-- ProfilePublicComponent -->
<g id="node12" class="node">
<title>ProfilePublicComponent</title>
<polygon fill="#ffffb3" stroke="black" points="1809.71,-122 1654.29,-122 1654.29,-86 1809.71,-86 1809.71,-122"/>
<text text-anchor="middle" x="1732" y="-99.8" font-family="Times,serif" font-size="14.00">ProfilePublicComponent</text>
</g>
<!-- ProfilePublicComponent&#45;&gt;ProfileModule -->
<g id="edge12" class="edge">
<title>ProfilePublicComponent&#45;&gt;ProfileModule</title>
<path fill="none" stroke="black" d="M1732,-122.05C1732,-136.37 1732,-154 1732,-154 1732,-154 1843.28,-154 1843.28,-154"/>
<polygon fill="black" stroke="black" points="1843.28,-157.5 1853.28,-154 1843.28,-150.5 1843.28,-157.5"/>
</g>
<!-- ProfileSettingsComponent -->
<g id="node13" class="node">
<title>ProfileSettingsComponent</title>
<polygon fill="#ffffb3" stroke="black" points="1636.05,-122 1471.95,-122 1471.95,-86 1636.05,-86 1636.05,-122"/>
<text text-anchor="middle" x="1554" y="-99.8" font-family="Times,serif" font-size="14.00">ProfileSettingsComponent</text>
</g>
<!-- ProfileSettingsComponent&#45;&gt;ProfileModule -->
<g id="edge13" class="edge">
<title>ProfileSettingsComponent&#45;&gt;ProfileModule</title>
<path fill="none" stroke="black" d="M1554,-122.24C1554,-137.57 1554,-157 1554,-157 1554,-157 1843.25,-157 1843.25,-157"/>
<polygon fill="black" stroke="black" points="1843.25,-160.5 1853.25,-157 1843.25,-153.5 1843.25,-160.5"/>
</g>
<!-- ProfileSettingsContentComponent -->
<g id="node14" class="node">
<title>ProfileSettingsContentComponent</title>
<polygon fill="#ffffb3" stroke="black" points="1453.38,-122 1244.62,-122 1244.62,-86 1453.38,-86 1453.38,-122"/>
<text text-anchor="middle" x="1349" y="-99.8" font-family="Times,serif" font-size="14.00">ProfileSettingsContentComponent</text>
</g>
<!-- ProfileSettingsContentComponent&#45;&gt;ProfileModule -->
<g id="edge14" class="edge">
<title>ProfileSettingsContentComponent&#45;&gt;ProfileModule</title>
<path fill="none" stroke="black" d="M1349,-122.03C1349,-138.4 1349,-160 1349,-160 1349,-160 1842.92,-160 1842.92,-160"/>
<polygon fill="black" stroke="black" points="1842.92,-163.5 1852.92,-160 1842.92,-156.5 1842.92,-163.5"/>
</g>
<!-- ProfileSettingsSidebarComponent -->
<g id="node15" class="node">
<title>ProfileSettingsSidebarComponent</title>
<polygon fill="#ffffb3" stroke="black" points="1226.81,-122 1019.19,-122 1019.19,-86 1226.81,-86 1226.81,-122"/>
<text text-anchor="middle" x="1123" y="-99.8" font-family="Times,serif" font-size="14.00">ProfileSettingsSidebarComponent</text>
</g>
<!-- ProfileSettingsSidebarComponent&#45;&gt;ProfileModule -->
<g id="edge15" class="edge">
<title>ProfileSettingsSidebarComponent&#45;&gt;ProfileModule</title>
<path fill="none" stroke="black" d="M1123,-122.02C1123,-139.37 1123,-163 1123,-163 1123,-163 1843.27,-163 1843.27,-163"/>
<polygon fill="black" stroke="black" points="1843.27,-166.5 1853.27,-163 1843.27,-159.5 1843.27,-166.5"/>
</g>
<!-- ActivitiesAccessModule -->
<g id="node17" class="node">
<title>ActivitiesAccessModule</title>
<polygon fill="#8dd3c7" stroke="black" points="994.62,-122 991.62,-126 970.62,-126 967.62,-122 841.38,-122 841.38,-86 994.62,-86 994.62,-122"/>
<text text-anchor="middle" x="918" y="-99.8" font-family="Times,serif" font-size="14.00">ActivitiesAccessModule</text>
</g>
<!-- ActivitiesAccessModule&#45;&gt;ProfileModule -->
<g id="edge16" class="edge">
<title>ActivitiesAccessModule&#45;&gt;ProfileModule</title>
<path fill="none" stroke="black" d="M918,-122.22C918,-140.83 918,-167 918,-167 918,-167 1843.2,-167 1843.2,-167"/>
<polygon fill="black" stroke="black" points="1843.2,-170.5 1853.2,-167 1843.2,-163.5 1843.2,-170.5"/>
</g>
<!-- DraftsAccessModule -->
<g id="node18" class="node">
<title>DraftsAccessModule</title>
<polygon fill="#8dd3c7" stroke="black" points="823.17,-122 820.17,-126 799.17,-126 796.17,-122 688.83,-122 688.83,-86 823.17,-86 823.17,-122"/>
<text text-anchor="middle" x="756" y="-99.8" font-family="Times,serif" font-size="14.00">DraftsAccessModule</text>
</g>
<!-- DraftsAccessModule&#45;&gt;ProfileModule -->
<g id="edge17" class="edge">
<title>DraftsAccessModule&#45;&gt;ProfileModule</title>
<path fill="none" stroke="black" d="M756,-122.11C756,-141.34 756,-169 756,-169 756,-169 1843.12,-169 1843.12,-169"/>
<polygon fill="black" stroke="black" points="1843.12,-172.5 1853.12,-169 1843.12,-165.5 1843.12,-172.5"/>
</g>
<!-- LayoutModule -->
<g id="node19" class="node">
<title>LayoutModule</title>
<polygon fill="#8dd3c7" stroke="black" points="670.71,-122 667.71,-126 646.71,-126 643.71,-122 571.29,-122 571.29,-86 670.71,-86 670.71,-122"/>
<text text-anchor="middle" x="621" y="-99.8" font-family="Times,serif" font-size="14.00">LayoutModule</text>
</g>
<!-- LayoutModule&#45;&gt;ProfileModule -->
<g id="edge18" class="edge">
<title>LayoutModule&#45;&gt;ProfileModule</title>
<path fill="none" stroke="black" d="M621,-122.22C621,-142.37 621,-172 621,-172 621,-172 1843.35,-172 1843.35,-172"/>
<polygon fill="black" stroke="black" points="1843.35,-175.5 1853.35,-172 1843.35,-168.5 1843.35,-175.5"/>
</g>
<!-- ProfileRoutingModule -->
<g id="node20" class="node">
<title>ProfileRoutingModule</title>
<polygon fill="#8dd3c7" stroke="black" points="553.27,-122 550.27,-126 529.27,-126 526.27,-122 410.73,-122 410.73,-86 553.27,-86 553.27,-122"/>
<text text-anchor="middle" x="482" y="-99.8" font-family="Times,serif" font-size="14.00">ProfileRoutingModule</text>
</g>
<!-- ProfileRoutingModule&#45;&gt;ProfileModule -->
<g id="edge19" class="edge">
<title>ProfileRoutingModule&#45;&gt;ProfileModule</title>
<path fill="none" stroke="black" d="M482,-122.28C482,-143.32 482,-175 482,-175 482,-175 1843.12,-175 1843.12,-175"/>
<polygon fill="black" stroke="black" points="1843.12,-178.5 1853.12,-175 1843.12,-171.5 1843.12,-178.5"/>
</g>
<!-- SharedModule -->
<g id="node21" class="node">
<title>SharedModule</title>
<polygon fill="#8dd3c7" stroke="black" points="392.42,-122 389.42,-126 368.42,-126 365.42,-122 293.58,-122 293.58,-86 392.42,-86 392.42,-122"/>
<text text-anchor="middle" x="343" y="-99.8" font-family="Times,serif" font-size="14.00">SharedModule</text>
</g>
<!-- SharedModule&#45;&gt;ProfileModule -->
<g id="edge20" class="edge">
<title>SharedModule&#45;&gt;ProfileModule</title>
<path fill="none" stroke="black" d="M343,-122.29C343,-144.21 343,-178 343,-178 343,-178 1843.2,-178 1843.2,-178"/>
<polygon fill="black" stroke="black" points="1843.2,-181.5 1853.2,-178 1843.2,-174.5 1843.2,-181.5"/>
</g>
<!-- SkeletonModule -->
<g id="node22" class="node">
<title>SkeletonModule</title>
<polygon fill="#8dd3c7" stroke="black" points="276.04,-122 273.04,-126 252.04,-126 249.04,-122 167.96,-122 167.96,-86 276.04,-86 276.04,-122"/>
<text text-anchor="middle" x="222" y="-99.8" font-family="Times,serif" font-size="14.00">SkeletonModule</text>
</g>
<!-- SkeletonModule&#45;&gt;ProfileModule -->
<g id="edge21" class="edge">
<title>SkeletonModule&#45;&gt;ProfileModule</title>
<path fill="none" stroke="black" d="M222,-122.09C222,-145.13 222,-182 222,-182 222,-182 1843.08,-182 1843.08,-182"/>
<polygon fill="black" stroke="black" points="1843.08,-185.5 1853.08,-182 1843.08,-178.5 1843.08,-185.5"/>
</g>
<!-- UserLayoutModule -->
<g id="node23" class="node">
<title>UserLayoutModule</title>
<polygon fill="#8dd3c7" stroke="black" points="149.63,-122 146.63,-126 125.63,-126 122.63,-122 24.37,-122 24.37,-86 149.63,-86 149.63,-122"/>
<text text-anchor="middle" x="87" y="-99.8" font-family="Times,serif" font-size="14.00">UserLayoutModule</text>
</g>
<!-- UserLayoutModule&#45;&gt;ProfileModule -->
<g id="edge22" class="edge">
<title>UserLayoutModule&#45;&gt;ProfileModule</title>
<path fill="none" stroke="black" d="M87,-122.15C87,-145.76 87,-184 87,-184 87,-184 1842.98,-184 1842.98,-184"/>
<polygon fill="black" stroke="black" points="1842.98,-187.5 1852.98,-184 1842.98,-180.5 1842.98,-187.5"/>
</g>
<!-- ProfileSettingsService -->
<g id="node24" class="node">
<title>ProfileSettingsService</title>
<ellipse fill="#fdb462" stroke="black" cx="4003" cy="-104" rx="97.28" ry="18"/>
<text text-anchor="middle" x="4003" y="-99.8" font-family="Times,serif" font-size="14.00">ProfileSettingsService</text>
</g>
<!-- ProfileSettingsService&#45;&gt;ProfileModule -->
<g id="edge23" class="edge">
<title>ProfileSettingsService&#45;&gt;ProfileModule</title>
<path fill="none" stroke="black" d="M4003,-122.15C4003,-145.76 4003,-184 4003,-184 4003,-184 1960.84,-184 1960.84,-184"/>
<polygon fill="black" stroke="black" points="1960.84,-180.5 1950.84,-184 1960.84,-187.5 1960.84,-180.5"/>
</g>
</g>
</svg>
