<?xml version="1.0" encoding="UTF-8" standalone="no"?>
<!DOCTYPE svg PUBLIC "-//W3C//DTD SVG 1.1//EN"
 "http://www.w3.org/Graphics/SVG/1.1/DTD/svg11.dtd">
<!-- Generated by graphviz version 2.47.0 (20210316.0004)
 -->
<!-- Title: dependencies Pages: 1 -->
<svg width="946pt" height="211pt"
 viewBox="0.00 0.00 946.00 211.00" xmlns="http://www.w3.org/2000/svg" xmlns:xlink="http://www.w3.org/1999/xlink">
<g id="graph0" class="graph" transform="scale(1 1) rotate(0) translate(4 207)">
<title>dependencies</title>
<polygon fill="white" stroke="transparent" points="-4,4 -4,-207 942,-207 942,4 -4,4"/>
<text text-anchor="start" x="448.01" y="-42.4" font-family="Times-12" font-weight="bold" font-size="14.00">Legend</text>
<polygon fill="#ffffb3" stroke="transparent" points="235,-10 235,-30 255,-30 255,-10 235,-10"/>
<text text-anchor="start" x="258.63" y="-15.4" font-family="Times-12" font-size="14.00"> &#160;Declarations</text>
<polygon fill="#8dd3c7" stroke="transparent" points="348,-10 348,-30 368,-30 368,-10 348,-10"/>
<text text-anchor="start" x="371.73" y="-15.4" font-family="Times-12" font-size="14.00"> &#160;Module</text>
<polygon fill="#80b1d3" stroke="transparent" points="434,-10 434,-30 454,-30 454,-10 434,-10"/>
<text text-anchor="start" x="457.78" y="-15.4" font-family="Times-12" font-size="14.00"> &#160;Bootstrap</text>
<polygon fill="#fdb462" stroke="transparent" points="531,-10 531,-30 551,-30 551,-10 531,-10"/>
<text text-anchor="start" x="554.67" y="-15.4" font-family="Times-12" font-size="14.00"> &#160;Providers</text>
<polygon fill="#fb8072" stroke="transparent" points="627,-10 627,-30 647,-30 647,-10 627,-10"/>
<text text-anchor="start" x="650.73" y="-15.4" font-family="Times-12" font-size="14.00"> &#160;Exports</text>
<g id="clust1" class="cluster">
<title>cluster_HelpModule</title>
<polygon fill="none" stroke="black" stroke-dasharray="1,5" points="8,-70 8,-195 930,-195 930,-70 8,-70"/>
</g>
<g id="clust7" class="cluster">
<title>cluster_HelpModule_imports</title>
<polygon fill="none" stroke="black" points="656,-78 656,-130 922,-130 922,-78 656,-78"/>
</g>
<g id="clust2" class="cluster">
<title>cluster_HelpModule_declarations</title>
<polygon fill="none" stroke="black" points="16,-78 16,-130 648,-130 648,-78 16,-78"/>
</g>
<!-- HelpComponent -->
<g id="node1" class="node">
<title>HelpComponent</title>
<polygon fill="#ffffb3" stroke="black" points="640.05,-122 531.95,-122 531.95,-86 640.05,-86 640.05,-122"/>
<text text-anchor="middle" x="586" y="-99.8" font-family="Times,serif" font-size="14.00">HelpComponent</text>
</g>
<!-- HelpModule -->
<g id="node5" class="node">
<title>HelpModule</title>
<polygon fill="#8dd3c7" stroke="black" points="554.26,-187 551.26,-191 530.26,-191 527.26,-187 467.74,-187 467.74,-151 554.26,-151 554.26,-187"/>
<text text-anchor="middle" x="511" y="-164.8" font-family="Times,serif" font-size="14.00">HelpModule</text>
</g>
<!-- HelpComponent&#45;&gt;HelpModule -->
<g id="edge1" class="edge">
<title>HelpComponent&#45;&gt;HelpModule</title>
<path fill="none" stroke="black" d="M543.05,-122.11C543.05,-122.11 543.05,-140.99 543.05,-140.99"/>
<polygon fill="black" stroke="black" points="539.55,-140.99 543.05,-150.99 546.55,-140.99 539.55,-140.99"/>
</g>
<!-- HelpContentComponent -->
<g id="node2" class="node">
<title>HelpContentComponent</title>
<polygon fill="#ffffb3" stroke="black" points="513.38,-122 360.62,-122 360.62,-86 513.38,-86 513.38,-122"/>
<text text-anchor="middle" x="437" y="-99.8" font-family="Times,serif" font-size="14.00">HelpContentComponent</text>
</g>
<!-- HelpContentComponent&#45;&gt;HelpModule -->
<g id="edge2" class="edge">
<title>HelpContentComponent&#45;&gt;HelpModule</title>
<path fill="none" stroke="black" d="M490.53,-122.11C490.53,-122.11 490.53,-140.99 490.53,-140.99"/>
<polygon fill="black" stroke="black" points="487.03,-140.99 490.53,-150.99 494.03,-140.99 487.03,-140.99"/>
</g>
<!-- HelpHeaderComponent -->
<g id="node3" class="node">
<title>HelpHeaderComponent</title>
<polygon fill="#ffffb3" stroke="black" points="342.46,-122 193.54,-122 193.54,-86 342.46,-86 342.46,-122"/>
<text text-anchor="middle" x="268" y="-99.8" font-family="Times,serif" font-size="14.00">HelpHeaderComponent</text>
</g>
<!-- HelpHeaderComponent&#45;&gt;HelpModule -->
<g id="edge3" class="edge">
<title>HelpHeaderComponent&#45;&gt;HelpModule</title>
<path fill="none" stroke="black" d="M268,-122.02C268,-139.37 268,-163 268,-163 268,-163 457.56,-163 457.56,-163"/>
<polygon fill="black" stroke="black" points="457.56,-166.5 467.56,-163 457.56,-159.5 457.56,-166.5"/>
</g>
<!-- HelpSidebarComponent -->
<g id="node4" class="node">
<title>HelpSidebarComponent</title>
<polygon fill="#ffffb3" stroke="black" points="175.81,-122 24.19,-122 24.19,-86 175.81,-86 175.81,-122"/>
<text text-anchor="middle" x="100" y="-99.8" font-family="Times,serif" font-size="14.00">HelpSidebarComponent</text>
</g>
<!-- HelpSidebarComponent&#45;&gt;HelpModule -->
<g id="edge4" class="edge">
<title>HelpSidebarComponent&#45;&gt;HelpModule</title>
<path fill="none" stroke="black" d="M100,-122.28C100,-143.32 100,-175 100,-175 100,-175 457.4,-175 457.4,-175"/>
<polygon fill="black" stroke="black" points="457.4,-178.5 467.4,-175 457.4,-171.5 457.4,-178.5"/>
</g>
<!-- HelpRoutingModule -->
<g id="node6" class="node">
<title>HelpRoutingModule</title>
<polygon fill="#8dd3c7" stroke="black" points="913.88,-122 910.88,-126 889.88,-126 886.88,-122 782.12,-122 782.12,-86 913.88,-86 913.88,-122"/>
<text text-anchor="middle" x="848" y="-99.8" font-family="Times,serif" font-size="14.00">HelpRoutingModule</text>
</g>
<!-- HelpRoutingModule&#45;&gt;HelpModule -->
<g id="edge5" class="edge">
<title>HelpRoutingModule&#45;&gt;HelpModule</title>
<path fill="none" stroke="black" d="M848,-122.28C848,-143.32 848,-175 848,-175 848,-175 564.37,-175 564.37,-175"/>
<polygon fill="black" stroke="black" points="564.37,-171.5 554.37,-175 564.37,-178.5 564.37,-171.5"/>
</g>
<!-- LayoutModule -->
<g id="node7" class="node">
<title>LayoutModule</title>
<polygon fill="#8dd3c7" stroke="black" points="763.71,-122 760.71,-126 739.71,-126 736.71,-122 664.29,-122 664.29,-86 763.71,-86 763.71,-122"/>
<text text-anchor="middle" x="714" y="-99.8" font-family="Times,serif" font-size="14.00">LayoutModule</text>
</g>
<!-- LayoutModule&#45;&gt;HelpModule -->
<g id="edge6" class="edge">
<title>LayoutModule&#45;&gt;HelpModule</title>
<path fill="none" stroke="black" d="M714,-122.02C714,-139.37 714,-163 714,-163 714,-163 564.55,-163 564.55,-163"/>
<polygon fill="black" stroke="black" points="564.55,-159.5 554.55,-163 564.55,-166.5 564.55,-159.5"/>
</g>
</g>
</svg>
