<?xml version="1.0" encoding="UTF-8" standalone="no"?>
<!DOCTYPE svg PUBLIC "-//W3C//DTD SVG 1.1//EN"
 "http://www.w3.org/Graphics/SVG/1.1/DTD/svg11.dtd">
<!-- Generated by graphviz version 2.47.0 (20210316.0004)
 -->
<!-- Title: dependencies Pages: 1 -->
<svg width="1290pt" height="211pt"
 viewBox="0.00 0.00 1290.00 211.00" xmlns="http://www.w3.org/2000/svg" xmlns:xlink="http://www.w3.org/1999/xlink">
<g id="graph0" class="graph" transform="scale(1 1) rotate(0) translate(4 207)">
<title>dependencies</title>
<polygon fill="white" stroke="transparent" points="-4,4 -4,-207 1286,-207 1286,4 -4,4"/>
<text text-anchor="start" x="620.01" y="-42.4" font-family="Times-12" font-weight="bold" font-size="14.00">Legend</text>
<polygon fill="#ffffb3" stroke="transparent" points="407,-10 407,-30 427,-30 427,-10 407,-10"/>
<text text-anchor="start" x="430.63" y="-15.4" font-family="Times-12" font-size="14.00"> &#160;Declarations</text>
<polygon fill="#8dd3c7" stroke="transparent" points="520,-10 520,-30 540,-30 540,-10 520,-10"/>
<text text-anchor="start" x="543.73" y="-15.4" font-family="Times-12" font-size="14.00"> &#160;Module</text>
<polygon fill="#80b1d3" stroke="transparent" points="606,-10 606,-30 626,-30 626,-10 606,-10"/>
<text text-anchor="start" x="629.78" y="-15.4" font-family="Times-12" font-size="14.00"> &#160;Bootstrap</text>
<polygon fill="#fdb462" stroke="transparent" points="703,-10 703,-30 723,-30 723,-10 703,-10"/>
<text text-anchor="start" x="726.67" y="-15.4" font-family="Times-12" font-size="14.00"> &#160;Providers</text>
<polygon fill="#fb8072" stroke="transparent" points="799,-10 799,-30 819,-30 819,-10 799,-10"/>
<text text-anchor="start" x="822.73" y="-15.4" font-family="Times-12" font-size="14.00"> &#160;Exports</text>
<g id="clust1" class="cluster">
<title>cluster_AdminModule</title>
<polygon fill="none" stroke="black" stroke-dasharray="1,5" points="8,-70 8,-195 1274,-195 1274,-70 8,-70"/>
</g>
<g id="clust2" class="cluster">
<title>cluster_AdminModule_declarations</title>
<polygon fill="none" stroke="black" points="600,-78 600,-130 1266,-130 1266,-78 600,-78"/>
</g>
<g id="clust7" class="cluster">
<title>cluster_AdminModule_imports</title>
<polygon fill="none" stroke="black" points="16,-78 16,-130 592,-130 592,-78 16,-78"/>
</g>
<!-- AdminComponent -->
<g id="node1" class="node">
<title>AdminComponent</title>
<polygon fill="#ffffb3" stroke="black" points="1258.22,-122 1137.78,-122 1137.78,-86 1258.22,-86 1258.22,-122"/>
<text text-anchor="middle" x="1198" y="-99.8" font-family="Times,serif" font-size="14.00">AdminComponent</text>
</g>
<!-- AdminModule -->
<g id="node5" class="node">
<title>AdminModule</title>
<polygon fill="#8dd3c7" stroke="black" points="649.44,-187 646.44,-191 625.44,-191 622.44,-187 550.56,-187 550.56,-151 649.44,-151 649.44,-187"/>
<text text-anchor="middle" x="600" y="-164.8" font-family="Times,serif" font-size="14.00">AdminModule</text>
</g>
<!-- AdminComponent&#45;&gt;AdminModule -->
<g id="edge1" class="edge">
<title>AdminComponent&#45;&gt;AdminModule</title>
<path fill="none" stroke="black" d="M1198,-122.29C1198,-144.21 1198,-178 1198,-178 1198,-178 659.45,-178 659.45,-178"/>
<polygon fill="black" stroke="black" points="659.45,-174.5 649.45,-178 659.45,-181.5 659.45,-174.5"/>
</g>
<!-- AdminContentComponent -->
<g id="node2" class="node">
<title>AdminContentComponent</title>
<polygon fill="#ffffb3" stroke="black" points="1120.05,-122 955.95,-122 955.95,-86 1120.05,-86 1120.05,-122"/>
<text text-anchor="middle" x="1038" y="-99.8" font-family="Times,serif" font-size="14.00">AdminContentComponent</text>
</g>
<!-- AdminContentComponent&#45;&gt;AdminModule -->
<g id="edge2" class="edge">
<title>AdminContentComponent&#45;&gt;AdminModule</title>
<path fill="none" stroke="black" d="M1038,-122.11C1038,-141.34 1038,-169 1038,-169 1038,-169 659.39,-169 659.39,-169"/>
<polygon fill="black" stroke="black" points="659.39,-165.5 649.39,-169 659.39,-172.5 659.39,-165.5"/>
</g>
<!-- AdminDraftComponent -->
<g id="node3" class="node">
<title>AdminDraftComponent</title>
<polygon fill="#ffffb3" stroke="black" points="937.75,-122 788.25,-122 788.25,-86 937.75,-86 937.75,-122"/>
<text text-anchor="middle" x="863" y="-99.8" font-family="Times,serif" font-size="14.00">AdminDraftComponent</text>
</g>
<!-- AdminDraftComponent&#45;&gt;AdminModule -->
<g id="edge3" class="edge">
<title>AdminDraftComponent&#45;&gt;AdminModule</title>
<path fill="none" stroke="black" d="M863,-122.03C863,-138.4 863,-160 863,-160 863,-160 659.47,-160 659.47,-160"/>
<polygon fill="black" stroke="black" points="659.47,-156.5 649.47,-160 659.47,-163.5 659.47,-156.5"/>
</g>
<!-- AdminSidebarComponent -->
<g id="node4" class="node">
<title>AdminSidebarComponent</title>
<polygon fill="#ffffb3" stroke="black" points="770.48,-122 607.52,-122 607.52,-86 770.48,-86 770.48,-122"/>
<text text-anchor="middle" x="689" y="-99.8" font-family="Times,serif" font-size="14.00">AdminSidebarComponent</text>
</g>
<!-- AdminSidebarComponent&#45;&gt;AdminModule -->
<g id="edge4" class="edge">
<title>AdminSidebarComponent&#45;&gt;AdminModule</title>
<path fill="none" stroke="black" d="M628.36,-122.11C628.36,-122.11 628.36,-140.99 628.36,-140.99"/>
<polygon fill="black" stroke="black" points="624.86,-140.99 628.36,-150.99 631.86,-140.99 624.86,-140.99"/>
</g>
<!-- AdminRoutingModule -->
<g id="node6" class="node">
<title>AdminRoutingModule</title>
<polygon fill="#8dd3c7" stroke="black" points="583.56,-122 580.56,-126 559.56,-126 556.56,-122 440.44,-122 440.44,-86 583.56,-86 583.56,-122"/>
<text text-anchor="middle" x="512" y="-99.8" font-family="Times,serif" font-size="14.00">AdminRoutingModule</text>
</g>
<!-- AdminRoutingModule&#45;&gt;AdminModule -->
<g id="edge5" class="edge">
<title>AdminRoutingModule&#45;&gt;AdminModule</title>
<path fill="none" stroke="black" d="M567.28,-122.11C567.28,-122.11 567.28,-140.99 567.28,-140.99"/>
<polygon fill="black" stroke="black" points="563.78,-140.99 567.28,-150.99 570.78,-140.99 563.78,-140.99"/>
</g>
<!-- DraftLayoutModule -->
<g id="node7" class="node">
<title>DraftLayoutModule</title>
<polygon fill="#8dd3c7" stroke="black" points="422.24,-122 419.24,-126 398.24,-126 395.24,-122 293.76,-122 293.76,-86 422.24,-86 422.24,-122"/>
<text text-anchor="middle" x="358" y="-99.8" font-family="Times,serif" font-size="14.00">DraftLayoutModule</text>
</g>
<!-- DraftLayoutModule&#45;&gt;AdminModule -->
<g id="edge6" class="edge">
<title>DraftLayoutModule&#45;&gt;AdminModule</title>
<path fill="none" stroke="black" d="M358,-122.03C358,-138.4 358,-160 358,-160 358,-160 540.74,-160 540.74,-160"/>
<polygon fill="black" stroke="black" points="540.74,-163.5 550.74,-160 540.74,-156.5 540.74,-163.5"/>
</g>
<!-- DraftsAccessModule -->
<g id="node8" class="node">
<title>DraftsAccessModule</title>
<polygon fill="#8dd3c7" stroke="black" points="276.17,-122 273.17,-126 252.17,-126 249.17,-122 141.83,-122 141.83,-86 276.17,-86 276.17,-122"/>
<text text-anchor="middle" x="209" y="-99.8" font-family="Times,serif" font-size="14.00">DraftsAccessModule</text>
</g>
<!-- DraftsAccessModule&#45;&gt;AdminModule -->
<g id="edge7" class="edge">
<title>DraftsAccessModule&#45;&gt;AdminModule</title>
<path fill="none" stroke="black" d="M209,-122.11C209,-141.34 209,-169 209,-169 209,-169 540.48,-169 540.48,-169"/>
<polygon fill="black" stroke="black" points="540.48,-172.5 550.48,-169 540.48,-165.5 540.48,-172.5"/>
</g>
<!-- LayoutModule -->
<g id="node9" class="node">
<title>LayoutModule</title>
<polygon fill="#8dd3c7" stroke="black" points="123.71,-122 120.71,-126 99.71,-126 96.71,-122 24.29,-122 24.29,-86 123.71,-86 123.71,-122"/>
<text text-anchor="middle" x="74" y="-99.8" font-family="Times,serif" font-size="14.00">LayoutModule</text>
</g>
<!-- LayoutModule&#45;&gt;AdminModule -->
<g id="edge8" class="edge">
<title>LayoutModule&#45;&gt;AdminModule</title>
<path fill="none" stroke="black" d="M74,-122.29C74,-144.21 74,-178 74,-178 74,-178 540.52,-178 540.52,-178"/>
<polygon fill="black" stroke="black" points="540.52,-181.5 550.52,-178 540.52,-174.5 540.52,-181.5"/>
</g>
</g>
</svg>
